<svg height="90" fill="none" class="cb-bn cb_af"><path fill-rule="evenodd" clip-rule="evenodd" d="m67.964 54.248-2.909.286c-4.644.354-9.286 1.094-13.894 1.538-.115-.186-.34-.155-.476-.026-.46-.04-.975-.391-1.392-.026l-.04-.005c-.742-1.422-1.255-2.939-1.752-4.458-.318-.933-.745-1.837-1.534-2.464-1.348-.934-4.435-2.83-6.018-2.75a1.173 1.173 0 0 0-.375-.763c.478-.813-1.433-1.345-1.568-1.25.087-2.72-1.194-5.081-4.017-5.622-2.53-.527-6.128-.615-7.488 2.025a33.29 33.29 0 0 0-1.826-.008c-.23-.291-2.755 2.466-1.72 3.426C13.7 48.24 8.439 47.75 5.878 59.247c-.346 1.08-.371 2.262-.737 3.318-1.3 3.034-2.356 6.265-2.618 9.566-.635.162-.708 1.28.027 1.441.28.062.515.146.72.306-.16 2.706.495 8.886.908 8.867.841 2.676 4.595 3.43 7.253 2.49-.458.861 0 1.403 0 1.863 9.563.361 20.019.153 29.579.649 1.223-.018 2.51.3 3.715.117.736-.176.737-1.332-.009-1.474l3.26-.708c-.073-.027 1.344-.969 2.415-2.728.997-1.967.318-4.343.77-6.483 3.527-.288 7.113-.412 10.602-1.008.475 1.421 2.534-.279 3.189-.963l-.003-.003a.794.794 0 0 0 .58-.734c.222-.317.268-.764.055-1.07.977-5.628 2.465-11.375 3.003-17.055.19-.042.37-.126.521-.254l-.012-.012c.257-.287.307-.781-.121-1.025-.346-.196-.635-.135-1.01-.099Z" fill="#fff"></path><path fill-rule="evenodd" clip-rule="evenodd" d="M26.677 40.12c.288-.723 1.262-.442 1.154.318-.065.455-.315.935-.54 1.334-.182.325-.39.642-.672.885.502.469 1.024.92 1.559 1.348.583.468 1.197.899 1.831 1.295.557.347 1.138.655 1.662 1.05.488.37.932.812 1.158 1.39.24.617.136 1.253-.041 1.868l-.02.07c-.182.61-.495 1.345-.06 1.92.22.292.542.499.82.733.247.208.479.434.691.676.464.53.84 1.125 1.079 1.789l.02.06c.205.587.354 1.307.078 1.884-.079.165-.334.111-.378-.05-.1-.364-.095-.746-.179-1.116a4.205 4.205 0 0 0-.422-1.095 5.924 5.924 0 0 0-1.452-1.722l-.176-.143c-.459-.375-.88-.774-.973-1.396-.1-.665.168-1.299.34-1.929.119-.439.158-.86.029-1.256-.158.258-.374.502-.544.72-.34.434-.682.865-1.023 1.298-.35.443-.692.893-1.018 1.355-.145.207-.29.415-.433.623-.108.157-.258.313-.376.472.029.086.027.184-.025.254-.624.842-1.511-.915-1.742-1.358-.472-.904-.823-1.864-1.295-2.768a21.735 21.735 0 0 0-1.67-2.703c-.376-.517-.798-1.003-1.142-1.537-.81.734-1.877 1.227-2.857 1.673-1.076.49-2.194.89-3.298 1.316l-.326.127c-1.902.741-3.85 1.555-5.43 2.872-1.858 1.548-2.957 3.705-3.775 5.938-.942 2.571-1.72 5.212-2.447 7.85-.372 1.35-.724 2.707-1.056 4.068-.292 1.198-.534 2.41-.872 3.596.686-.025 1.468.24 2.053.317 2.669.349 5.302.905 7.821 1.868.311.12.401.43.334.681l.538-.152c-.197-.3-.103-.839-.087-1.172v-.023c.016-.445.065-.89.096-1.334.06-.845.137-1.685.24-2.526l.027-.21c.117-.915.203-1.835.33-2.749l.016-.104a12.397 12.397 0 0 0-.207-.695c-.2-.612-.48-1.188-.727-1.78-.03-.07.07-.11.117-.069.417.375.749.85 1.015 1.349l.013-.071.03-.15c.076-.364.167-.747.39-1.043.025-.031.072-.038.094 0 .214.362.238.82.271 1.233.038.466.042.938.036 1.405-.013.913-.078 1.829-.129 2.74-.05.897-.15 1.781-.277 2.668l-.024.167c-.062.422-.113.85-.195 1.269l-.024.114c-.043.208-.07.501-.158.745 2.25-.627 4.504-1.24 6.762-1.842 1.632-.435 3.266-.863 4.899-1.295.086-.155.193-.3.327-.43.441-.426 1.026-.616 1.562-.288.044.027.047.095 0 .121a9.79 9.79 0 0 0-.307.174l.98-.266c.734-.198 1.475-.446 2.225-.584 1.382-.681 2.868-1.175 4.324-1.662l.171-.058c.745-.253 1.516-.538 2.286-.678.564-.103 1.226.021 1.452.598.287.189.557.41.818.63.188.157.369.325.552.488l.034.03c.15.13.27.217.306.424.019.107-.05.252-.181.237-.404-.043-.733-.51-1.007-.79a10 10 0 0 1-.618-.677c-.113.062-.267.05-.34-.085-.371-.704-1.39-.216-1.953-.05l-.808.24c-.403.119-.807.24-1.21.361-1.107.336-2.208.712-3.326 1.02.1.11.087.305-.103.38-.875.342-1.834.52-2.743.755-.573.148-1.146.298-1.72.448a1.402 1.402 0 0 0-.198.549c-.11.77.101 1.658.307 2.403l.03.11c.17.6.418 1.333.935 1.711a.917.917 0 0 0 .45.171l3.036-1.56c.188-.096.361.034.404.189.357-.059.713-.151 1.037-.261.546-.185.971-.538 1.483-.782.989-.472 1.999.108 2.884.549l.205.1c.397.192 1.223.562 1.413.036.185-.51-.398-1.054-.774-1.283-.449-.273-.971-.42-1.478-.541a9.278 9.278 0 0 0-.877-.168c-.335-.047-.68-.04-1.002-.148-.16-.054-.185-.308 0-.35.495-.113 1.087.01 1.604.136l.27.067c.521.127 1.047.287 1.522.542.345.186.71.467.947.812.207-.192.464-.186.732-.115l.145.04c.24.067.435.113.669.067.031-.17.063-.34.097-.51.333-1.669.698-3.332 1.1-4.987.696-2.853 1.5-5.675 2.406-8.469l.091-.279c.21-.639.378-1.335.715-1.922.318-.555.83-.875 1.436-1.044.689-.192 1.412-.292 2.115-.422.157-.03.314-.057.47-.085-.132-.24-.23-.51-.32-.719l-.016-.036c-.191-.436-.363-.88-.53-1.326l-.123-.336c-.3-.808-.61-1.602-1.032-2.358a6.137 6.137 0 0 0-1.766-1.983c-1.497-1.098-3.3-1.657-4.752-2.83-.06-.048.017-.13.077-.1.98.492 2.038.827 3.058 1.227l.2.08c.806.318 1.625.666 2.322 1.182a6.443 6.443 0 0 1 1.85 2.142c.454.839.744 1.778 1.064 2.673l.086.239c.129.358.262.715.415 1.063.121.276.348.592.45.908a135.512 135.512 0 0 1 19.302-1.935c.242-.008.367.223.332.434-.594 3.505-1.121 7.023-1.7 10.531-.252 1.531-.51 3.062-.774 4.59-.133.776-.288 1.547-.414 2.323-.102.627-.176 1.258-.352 1.87-.157.55-.398 1.079-.795 1.497-.427.452-1.023.67-1.624.773-1.523.262-3.087.37-4.623.544l-8.179.93c.12 1.085.129 2.153.074 3.25l-.031.6c-.026.482-.056.965-.126 1.442-.087.599-.36 1.105-.764 1.552-.371.41-.822.761-1.26 1.097-.454.348-.924.685-1.459.9l-.07.028c-.468.183-1.348.466-1.989.362.084.42.246.87.102 1.286-.066.192-.319.288-.473.124-.306-.325-.33-.754-.403-1.178-.075-.44-.14-.884-.198-1.327a26.383 26.383 0 0 1-.225-2.59 31.533 31.533 0 0 1 .03-2.666 18.701 18.701 0 0 1 .227-2.154l-.734.083c-1.125.125-2.252.239-3.385.256a.366.366 0 0 1-.305-.148.42.42 0 0 1-.377.2c-1.583-.006-3.057-.523-4.497-1.132-.726-.308-1.44-.64-2.167-.945-.678-.284-1.404-.487-2.066-.807l-1.74.911a.749.749 0 0 1-.046.123c-.113.23-.337.356-.565.45-.218.091-.445.12-.666.097l-3.96 2.069-1.32.688c-2.633 1.368-5.254 2.76-7.902 4.096l-.195.098c-.915.458-1.897.923-2.912 1.27-.018.256-.007.506.015.777l.005.06c.03.32.095.723-.163.951-.134.12-.373.12-.465-.06-.165-.325-.017-.837.036-1.19a3.38 3.38 0 0 1 .075-.38c-1.164.346-2.363.514-3.547.32-1.153-.19-2.046-.915-2.766-1.802a8.198 8.198 0 0 1-1.59-3.198c-.33-1.332-.35-2.707-.343-4.07.008-1.453.062-2.912.239-4.355a2.106 2.106 0 0 0-.605-.07.47.47 0 0 1-.455.2c-.37.406.568.822.868.927.104.036.093.205-.027.2l-.076-.004c-.463-.025-.941-.103-1.213-.533-.218-.345-.153-.753.107-1.034.172-1.622.582-3.201.964-4.783.375-1.553.792-3.096 1.234-4.632l.199-.687c.696-2.407 1.423-4.834 2.383-7.145.48-1.155 1.031-2.288 1.78-3.294a11.322 11.322 0 0 1 2.468-2.427c1.766-1.278 3.837-2.05 5.872-2.786l.09-.033c1.056-.381 2.108-.767 3.15-1.18.922-.365 1.806-.828 2.723-1.198a4.647 4.647 0 0 1-.086-.164l-.017.014a.149.149 0 0 1-.009.006c-.092.064-.228.033-.304-.039-.215-.202-.142-.427.001-.637l.019-.027c.175-.245.332-.504.493-.759l.102-.159c.271-.424.557-.852.919-1.203.168-.163.351-.284.546-.375-.017-.035.13-.107.17-.07.617-.226 1.326-.179 1.998-.117m24.216 36.965-.857.098c-.942.107-1.886.21-2.829.313l-2.049.222c-.005.117-.019.231-.022.32-.013.454-.023.908-.032 1.362-.02.911.001 1.823.061 2.732.059.881.135 1.762.254 2.637l.025.175.014.092a.4.4 0 0 1 .272.15c.173.207.8.006 1.046-.081.403-.143.782-.386 1.133-.628.342-.237.65-.514.945-.805l.242-.239c.241-.239.482-.494.63-.794.2-.408.226-.909.285-1.353.072-.546.158-1.092.249-1.636m-24.244-8.3-.089.024c-3.229.857-6.453 1.74-9.692 2.559-1.602.405-3.213.781-4.818 1.179l-.26.065c-1.265.32-2.547.704-3.516 1.621-.036.034-.088-.018-.054-.054 1.045-1.11 2.53-1.581 3.957-1.989l.792-.224c-1.94-.69-3.911-1.292-5.928-1.72-.52-.111-1.045-.192-1.563-.303-.362-.077-.716-.19-1.074-.282l-.281-.07-.004.888c-.005 1.26-.003 2.518.062 3.777l.012.233c.075 1.402.192 2.832.69 4.153.404 1.074 1.05 2.085 1.892 2.867.427.396.886.704 1.453.856.526.141 1.078.158 1.619.12 2.596-.18 4.907-1.59 7.162-2.756 3.688-1.907 7.377-3.814 11.07-5.714a1.802 1.802 0 0 1-.28-.235c-.495-.511-.756-1.21-.928-1.888a9.944 9.944 0 0 1-.305-2.237m4.781 5.096a.048.048 0 0 1 .072.041c.011.282-.145.56-.261.813l-.012.028c-.142.314-.297.624-.457.93-.32.609-.653 1.212-1 1.807-.698 1.197-1.474 2.343-2.392 3.385-.207.235-.548-.067-.415-.32.641-1.222 1.389-2.375 2.158-3.518.385-.573.77-1.146 1.159-1.716.162-.238.326-.475.495-.708l.102-.14m38.846-23.67a133.123 133.123 0 0 0-20.52 2.2l-.37.07c-.62.117-1.376.166-1.927.496-.581.348-.738 1.076-.932 1.676a158.536 158.536 0 0 0-3 10.645c-.346 1.42-.654 2.849-.977 4.274a110.224 110.224 0 0 1-.937 3.773.37.37 0 0 1 .151-.07c1.647-.35 3.328-.501 4.999-.695l.162-.018c1.728-.203 3.457-.405 5.187-.6L62.17 75.12c.675-.076 1.399-.086 2.056-.267 1.118-.308 1.38-1.556 1.567-2.55l.006-.03c.565-3.003 1.015-6.032 1.542-9.043M40.484 74.297c-.444-.03-1.053-.436-1.39-.407.177.297.257.635.155.997-.284 1.006-1.569.485-2.188.178-.507-.252-.997-.56-1.558-.679-.637-.133-1.068.12-1.605.41-.442.24-.923.412-1.417.5a2.993 2.993 0 0 1-.762.034.313.313 0 0 1-.051.034l-.132.07c.596.026 1.203.21 1.758.379.575.174 1.14.384 1.701.599l.553.212c1.362.521 2.773 1.016 4.247 1.012.106 0 .193.029.262.077m-2.06-6.569c.439-.053.845.004 1.196.29.423.344.707.916 1.316.953.177.01.218.26.042.312-.453.134-.82-.11-1.128-.428l-.208-.217c-.305-.316-.586-.56-1.104-.54-.554.02-1.11.148-1.66.213a60.29 60.29 0 0 1-1.873.19c-.029.003-.034-.043-.007-.05l.701-.174m2.3-2.343.073-.007c.638-.062 1.221-.064 1.791.278l.11.067c.513.311 1.072.679 1.393 1.184.053.082-.034.18-.122.159-.617-.149-1.069-.6-1.588-.94-.582-.38-1.184-.317-1.849-.258-.643.057-1.286.136-1.922.243-.599.1-1.2.26-1.804.31v-.001c-.069 0-.108-.104-.038-.14.614-.305 1.324-.45 1.992-.59M15.73 52.024c0-.05.07-.07.095-.026.415.73.632 1.624.853 2.427.232.842.419 1.692.587 2.549.34 1.735.521 3.46.533 5.227.002.252-.41.32-.45.06-.267-1.719-.523-3.44-.793-5.16-.135-.864-.293-1.725-.444-2.587m3.728-1.22c-.03-.1.116-.134.153-.042.833 2.042 1.115 4.357.58 6.512-.081.33-.564.186-.503-.139m10.514-8.145c-.005-.076.093-.088.13-.036.395.556.559 1.3 1.251 1.587.346.143.735.118 1.04.36.204.162.361.418.208.663-.05.079-.188.119-.255.033-.098-.126-.15-.276-.283-.37-.188-.133-.44-.14-.656-.203a1.603 1.603 0 0 1-.724-.431m5.882-10.868c.04-.02.08-.008.106.027.037.05.033.1-.013.134.06.124.133.434.143.48.041.183.086.365.132.548.093.367.175.737.268 1.105a14.39 14.39 0 0 0 .376 1.23l.015.039.004-.006c.026-.042.082-.013.075.032l-.021.121.014.037c.086.23.145.473-.013.677a.322.322 0 0 1-.205.135c-.13.427-.292.845-.466 1.247l-.05.118c-.257.587-.53 1.166-.938 1.665-.445.545-1.057.918-1.444 1.515-.18.278-.306.57-.408.885l-.038.119c-.073.222-.156.437-.365.567a.184.184 0 0 1-.22-.028c-.427-.452.02-1.296.278-1.733.359-.608.877-.997 1.397-1.456.56-.495.917-1.157 1.262-1.809.212-.4.416-.807.631-1.208-.224-.199-.296-.593-.372-.867l-.007-.024a9.792 9.792 0 0 1-.29-1.34 7.358 7.358 0 0 1-.07-1.3l.005-.112m1.05 1.27c-.05-.068.032-.145.1-.13.414.085.82.335 1.19.538l.04.021c.297.16.596.356.751.666.17.338.156.726.133 1.093l-.002.034c-.029.44-.033.897-.127 1.329-.047.22-.248.283-.419.23-.204.644-.776 1.118-1.195 1.625-.533.647-.433 1.52-.377 2.3.023.315-.37.404-.572.236l-.466-.387a47.784 47.784 0 0 1-.43-.363l-.097-.085c-.043-.039-.233-.251-.29-.26-.134-.021-.454.333-.563.445l-.014.014c-.206.201-.393.419-.566.65-.032.041-.094.006-.072-.043.156-.332.337-.65.551-.948l.043-.06c.143-.192.335-.53.587-.588.308-.069.615.24.84.41l.013.011c.107.08.212.161.317.243-.01-.58.063-1.166.362-1.666.212-.352.529-.614.8-.916.301-.338.459-.752.732-1.104a.207.207 0 0 1 .136-.077c.01-.282.052-.567.084-.847l.01-.084c.032-.303.11-.674-.04-.958-.14-.269-.463-.458-.701-.64l-.195-.151m-14.003-3.748a1.515 1.515 0 0 0-.347.274c-.333.353-.57.791-.802 1.214-.125.227-.245.457-.37.684-.055.099-.112.196-.168.294-.027.044-.105.134-.144.189.044.06.088.12.133.178.018.022 1.212 1.321 1.628 1.83a16.63 16.63 0 0 1 1.693 2.482c.477.862.84 1.775 1.282 2.653.221.44.468.877.783 1.258l.037.044c.12-.324.428-.671.58-.87l.013-.02c.343-.461.705-.909 1.075-1.35a36.33 36.33 0 0 1 1.04-1.181l.133-.145c.247-.267.561-.666.923-.856a1.717 1.717 0 0 0-.135-.205c-.34-.443-.819-.764-1.292-1.054l-.306-.186c-1.157-.704-2.295-1.44-3.299-2.355-.53-.484-1.055-.991-1.501-1.556l-.158-.199m1.131-1.471c-.541.045-1.126.035-1.626.21.445.42.867.874 1.302 1.302.038-.29.118-.575.184-.856" fill="#2B283A"></path><path d="m58.902 63.88-2.239.203a.49.49 0 0 0-.444.53l.012.125a.49.49 0 0 0 .531.443l2.239-.202a.49.49 0 0 0 .443-.531l-.01-.125a.49.49 0 0 0-.532-.442ZM57.809 65.289l-1.093.099a.424.424 0 0 0-.385.46l.01.108a.424.424 0 0 0 .461.384l1.093-.099a.424.424 0 0 0 .385-.46l-.01-.108a.424.424 0 0 0-.461-.384ZM57.848 66.448l-2.238.202a.49.49 0 0 0-.444.53l.011.125a.49.49 0 0 0 .532.443l2.238-.202a.49.49 0 0 0 .444-.53l-.011-.125a.489.489 0 0 0-.532-.443ZM54.292 66.769l-.14.013a.49.49 0 0 0-.444.53l.011.125a.49.49 0 0 0 .532.443l.14-.013a.489.489 0 0 0 .444-.53l-.011-.125a.49.49 0 0 0-.532-.443Z" fill="#2B283A"></path><path fill-rule="evenodd" clip-rule="evenodd" d="M44.812 25.232c-.26-2.08-1.078-4.29-1.939-6.23-1.935-4.101-6.365-4.666-10.336-5.512-3.919-.57-8.069-1.087-11.928.053-2.17.532-3.018 3.119-2.675 5.16.195 1.273.774 2.477 1.267 3.656.98 2.42 1.602 5.013 1.604 7.634-.068 1.713-.31 3.669 1.657 4.394 1.872.932 2.03 3.457 4.373 4.89.947 1.921 3.528 2.09 5.386 2.536 1.174.225 2.361.39 3.552.497 3.447.442 6.205-.558 8.01-3.632 1.207-1.87 2.106-4.031 1.884-6.298-.22-2.388-.59-4.763-.855-7.148Z" fill="#fff"></path><path fill-rule="evenodd" clip-rule="evenodd" d="M32.567 8.506c.197-.224.5-.147.684.03.12.035.236.087.345.157.248-.032.508-.032.75-.023.06-.033.123-.063.191-.088.492-.18.927-.088 1.285.152a.869.869 0 0 1 .67-.25c.249.013.426.13.578.285a.921.921 0 0 1 .702-.397c.426-.03.836.141 1.176.406.198-.227.468-.358.768-.359.198-.036.407-.022.596.035.274.083.514.238.706.44.303-.29.674-.5 1.102-.47.553.04 1.012.448 1.226.95.374.15.72.364 1.01.67l.045.05c.156.057.302.139.432.246.409.341.5.834.364 1.318.02.077.036.155.05.234.383.058.732.28.93.64.27.495.217 1.146-.076 1.619a2.18 2.18 0 0 1-.466.524 1.324 1.324 0 0 1-.222 1.387c-.08.13-.178.245-.288.35.121.479-.095.972-.528 1.227l-.037.093-.019.046c-.004.02-.01.038-.016.058a.943.943 0 0 1-.177.492c-.227.322-.508.531-.657.906l-.015.04c-.064.177-.27.302-.447.248.979 2.012 1.492 4.25 1.844 6.444a55.52 55.52 0 0 1 .422 3.296l.107 1.098c.095.976.18 1.955.18 2.934.002 2.215-.631 4.346-1.99 6.108-1.285 1.666-3.103 2.874-5.157 3.35-2.12.49-4.608.297-6.51-.826-.56-.33-.07-1.124.5-.858 1.08.503 2.178.876 3.376.96a8.672 8.672 0 0 0 3.443-.446c1.83-.633 3.389-1.959 4.39-3.61a8.241 8.241 0 0 0 1.04-2.629c.237-1.163.202-2.365.115-3.542l-.006-.08c-.172-2.27-.399-4.553-.765-6.8a36.308 36.308 0 0 0-1.468-5.835 3.482 3.482 0 0 0-.84-.548 60.118 60.118 0 0 0-6.659.087c-1.89.132-3.771.355-5.638.679l-.2.035c-.414.074-.873.116-1.262.283-.334.143-.47.418-.554.757-.212.856-.244 1.793-.28 2.671-.035.859.044 1.724-.024 2.58-.059.716-.242 1.448-.772 1.966-.277.271-.618.42-.938.625-.207.133-.294.27-.268.516.058.538.49 1.216.004 1.677-.085.08-.233.091-.317 0-.201-.219-.478-.385-.716-.562a.095.095 0 0 1 .096-.164c.149.067.3.146.455.214-.342-.282-.83-.42-1.235-.503a2.228 2.228 0 0 0-.631-.033 11.698 11.698 0 0 1-1.097.45c-.72.588-1.065 1.544-.915 2.48.083.515.32 1.077.769 1.378.531.357 1.243.204 1.817.469.537.248.864.748 1.11 1.267l.101.216c.227.478.461.943.772 1.378.36.503.8.956 1.279 1.344.233.188.481.358.738.512l.07.041c.26.153.445.298.463.62.006.113-.065.215-.157.274-.393.25-.783-.063-1.11-.28a8.071 8.071 0 0 1-1.003-.787 7.752 7.752 0 0 1-1.503-1.9c-.3-.537-.472-1.292-.948-1.708-.29-.254-.7-.256-1.063-.302-.338-.044-.657-.114-.958-.28-1.221-.68-1.567-2.324-1.277-3.595.05-.215.118-.423.203-.624-.455.076-.966-.395-.781-.87.014-.036.03-.07.045-.104a1.565 1.565 0 0 1-.648-.888 1.414 1.414 0 0 1-.036-.604.976.976 0 0 1-.342-.397 1.22 1.22 0 0 1-.583-.517.939.939 0 0 1-.02-.907 2.433 2.433 0 0 1-.055-.105c-.494-.314-.84-.855-.8-1.455a1.48 1.48 0 0 1 .137-.54 1.985 1.985 0 0 1-.018-.061c-.414-.21-.757-.557-.879-1.02-.122-.464.022-.928.31-1.285-.421-.308-.675-.739-.52-1.39.062-.265.187-.506.357-.709l-.003-.019-.04-.03c-.52-.411-.818-.934-.5-1.578.144-.29.348-.491.588-.624l.012-.038a1.72 1.72 0 0 1-.112-1.209c.097-.354.327-.637.62-.824a1.736 1.736 0 0 1 .015-.512c.052-.31.206-.58.43-.772.009-.04.02-.08.031-.12a2.17 2.17 0 0 1 .382-.71.593.593 0 0 1 .472-.23 1.698 1.698 0 0 1 .028-.459c.095-.479.4-.929.85-1.133.186-.084.38-.108.569-.088.16-.337.472-.582.856-.635.15-.02.288-.02.416 0 .072-.034.147-.064.226-.092l.157-.052c.178-.22.411-.396.684-.502a1.29 1.29 0 0 1 .92-.008l.09-.019a1.09 1.09 0 0 1 .716-.522c.394-.098.8.038 1.11.287l.004-.001c.162-.363.44-.616.905-.599.29.011.551.156.753.36l.338-.039c.12-.14.252-.27.399-.387.24-.193.552-.177.729.094.038.059.074.118.11.178l.162-.011c.19-.258.451-.432.808-.446.327-.014.56.147.737.37l.435-.008c.17-.196.369-.369.596-.512a.478.478 0 0 1 .572.074c.095.1.184.203.266.31.213-.238.5-.395.807-.455ZM22.239 30.813c.327-.187.768.015 1.085.174.387.193.77.485 1.007.85.322.497-.435.9-.774.453-.208-.275-.374-.551-.627-.792-.23-.22-.566-.368-.698-.659-.005-.01-.004-.02.007-.026Zm.23-12.072.006-.018c.093-.255-.314-.365-.406-.112-.14.384.021.8.4.966.105.046.225.03.288-.075.053-.09.028-.243-.076-.289-.213-.093-.284-.257-.212-.472Zm-3.504-.714c.204-.18-.095-.477-.298-.298-.189.167-.329.394-.293.655.038.266.238.454.457.586.233.141.445-.223.213-.364l-.026-.016c-.098-.06-.212-.143-.228-.262-.017-.127.09-.225.175-.301Zm1.156-3.173.014-.011c.219-.156.009-.522-.213-.364-.202.145-.365.333-.382.593-.017.252.111.471.28.649.186.197.483-.101.297-.299-.181-.192-.217-.401.004-.568Z" fill="#2B283A"></path><path fill-rule="evenodd" clip-rule="evenodd" d="M45.296 34.999c-.087-.26-.535-.238-.508.069.032.35-.088.74-.423.91-.35.178-.746.018-.96-.287-.186-.266-.314-.554-.548-.786a2.034 2.034 0 0 0-.773-.48 1.585 1.585 0 0 0-.686-.071c-.566-.128-1.221.163-1.574.604a1.597 1.597 0 0 0-.064.087 2.965 2.965 0 0 0-.11-.14c-.1-.12-.224-.146-.336-.114a2.045 2.045 0 0 0-2.255-.109c-.58.343-1.06.85-1.774.888-.565.032-1.18-.291-1.22-.913-.021-.324-.463-.595-.71-.294-.522.632-.626 1.47-.338 2.235.304.806.924 1.374 1.71 1.708.847.36 1.84.486 2.757.457.914-.028 1.745-.38 2.296-1.128.066-.09.124-.18.174-.272.535.681 1.374.968 2.228.989.894.021 1.95-.136 2.582-.83.609-.67.819-1.666.532-2.523Z" fill="#2B283A"></path><path fill-rule="evenodd" clip-rule="evenodd" d="M37.603 38.307a3.054 3.054 0 0 1-1.283-.986.59.59 0 0 1-.12-.46.663.663 0 0 1 .258-.415.62.62 0 0 1 .464-.125.58.58 0 0 1 .391.258l.023.032c.196.264.45.481.741.62.28.135.593.198.917.162.617-.07 1.042-.403 1.494-.855.056-.057.112-.116.168-.176a.265.265 0 0 1 .14-.108.305.305 0 0 1 .344.118.28.28 0 0 1 .048.186c-.041.468-.287.887-.635 1.215-.388.365-.9.618-1.384.706a2.81 2.81 0 0 1-1.566-.172Zm1.817-7.233c.566.344 1.43 1.145.82 1.998-.717.751-1.75-.11-2.259-.5-.471-.302-1.002.475-.564.828 3.677 2.718 5.17-2.236 2.29-2.73-.318-.055-.435.298-.287.404Zm-6.59-3.163c.063-.776 1.246-.952 1.364-.184.105.688-.019 1.32-.329 1.938-.296.592-1.04.316-1.097-.223-.076-.722.024-1.048.063-1.53Zm9.006-.343c.165-.216.403-.363.689-.28.891.26.628 1.524.315 2.14-.17.333-.72.418-.968.124-.405-.48-.6-1.438-.084-1.91a.646.646 0 0 1 .048-.074Zm-7.983-3.051.14-.025c.436-.075.978-.147 1.286.202.163.186.22.53 0 .708-.387.313-.814.191-1.277.218a5.079 5.079 0 0 0-1.116.19c-.806.23-1.463.65-2.152 1.112-.09.06-.183-.055-.14-.14.398-.777 1.168-1.416 1.94-1.806.412-.208.863-.38 1.319-.46Zm7.17-.349.108.023c1.173.244 2.697.733 3.252 1.884.022.163 0 .198-.019.22l-.006.008c-.015.02-.027.046-.097.068l-.06-.015a3.367 3.367 0 0 1-.65-.253l-.212-.104a5.825 5.825 0 0 0-.755-.322 8.899 8.899 0 0 0-1.72-.379.707.707 0 0 1-.345-.13.517.517 0 0 1-.193-.294.526.526 0 0 1 .06-.44.558.558 0 0 1 .271-.235.64.64 0 0 1 .367-.03Z" fill="#2B283A"></path><path fill-rule="evenodd" clip-rule="evenodd" d="M65.322 43.753c3.096-.68 4.932-.68 5.97-1.736 1.04-1.055 1.228-2.866 1.66-4.265.237-.77 2.563-1.47 4.82-1.36 1.84.089 3.693.864 3.836 1.36.32 1.104.832 5.831 2.518 6.557 1.686.727 5.286.065 6.315 1.799 1.03 1.734 4.41 8.803 4.41 10.45 0 1.648-33.046 1.144-33.046 1.144s.422-13.268 3.517-13.949Z" fill="#fff"></path><path fill-rule="evenodd" clip-rule="evenodd" d="M51.827 82.124c.048.034.01.034 0 0Zm-.183-.137.01.008c-.037-.003-.06-.042-.01-.008Zm48.905-4.367-.622-2.66-1.301-5.562-2.546-10.879c-.43-1.843-.923-3.671-1.368-5.511-.389-1.613-.71-3.264-1.379-4.79-.682-1.558-1.88-2.86-3.467-3.52-1.336-.555-2.84-.862-4.294-.933.182-.223.225-.554-.041-.825-.331-.334-.398-.832-.487-1.275-.11-.553-.28-1.146-.61-1.612-.14-.197-.342-.29-.581-.236-.147.032-.291.07-.433.113a1.01 1.01 0 0 1-.132-.155c-.09-.138-.148-.34-.278-.445-.087-.072-.187-.09-.29-.038-.275.14-.298.563-.239.823.012.05.026.1.044.15a5.29 5.29 0 0 1-.057.026h-.001c-.36-.069-.818.075-1.169.11a19.023 19.023 0 0 1-3.736-.002c-.813-.08-1.62-.21-2.422-.357-.5-.091-1.11-.167-1.549-.467-.007-.15-.01-.3-.013-.45-.007-.26.007-.464-.132-.693-.002-.002-.005-.003-.008-.002a.918.918 0 0 0-.385.424.777.777 0 0 0-.495.026c-.217.09-.379.194-.547.36-.251.247-.324.535-.398.866-.053.237-.086.407-.18.566-.02.034-.042.07-.066.103a4.847 4.847 0 0 1-.135.135c-.016.016-.096.08-.083.072-.345.256-.656.352-1.082.474-.915.264-1.853.436-2.765.715-.997.306-1.972.678-2.925 1.1-3.708 1.64-7.026 4.237-9.29 7.619-2.634 3.94-3.604 8.724-4.085 13.362-.526 5.085-.49 10.226-.605 15.332l-.042 1.915c-.015.624-.053 1.297.501 1.717.495.374 1.097.257 1.644.088a14.22 14.22 0 0 1 1.786-.425 13.228 13.228 0 0 1 3.463-.103c.618.06 1.373.29 1.88-.194.183-.174.288-.395.374-.626.107-.286.232-.566.356-.847l.307-.695.496 2.171c.065.286.363.307.543.169.293.157.679.154 1.012.192.536.062 1.076.083 1.615.102 1.055.036 2.11.056 3.166.07 2.153.027 4.305.017 6.458.007 4.263-.018 8.526-.105 12.788-.216l3.6-.088 1.8-.045c.18-.005.361-.022.532-.062.076.067.17.118.281.148a.755.755 0 0 0 .914-.519c.055-.176.094-.338.08-.509l.062-.388c.665.42 1.464.535 2.251.483.892-.059 1.782-.222 2.667-.343.83-.114 2.175-.077 2.215-1.222.015-.42-.163-.89-.257-1.294l-.34-1.45Z" fill="#2B283A"></path><path fill-rule="evenodd" clip-rule="evenodd" d="M79.723 12.37c2.877 0 6.329 1.396 6.623 1.424h.007c.155 0 .758.46 1.81 1.38l-1.14 2.226.093.088c.441.424.818.81 1.115 1.114 2.429 2.486 2.866 12.243 2.293 15.646-.572 3.403-1.632 6.733-6.567 6.733-4.935 0-10.425-2.97-11.271-3.896-.564-.616-1.197-.912-1.9-.886a23.935 23.935 0 0 1-.086-.11l-.104-.014c-.972-.14-1.67-.33-2.09-.57-.823-.465-1.727-2.915-1.727-3.454 0-.534-1.35-4.42-1.378-4.832v-.011c0-.344-1.764-1.924-1.764-2.426 0-.502-.356-.472 0-2.24l.103-.52c.379-1.883 1.12-5 3.943-6.356 3.103-1.489 9.134-3.296 12.04-3.296Z" fill="#fff"></path><path fill-rule="evenodd" clip-rule="evenodd" d="M67.204 15.597c1.547-1.645 10.333-4.188 14.778-3.65l.133.018c.355.045.705.113 1.05.206 1.115.26 2.267.655 3.188 1.315.77.54 3.196 1.42 2.48 2.832.266.502.365 1.124.186 1.62a1.941 1.941 0 0 1-.143.491c.567.837 1.015 1.784 1.378 2.684.635 2.266 1.03 4.624 1.087 6.935.193 4.392-.288 9.638-4.11 12.478-2.307 1.8-5.923 1.86-8.517-.371-.147-.175-.84-.645-.608-.728.068.073.139.144.21.213a.042.042 0 0 1-.002-.024l-.067-.061c-.128-.118-.293-.29-.105-.256l.026.028c.04.024.07.044.094.063l.012.01-.004-.005c-.108-.115-.173-.233-.011-.158l.021.01c.072.077.145.15.22.22a.042.042 0 0 1 .005-.026l-.07-.067c-.068-.067-.057-.067-.024-.12-.145-.203.125-.083.144-.004.168-.04.316.277.424.315 4.755 3.66 11.656.413 11.544-9.785l-.001-.2c-.033-3.26-.307-6.611-1.654-9.563a8.499 8.499 0 0 0-.44-.828c-.11-.201-.23-.397-.357-.587a5.29 5.29 0 0 1-1.06-.196 5.068 5.068 0 0 1-.356-.103c-1.727.094-3.416.197-5.148.294l-.541.034c-1.467.094-2.985.245-4.169 1.154-1.162.827-1.167 2.458-2.162 3.366-1.418.964-1.428 1.832-1.701 3.252.02 1.07.761 2.626-.599 3.077.23.327-.09.17-.116.055l-.007.001c.205.38-.096.141-.122.019a.117.117 0 0 1-.049-.032c.207.333-.127.1-.107.039-.398-.613-1.218-.708-1.795-.546-.007.022-.033.024-.05.013-2.456.532-1.822 5.623.695 5.131.108-.022.106.03.127.035-.058-.153.106-.09.104-.059h.01c.008-.001.005-.002.01 0-.056-.312.26.14.236.16a.082.082 0 0 1 .03-.011l-.01-.03c-.053-.14-.049-.082-.048-.162-.04-.099-.043-.056-.033-.12.138-.108.18.218.225.242-.079-.11-.016-.2.059-.14.567 1.193 1.3 2.315 2.246 3.198.103.082.208.162.317.238.402.351 1.02.577 1.397.888a.038.038 0 0 1-.007.018l.009.008.008.008.132.063c.038.033.073.07.104.11.032.038.061.08.086.124.012.055-.015.077-.066.054l-.068-.025.003.004c.008.011.058.127 0 .108l-.007-.002-.094-.037c.037.046.07.095.1.137.032.033.05.072.059.115-.002.025-.015.035-.04.032a3.438 3.438 0 0 1-.11-.039l.01.02c.026.051.063.137-.002.108a2.062 2.062 0 0 1-.164-.059c-.005.009-.014.012-.032.004a3.31 3.31 0 0 1-.496-.224c-.14-.102-.28-.201-.42-.302a3.22 3.22 0 0 1-.38-.267 8.288 8.288 0 0 1-2.089-1.936c-.944.818-2.831.037-3.999-.604-1.032-.572-1.438-1.631-1.543-2.772-.218-1.537-1.472-2.063-1.385-5.434h-.007a.65.65 0 0 1-.131-.054.654.654 0 0 1-.122-.075l-.047-.065a.398.398 0 0 1-.063-.042l-.008.012c-.028.033-.01-.017-.008-.027l-.081-.111c-.193-.264-.405-.56-.578-.797l-.005.01c-.004.007-.007.012-.005.014-.41-.59-.797-1.305-.904-1.996-.127-.532-.078-1.08.033-1.574.474-1.727 2.027-5.635 4.067-7.31Zm11.152 23.881-.026-.023.023.029a.195.195 0 0 0 .044.042.036.036 0 0 1 0-.015.933.933 0 0 1-.04-.033Zm3.606-26.662c-3.014-.26-5.979.405-8.855 1.21l-.198.057c-1.636.467-3.365.887-4.748 1.887-1.93 1.48-2.928 3.836-3.798 6.011-.76 1.616-.371 3.438.774 4.566.119-1.121.322-2.21.64-3.29.066-.168.016-.223.158-.245.216 2.91-.846 5.059 1.256 8.507.912 1.627-.144 2.817 2.431 3.673l.07.027c.537.203 1.123.363 1.648.25l-.047-.077c-.048-.08-.062-.117.007-.151-.001-.004-.004-.008-.007-.013a8.766 8.766 0 0 1-.163-.324c-.021.007-.042.012-.064.018.014.027.016.053-.024.062a1.12 1.12 0 0 1-.436.06l-.032-.003a1.471 1.471 0 0 1-.369-.07 2.213 2.213 0 0 1-.093-.016 2.172 2.172 0 0 1-.837-.41c-2.381-1.355-2.135-5.964.8-6.4.06-2.901 1.44-7.797 3.727-10.563 2.069-2.543 7.715-3.646 11.644-3.257l.172.058c.606.054 1.184.324 1.79.45-.436-.327-.93-.545-1.438-.73-1.014-.62-2.177-.957-3.3-1.193a3.245 3.245 0 0 0-.708-.094Zm-12.021 17.66c.157-.085.14-.002.176-.026 1.135-.093 2.36.902 2.994 1.731-.05.052-.186-.102-.21-.127a.028.028 0 0 1-.01.008l.017.025c.257.37-.253-.066-.3-.155a.038.038 0 0 1-.027.005c.04.04.164.143.185.217l.033.027c.308.264.283.463-.068.088.009.017.012.033.006.046l.012.008c.173.12.314.457-.046.112.038.252-.357-.235-.37-.232-.682-.536-1.686-1.058-2.542-1.128l-.03-.003c-.156-.02-.23-.067-.176-.17-.193-.046-.148-.14-.056-.138-.137-.09-.014-.175.065-.142-.054-.15.164-.05.184-.071.113-.175.144-.03.163-.074Zm-2.38-9.35c.545-.2 2.156.4 2.027 1.192-.077.182-.33.286-.507.183l-.232-.155c-.404-.271-.767-.508-1.2-.744-.237-.117-.338-.366-.088-.475Zm3.102-1.177-.21-.137c-1.137-.745-2.743-1.873.106-.706.325.14.756.222.933.532.278.57-.454.608-.829.31Zm.128-3.34c-.091-.347 1.043.06 1.374.167l.05.019c.321.12.69.23.882.508.225.384-.23.463-.513.29-.579-.379-1.213-.664-1.793-.985Zm2.885-1.614c-.638-.698 1.07-.03 1.327.156l.007.005c.191.135.152.425-.027.51-.51.01-.886-.416-1.307-.671Zm2.906-.765c-1.015-.73.323-.383.787-.097.317.28-.01.751-.787.097Z" fill="#2B283A"></path><path fill-rule="evenodd" clip-rule="evenodd" d="M79.957 33.046c1.177-.143 2.318.217 3.47.399a16.28 16.28 0 0 0 1.83.194c.124.005.248.008.371.01a.325.325 0 0 1 .205-.268c.271-.123.488-.178.785-.166.272.01.546.039.814.088.486.089.975.291 1.331.642.824.813.699 2.12.062 3.005-1.315 1.83-3.716 1.915-5.772 1.89l-.19-.002c-1.872-.026-4.551.252-5.402-1.875a2.984 2.984 0 0 1 .114-2.44c.457-.894 1.418-1.36 2.382-1.477Zm5.848 3.047h-.017c-.863.034-1.726.057-2.59.072a35.293 35.293 0 0 0 .158 1.186c.011.073.052.187.04.26l-.004.029a.262.262 0 0 1 .14.148c.67.005 1.392-.008 2.076-.13l.001-.015a.283.283 0 0 1 .097-.186c.048-.278.044-.574.063-.85.011-.172.024-.343.036-.514Zm-3.267.084c-.622.01-1.244.019-1.866.011l-.283-.004c.06.32.125.638.179.96.056.335-.24.548-.495.54l.086.013c.799.113 1.628.083 2.44.082-.044-.255-.027-.541-.033-.754l-.002-.032a30.023 30.023 0 0 1-.026-.816Zm-4.226-.059c.022.167.064.33.127.48.265.64.874.939 1.518 1.064-.111-.038-.2-.13-.223-.29a8.766 8.766 0 0 1-.077-1.195 14.96 14.96 0 0 1-1.345-.059Zm9.834-.136c-.32.075-.69.04-1.005.055l-.881.037.042.6c.019.26.02.533.07.79.592-.201 1.121-.524 1.519-1.041a2 2 0 0 0 .255-.441Zm-8.325-1.887c-.532.126-1.035.392-1.306.878-.16.289-.231.63-.218.968.45-.053.908-.072 1.363-.089.001-.082.003-.163.006-.245l.007-.21c.012-.398.018-.9.148-1.302Zm2.755.05-.235-.027c-.65-.074-1.3-.152-1.951-.107-.094.006-.19.016-.286.03.115.415.106.902.154 1.312.018.158.042.316.068.472l.112-.005c.699-.038 1.397-.06 2.096-.088 0-.132 0-.263.003-.394l.002-.13c.008-.336-.013-.713.037-1.064Zm3.267-.054c-.682.11-1.386.133-2.055.134-.268 0-.535-.016-.802-.04.017.142.026.286.04.426.026.283.056.566.089.848l.03.247c.858-.039 1.717-.081 2.575-.125l.121-.006.035-.475c.023-.316.048-.633.084-.948l-.027-.01a.442.442 0 0 1-.09-.051Zm.296.118c.037.447.058.897.086 1.345l.566-.03.283-.016c.367-.021.838-.132 1.2-.028.028-.33-.066-.65-.364-.872-.522-.388-1.187-.25-1.771-.4Zm-1.934-4.002c.843-.482 2.958-.974 3.091.54.062.698-.457 1.275-1.063 1.533l-.023.01c-.568.233-1.575.496-2.067-.01-.41-.42.133-1.176.642-.83.261.176.812.046 1.103-.038l.019-.006c.315-.092.734-.388.604-.775-.115-.342-.605-.405-.912-.416-.458-.017-.904.09-1.358.124-.072.006-.094-.098-.036-.131Zm3.491-2.435c1.144-.054 1.856 1.194 1.593 2.216-.046.176-.243.35-.434.33l-.048-.005a.432.432 0 0 1-.071-.012c-.181-.05-.344-.238-.33-.433l.003-.057c.027-.483-.026-1.039-.6-1.156-.487-.099-.76.37-.765.8-.001.077-.087.13-.155.09-.353-.215-.414-.64-.279-1.007.17-.465.597-.744 1.086-.766Zm-8.489.267c.833-.277 1.73.166 2.134.9.141.042.282.15.263.317-.029.24-.071.391-.238.573-.26.285-.748.14-.856-.211l-.005-.016c-.123-.453-.622-.751-1.076-.593-.531.185-.516.745-.888 1.072a.128.128 0 0 1-.149.019c-.395-.191-.324-.766-.183-1.095.185-.431.544-.815.998-.966Zm-1.134-2.525c.675-.687 2.434-1.352 2.895-.083.088.242-.099.568-.351.618-.413.082-.779-.097-1.189-.065a1.794 1.794 0 0 0-.944.343c-.735.568-.896 1.53-1.408 2.254-.025.036-.074.02-.078-.02-.117-1.055.336-2.294 1.075-3.047Zm8.798-.676a2.264 2.264 0 0 1 1.405-.005c.453.142.87.41 1.19.76.145.159.28.334.388.521.057.099.118.303.183.425.352.204.503.667.187.997l-.014.014-.042.042a.68.68 0 0 1-.657.173c-.519-.15-.582-.557-.761-.99a1.773 1.773 0 0 0-.568-.725c-.582-.439-1.536-.579-2.237-.372-.037.011-.081-.036-.054-.07.132-.172.209-.313.387-.452.18-.14.377-.242.593-.318Z" fill="#2B283A"></path><path fill-rule="evenodd" clip-rule="evenodd" d="M92.115 28.883c-.564 3.856-4.505 4.283-5.205.454.112-.05.193-.147.176-.337-.004-.834.253-1.716.998-2.18.77-.48 1.671-.526 2.562-.515 1.7-.04 1.665 1.395 1.47 2.578Zm-5.822-1.677c-.534-.023-1.209-.004-1.687.324-.132-.357-.473-.739-.818-.943 1.282.038 2.603-.09 3.895-.189-.31.213-.597.533-.784.903-.174-.093-.422-.084-.606-.095Zm-2.353 2.086c-1.48 5.145-5.174 2.902-5.576 2.243-.727-1.091-.864-3.744-.23-4.453.905-.641 2.187-.476 3.257-.492 1.966.027 3.362.62 2.55 2.702Zm9.923-2.367c-.403-.053-.832-.063-1.206.115a1.625 1.625 0 0 0-.885-1.089c-.049-.062-.041-.096-.21-.086-1.036-.315-2.195-.148-3.19.174-1.573.134-3.222.24-4.808.423-1.485-.673-5.966-.772-6.245.888-.35-.053-.947-.331-1.241.047-2.16-.37-4.391.144-6.56.373-.546.101-.827 1.195-.207 1.18.348-.095-.01-.681.458-.725 2.093-.23 4.14-.558 6.253-.597-.073.369 1.399.393 1.42.178l.01.004c-.364 1.369-.035 3.339.622 4.187.92 1.112 3.233 1.43 4.258.716 1.322-.66 2.698-3.974 2.311-5.074.701-.225 1.395-.157 2.123-.043-.167.475-.455 1.646-.041 1.747-.076 2.323 2.018 3.773 3.947 2.82 1.67-.792 2.255-3.299 2.05-4.82.209.406 1.955-.036 1.14-.418Z" fill="#2B283A"></path><path fill-rule="evenodd" clip-rule="evenodd" d="M182.095 52.495c-.863-4.085-3.924-7.255-8.041-8.834-.791-.447-1.558-2.366-2.622-2.717-.17-.056.099.392 0 .419-.352.095-.746.105-1.134-.24-.694-.616-.912-2.416-1.334-3.23-2.225-4.29-7.782-2.612-8.527 2.132-.519.338-1.252.636-1.817.908-.582.28-1.094.96-1.694 1.203-.535.216-1.416.063-1.955.252-2.48.868-4.58 1.965-6.226 4.186a40.278 40.278 0 0 0-1.054 1.518c-1.627 1.871-2.758 3.969-3.799 6.22-2.913 6.605-3.705 13.92-4.416 21.037.016 1.245-.811 4.698.413 5.295-.074.076-.047.228.089.227a50.303 50.303 0 0 1 9.252.785c1.473.26 2.939.617 4.44.676 3.116-.022 6.221-.543 9.333-.05 3.741 0 8.287-.108 12.449-.268 3.889-.15 7.8.188 11.641-.473.304-.048.453-.419.389-.684-.451-1.64-.672-3.329-.925-5.008.051-1.077-.04-2.201-.438-3.204a229.008 229.008 0 0 0-4.024-20.15Z" fill="#fff"></path><path fill-rule="evenodd" clip-rule="evenodd" d="M180.84 61.395a6.764 6.764 0 0 1-.35 1.174c-.148.364-.369.69-.522 1.05a.26.26 0 0 1-.095.112l.013.098.011.098c.077.66.162 1.319.237 1.979l.036.33c.146 1.378.376 2.75.556 4.124.175 1.346.353 2.692.544 4.036.197 1.386.398 2.77.633 4.15.099.583.202 1.166.31 1.748l.083.445c.855.206 1.089 1.397.218 1.837-.396.198-.904.15-1.229-.162-.339-.325-.353-.912-.432-1.353l-.075-.41c-.567-3.081-1.059-6.198-1.289-9.322a75.389 75.389 0 0 1-.141-2.423c-.031-.76-.016-1.52-.028-2.28l-.003-.208a49.243 49.243 0 0 1 .029-2.727.265.265 0 0 1-.057-.112l-.012-.05a.408.408 0 0 1 .105-.379c.043-.552.101-1.104.116-1.655.001-.046.067-.044.07 0 .037.47.11.94.184 1.41.472-.379.821-1.004 1.026-1.526.015-.038.071-.025.062.016Zm-11.167-21.952c.079.358.234.679.441.977.099.143.212.276.347.387.115.095.247.157.37.24a.57.57 0 0 1 .492.172l-.02-.193c-.006-.062.097-.075.109-.014.544 2.74 1.04 5.483 1.47 8.243l.188 1.22.177 1.144c.294 1.907.579 3.813.793 5.734.285 2.563.525 5.134.701 7.708.176 2.592.284 5.185.361 7.782l.059 1.964.133-.783a84.87 84.87 0 0 0 .374-2.353c.4-2.814.72-5.648.876-8.487.143-2.597.095-5.247-.567-7.777a15.436 15.436 0 0 0-.616-1.874c-.239-.594-.565-1.144-.822-1.73-.298-.68-.388-1.322-.234-2.055.134-.639.37-1.24.412-1.897.079-1.22-.318-2.401-.88-3.469a18.906 18.906 0 0 0-.467-.834 26.693 26.693 0 0 0-1.626-2.401c-.031-.041.035-.087.068-.053.526.52 1.102 1.03 1.575 1.597.23.276.454.557.667.846 2.333.39 4.338 1.84 5.708 3.758 1.555 2.175 2.342 4.793 2.924 7.371.647 2.866 1.193 5.757 1.775 8.637.602 2.98 1.2 5.959 1.806 8.938l.902 4.438c.153.749.313 1.496.48 2.242.086.383.178.765.257 1.149.09.433.006.71-.287 1.028-.108.118-.279.116-.414.053l-.042-.02-.04-.019c-.166-.082-.297-.166-.4-.348-.114-.199-.132-.42-.171-.642l-.216-1.225c-.108-.611-.225-1.22-.344-1.83l-.598-3.045-.481-2.435-1.723-8.705c-.551-2.786-1.039-5.59-1.667-8.36l-.036-.156-.036-.156c-.562-2.388-1.346-4.698-2.77-6.72-1.096-1.557-2.617-2.946-4.409-3.65.126.182.247.367.363.556.726 1.185 1.257 2.592 1.132 4.003-.061.69-.323 1.367-.298 2.062.023.618.405 1.16.669 1.697a16.24 16.24 0 0 1 1.314 3.839c.562 2.665.56 5.408.367 8.113-.211 2.941-.61 5.882-1.064 8.794-.234 1.494-.544 2.976-.781 4.467-.118.735-.278 1.47-.418 2.2l-.066.35a15.78 15.78 0 0 1-.121.58l-.028.114v.02a.63.63 0 0 1-.102.351 4.302 4.302 0 0 1-.331.794.446.446 0 0 1-.291.23.753.753 0 0 1-.683.462l-4.072-.016c-2.366-.009-4.731-.025-7.096-.038a85.367 85.367 0 0 1-1.79-.03 16.848 16.848 0 0 1-1.648-.151c-.624-.079-.962-.52-.869-1.143l.064-.411a.368.368 0 0 1-.372-.076l-.094-.091a1.518 1.518 0 0 1-.329-.427c-.085-.176-.155-.363-.23-.543a94.047 94.047 0 0 1-1.375-3.523 60.354 60.354 0 0 1-1.504-4.755 61.376 61.376 0 0 1-1.694-8.727l-.084-.702-.025-.207c-.134-1.141-.247-2.3-.194-3.44.033-.712.144-1.431.41-2.097.247-.614.627-1.14.988-1.689l.041-.063.042-.065c.316-.499.567-1.02.58-1.626.012-.615-.167-1.213-.367-1.788l-.05-.142-.034-.094c-.426-1.19-.911-2.362-.751-3.656.236-1.905 1.393-3.441 2.848-4.626-1.294.256-2.575.762-3.706 1.403-1.335.757-2.537 1.757-3.573 2.886-1.959 2.133-3.358 4.692-4.502 7.334-1.199 2.766-2.087 5.663-2.757 8.599-.673 2.952-1.124 5.952-1.432 8.963a128.063 128.063 0 0 0-.374 4.505c-.051.77-.09 1.541-.149 2.31-.06.769-.087 1.549-.275 2.297-.087.348-.679.383-.742 0-.141-.858-.101-1.744-.062-2.612l.003-.08c.039-.864.089-1.728.149-2.592.122-1.766.285-3.53.498-5.287.745-6.17 2.12-12.309 4.817-17.941 1.27-2.653 2.899-5.23 5.166-7.146a13.24 13.24 0 0 1 3.608-2.166 9.527 9.527 0 0 1 3.61-.694 14.178 14.178 0 0 1 1.967-1.25c.04-.022.082.03.049.063-.018.017-.034.035-.052.05.076.006.154.041.225.115.246.258.454.58.639.915.283.353.553.717.836 1.066.452.56.914 1.11 1.383 1.657.786.919 1.598 1.82 2.445 2.685l.141.144c.439.444.884.976 1.403 1.327l.028.019c.219.142.374.168.561-.045.17-.194.311-.419.456-.632l.034-.05a36.784 36.784 0 0 0 2.052-3.341c.284-.523.554-1.053.81-1.59l.076-.161c.139-.296.29-.586.405-.89l.079-.214c-.392-.256-.695-.812-.805-1.246a1.912 1.912 0 0 1 .147-1.328c.038-.078.168-.059.186.024Zm-19.325 18.35c-.054 1.717-.087 3.436-.168 5.151l-.028.586c.126.14.2.303.141.525a.282.282 0 0 1-.175.19l-.026.545c-.12 2.45-.261 4.895-.518 7.34a564.16 564.16 0 0 1-1.065 9.164c-.052.433-.353.775-.822.712-.473-.064-.666-.476-.603-.905.244-1.684.479-3.369.685-5.058l.234-1.925c.294-2.406.595-4.812.942-7.21.145-1.003.295-2.005.446-3.007l-.053-.068c-.216-.28-.439-.554-.659-.83a32.105 32.105 0 0 1-1.232-1.616c-.019-.028.02-.069.048-.048.545.402 1.06.832 1.579 1.269l.454.384c.261-1.731.52-3.463.75-5.199.006-.043.071-.046.07 0Zm7.836-16.43c-.328.308-.663.61-.993.917l-.121.113-.121.114c-.58.55-1.136 1.122-1.6 1.779-.85 1.207-1.357 2.678-1.003 4.152.293 1.22.967 2.326 1.148 3.577.09.627.046 1.257-.19 1.849-.241.604-.627 1.121-.973 1.666-.753 1.184-.855 2.483-.781 3.855.079 1.432.244 2.865.447 4.284a60.342 60.342 0 0 0 1.854 8.51c.411 1.395.896 2.76 1.379 4.132.241.683.521 1.35.811 2.013.152.349.308.696.467 1.043-.059-.49-.059-.992-.088-1.479-.041-.697-.093-1.392-.141-2.089a316.228 316.228 0 0 1-.262-4.241c-.275-5.044-.478-10.092-.463-15.144.007-2.526.059-5.052.168-7.576.051-1.188.149-2.376.239-3.562l.019-.255c.079-1.065.173-2.133.335-3.189a2.369 2.369 0 0 1-.12-.33l-.011-.042h.008a.328.328 0 0 1-.008-.097Zm2.834-4.34c.007-.03.048-.028.056 0 .184.62.119 1.304-.04 1.928a5.645 5.645 0 0 1-.355.984l-.052.111c-.126.27-.268.548-.514.716a.376.376 0 0 1-.389 0l-.052-.04a.372.372 0 0 1-.124-.395c.114-.3.372-.521.55-.79.158-.238.298-.49.414-.751.251-.566.363-1.167.506-1.764Z" fill="#2B283A"></path><path fill-rule="evenodd" clip-rule="evenodd" d="M176.502 20.95c-2.261-5.954-6.336-10.313-13.206-7.575a.614.614 0 0 0-.701-.014c-3.742 2.353-6.437 6.124-7.605 10.377-.711.135-1.401.371-2.018.758-1.341.841-2.243 2.18-3.088 3.483-.255.391-.019 1.04.459 1.129.207.039.413.062.617.068-.049.18-.115.356-.198.516-.303.58.268 1.197.803 1.038.06.032.122.057.186.077.008.329.177.769.511.835.54.116 1.258-.298 1.131-.902.163.028.325.032.484.012.018.315.012.644.056.934.142 1.37 1.508 2.29 2.812 1.873.08.427.174 1.026.593 1.258.491 1.378 1.339 2.95 2.727 3.579-.124.317-.057.702.316.914 2.54 1.45 5.59 1.941 8.463 1.402 1.148-.068 2.266-.328 3.34-.881.783-.404 1.503-.916 2.205-1.444.703-.529 1.455-1.043 2.016-1.73.61-.744.893-1.62 1.077-2.554.844-4.235.553-8.394-.98-12.428-1.897-4.994 1.896 4.269 0-.725Z" fill="#fff"></path><path fill-rule="evenodd" clip-rule="evenodd" d="M165.573 12.214c1.157-.081 2.335.114 3.437.463a12.036 12.036 0 0 1 4.696 2.819 11.914 11.914 0 0 1 2.992 4.739c.741 2.165.852 4.477 1.061 6.737.105 1.142.279 2.266.459 3.397l.029.179c.176 1.102.275 2.216.032 3.316-.405 1.828-1.619 3.38-3.06 4.527-2.961 2.356-7.569 3.792-11.016 1.624-.533-.335-.028-1.193.493-.843.366.246.754.462 1.171.61 1.739.623 3.649.4 5.367-.178 1.694-.57 3.319-1.534 4.569-2.82 1.312-1.35 2.04-3.018 1.935-4.916-.063-1.13-.32-2.238-.463-3.358-.126-.993-.202-1.99-.289-2.986l-.032-.358c-.185-2.03-.451-4.115-1.374-5.957a11.781 11.781 0 0 0-3.278-3.994c-1.43-1.115-3.138-1.895-4.931-2.185-2.108-.342-4.125.28-5.884 1.437a13.947 13.947 0 0 0-3.928 3.955c-.498.755-.923 1.561-1.29 2.388-.345.779-.584 1.595-.862 2.398.229-.007.462.002.698.028 1.211.134 2.339.762 3.057 1.753.878 1.21.64 2.696.983 4.073a.246.246 0 0 1-.11.27c-.52.337-1.215.348-1.718-.03-.437-.33-.642-.924-.465-1.443.023-.067.121-.055.124.017.033.884.852 1.564 1.655 1.144-.344-1.187-.163-2.513-.867-3.585-1.247-1.898-3.826-1.976-5.638-.907-.953.563-1.708 1.41-2.27 2.357l-.162.274c-.215.367-.443.783-.488 1.187-.026.234.06.453.328.335.216-.095.384-.317.512-.507.219-.326.723-.044.542.302l-.006.011a3.48 3.48 0 0 0-.456 1.519l-.007.149c-.005.108-.009.262.014.267.027.007.218-.213.25-.244.153-.147.31-.267.523-.306.28-.051.562.295.319.522l-.01.01a.487.487 0 0 0 .033.741c.338.249.754-.157.803-.492l.001-.012c.044-.362.546-.375.573 0 .059.812-.907 1.493-1.643 1.083a1.11 1.11 0 0 1-.533-.776.788.788 0 0 1-.299.092c-.344.03-.589-.212-.645-.537-.065-.38-.026-.786.073-1.18a.764.764 0 0 1-.581-.086c-.599-.346-.427-1.115-.201-1.634.965-2.216 2.964-4.227 5.44-4.387.014-.391.067-.76.154-1.152.847-3.83 3.591-7.377 7.163-9.034.955-.443 1.967-.741 3.02-.816Zm-9.369 15.3.034-.008c.386-.083 1.402-.181 1.279.47-.005.03-.05.026-.058 0-.12-.41-.934-.083-1.172.016a3.436 3.436 0 0 0-.919.568c-.586.51-.979 1.227-1.039 2.006-.059.773.165 1.608.722 2.168.273.274.622.46 1.014.474.351.012.74-.262 1.065-.102a.216.216 0 0 1 .109.19.476.476 0 0 1-.162.323c.544.991.988 2.04 1.682 2.942.348.453.742.871 1.188 1.228.212.17.443.318.681.45.279.153.52.249.719.509.17.221 0 .65-.28.688-.658.09-1.298-.444-1.782-.843a6.429 6.429 0 0 1-1.245-1.413 8.517 8.517 0 0 1-1.297-3.382 2.117 2.117 0 0 1-1.925-.37c-1.364-1.057-1.516-3.225-.553-4.592a3.338 3.338 0 0 1 1.939-1.322Zm.009 2.514c.316-.027.632.023.929.13l.123.045c.259.095.534.206.721.4.286.297.001.812-.405.698-.45-.126-.816-.505-1.266-.664-.402-.142-.857-.122-1.214.123-.047.032-.109-.032-.078-.079.273-.416.704-.61 1.19-.653Z" fill="#2B283A"></path><path fill-rule="evenodd" clip-rule="evenodd" d="M172.515 36.693c-.439.004-.932-.161-1.262-.29l-.086-.034c-.286-.114-.579-.245-.798-.465a.898.898 0 0 1-.183-.238c-.022-.05-.031-.101-.01-.153.08-.008.155-.018.226-.03.033-.007.066-.013.091-.013.091-.001.182.01.272.022l.04.005.21.028c.204.027.406.054.613.064.149.007.305-.002.463-.01.409-.022.832-.053 1.147.233a.35.35 0 0 1 .117.266.535.535 0 0 1-.125.33c-.17.21-.431.283-.715.285Zm2.394-3.685c-.191.286-.509.47-.945.45-.867-.04-1.901-.366-2.627-.838a.73.73 0 0 1-.333-.53l-.039-.375-.212.313-.066.097a11.796 11.796 0 0 0-.789 1.348c-.13.264-.226.558-.321.856-.162.502-.318.996-.663 1.349a.245.245 0 0 1-.206.063c-.065-.009-.128-.04-.159-.104-.412-.837.142-1.846.592-2.547l.048-.074c.417-.634 1.098-1.473 1.878-1.587l.09.143.13-.087c.212-.141.492-.135.738-.024l.245.11c.457.205.908.394 1.402.498a4.57 4.57 0 0 0 .211.038l-.023-.1-.026-.106-.03-.11a4.58 4.58 0 0 0-.137-.426c-.2-.525-.518-1.017-.828-1.485l-.037-.055c-.044-.067-.093-.138-.143-.21-.242-.348-.511-.725-.53-1.104.321.02.59.22.827.393.324.237.625.51.898.805.529.573 1.004 1.306 1.212 2.063.119.434.067.9-.157 1.236Zm-8.466-4.321v-.016c.001-.437.256-1.436.886-1.436.394 0 .633.68.675 1.38l.001.03c.018.435-.101 1.387-.676 1.387-.58 0-.88-.902-.886-1.345Zm9.283-.137v-.016c-.001-.437-.256-1.436-.887-1.436-.384 0-.621.646-.671 1.328l-.003.052c-.025.421.087 1.417.674 1.417.581 0 .881-.902.887-1.345Zm-7.16-2.823a11.659 11.659 0 0 0-.973.175c-.455.102-.906.232-1.348.378-.415.137-.822.292-1.23.447l-.065.024c-.144.055-.288.116-.431.178-.219.093-.439.187-.664.258.592-.816 1.503-1.422 2.38-1.855.5-.247 1.031-.446 1.565-.609l.297-.09c.438-.128.917-.247 1.328.01.163.101.266.26.299.43a.617.617 0 0 1-.12.498.593.593 0 0 1-.361.23.681.681 0 0 1-.447-.078.86.86 0 0 0-.182-.002l-.048.006Zm6.587.083a3.6 3.6 0 0 0-.884-.08 3.083 3.083 0 0 0-.399.046c-.203.033-.406.067-.626.027a.502.502 0 0 1-.287-.175.721.721 0 0 1-.165-.357c-.02-.128 0-.24.047-.339a.854.854 0 0 1 .265-.302c.345-.261.938-.198 1.346-.145a3.26 3.26 0 0 1 1.16.375c.352.196.657.46.895.781.201.272.296.584.394.903-.46-.386-1.164-.608-1.746-.734Z" fill="#2B283A"></path><path fill-rule="evenodd" clip-rule="evenodd" d="M177.695 30.978c-.399.54-1.138.713-1.82.654-1.47-.143-1.933-1.83-1.981-3.14.986.28-.083-1.704 3.287-1.922 1.188-.1.861.624 1.385 1.154-.01 1.111-.194 2.319-.871 3.254Zm-7.003-1.277c-.868 4.106-5.621 3.13-6.121-.572.462-.328.34-1.14.913-1.434.908-.586 2.042-.56 3.073-.547 1.318.091 1.694.643 2.37 1.244a8.359 8.359 0 0 1-.235 1.31Zm8.886-3.811a8.304 8.304 0 0 0-.147-.023.431.431 0 0 0-.134-.05 2.301 2.301 0 0 0-.355-.061c-1.689-.384-5.597.161-5.759 1.617-.538.181-1.003.02-1.627.035-.474-2.003-8.68-1.72-9.074-.513h-.005c-.379-.12-.938-.09-1.372-.11-.927-.02-1.854.064-2.761.262-1.698.272-4.015.591-2.834 2.732v.002h.001c.203.21.548.04.561-.245-.397-1.014.5-1.136 1.19-1.428 1.717-.622 3.464-.709 5.24-.516.133.159.336.297.55.37 1.187.199.562 1.088 1.312 1.218-.138 3.1 3.589 4.792 5.748 2.754.862-.851 1.068-2.113 1.268-3.25a.298.298 0 0 0 .212-.159c.254-.256.414-.493.916-.563.503-.07.89.07.942.114.014.027.028.054.044.08a.3.3 0 0 0 .09.098c-.496 3.087 1.877 5.04 4.272 3.438 1.041-.989 1.261-2.503 1.304-3.854a.41.41 0 0 0 .182-.462c-.067-.29.091-.54.342-.665.327-.163.269-.758-.106-.821Z" fill="#2B283A"></path><path fill-rule="evenodd" clip-rule="evenodd" d="M130.997 51.907c-.54-.192-1.061-.414-1.535-.741-1.367-1.016-2.258-2.546-3.1-3.995-1.186-2.108-2.032-4.354-2.616-6.697-.251-1.006-.336-2.173-.906-3.066-1.293-1.869-5.084-1.627-7.098-1.299-1.348.239-1.626 1.746-1.932 2.86-.255.928-.422 1.864-.562 2.814-.334.219-.71.397-1.069.552-3.908 1.197-4.595 3.416-6.088 6.845-2.522 4.983-9.364 6.935-10.397 12.832-.666 3.894 1.227 7.557 3.18 10.794 1.818 3.536 4.356 5.233 8.399 4.397 3.791-.85 7.435-2.27 11.16-3.369 1.804-.443 3.605-1.595 5.503-1.194 3.91.878 7.928 1.29 11.935 1.176 5.626.227 5.625-5.167 5.048-9.344-.405-6.501-3.687-10.675-9.922-12.565Z" fill="#fff"></path><path fill-rule="evenodd" clip-rule="evenodd" d="M131.373 61.314c.47.31.866.782 1.183 1.277a123 123 0 0 1-3.968-.477c.173-.11.347-.218.526-.32.65-.367 1.532-.96 2.259-.48Zm-22.018 3.913c-.242-.095-.336-.465-.431-.677-.297-.664-.568-1.34-.849-2.012 1.069-.304 2.11-.642 3.218-.805a20.316 20.316 0 0 1 3.603-.177c2.436.08 4.849.477 7.244.903 2.392.426 4.784.835 7.193 1.156 2.36.315 4.728.545 7.099.747.461.04 1.23.205 1.6-.157.294-.287.303-.816-.064-1.05-.229-.145-.56-.147-.821-.18-.329-.043-.66-.07-.991-.093l-.405-.025c1.083-.408 2.215-.63 3.389-.568.066.403.365.817.529 1.15a8.23 8.23 0 0 1 .655 1.798c.306 1.318.319 2.687.233 4.032-.08 1.12-.25 2.361-1.13 3.155-.667.602-1.608.824-2.48.894-1.014.082-2.044-.005-3.05-.141a40.838 40.838 0 0 1-4.21-.78 27.703 27.703 0 0 1-7.614-3.105c-1.155-.688-2.257-1.462-3.428-2.124a14.877 14.877 0 0 0-3.796-1.523 15.61 15.61 0 0 0-4.584-.429c-.266.016-.651.112-.91.011Zm-1.728-.675c.156.508.276 1.088.611 1.515.331.424.831.573 1.349.61.625.046 1.257.017 1.883.04 1.283.048 2.55.256 3.777.638 1.143.356 2.205.911 3.228 1.528.945.57 1.863 1.181 2.809 1.75-.252.115-.5.24-.751.348a90.43 90.43 0 0 1-4.742 1.879 75.042 75.042 0 0 1-6.517 2.021c-1.05.274-2.115.594-3.205.64a4.082 4.082 0 0 1-2.644-.807c-1.618-1.192-2.905-2.912-3.946-4.608a21.771 21.771 0 0 1-1.604-3.162 24.34 24.34 0 0 1-.96-2.848c1.655-.504 3.329-.96 5.042-1.212a17.684 17.684 0 0 1 2.767-.193c.459.005.918.03 1.375.077.246.025.49.058.734.099.101.016.204.04.308.06.159.542.319 1.085.486 1.625Zm34.202-2.159c.089-.18.127-.357.159-.553.024-.15.089-.36.032-.555-.063-.217-.236-.412-.36-.598l-.411-.615-.818-1.233c-1.112-1.68-2.217-3.364-3.323-5.048-.982-1.494-1.948-3.001-2.959-4.475-.865-1.26-1.808-2.5-2.993-3.48-1.497-1.24-3.28-1.823-5.142-2.279a.95.95 0 0 0-.766-.302c-.41-.465-.736-.79-.884-1.38-.07-.284-.048-1.08-.324-1.247-.328-.199-.499.065-.59.361-.302.994.045 2.329.844 3.324-.337 1.162-.783 2.814-1.579 3.745-.853.997-2.032 1.307-3.304 1.328-2.427.039-4.85-.862-6.701-2.423a12.868 12.868 0 0 1-1.557-1.568c-.355-.423-.774-1.075-1.051-1.569 0-.192-.228-.393 2.085-.548 2.313-.155 2.488-3.319 2.54-3.75.041-.349.219-.891-.027-1.176-.105-.121-.32-.141-.453-.059-.25.156-.332.552-.411.822-.11.377-.47 2.72-1.153 2.992-.319.127-.686.13-1.024.153-.417.03-.835.05-1.251.099-.153.018-.321.067-.472.069-.098 0-.2-.047-.295-.08-.321-.114-.642-.029-.973.016-2.925.392-5.936 1.288-8.431 2.9-2.199 1.422-3.748 3.466-4.77 5.855-1.043 2.44-1.64 5.076-2.142 7.673-.168.87-.314 1.743-.44 2.62-.122.848-.274 1.714-.31 2.57-.015.338.066.653.19.962.141.348.473.486.791.648.699.357 1.436.634 2.196.83.464.843.854 1.72 1.168 2.628-.117.23-.12.575-.142.799-.055.557-.079 1.118-.084 1.678-.01 1.123.058 2.244.11 3.365.055 1.137.233 5.623.262 6.17.023.427-.008 1.022.217 1.4.345.58 1.196.56 1.59.09 9.795 2.103 28.207 1.47 35.622.411.965-.137.662.015.908-.228.184-.183.34-.496.391-.748.068-.336-.041-.64-.234-.911-.202-.286-.239-.749-.314-1.089-.178-.803-.266-4.33-.35-4.721-.025-.122-.05-.25-.081-.38 1.361.13 2.778.13 4.072-.325.734-.258 1.418-.663 1.945-1.24.638-.7.993-1.582 1.175-2.501.236-1.186.286-2.414.239-3.62-.064-1.425-.301-2.87-.888-4.177a2.18 2.18 0 0 0 .471-.63Z" fill="#2B283A"></path><path fill-rule="evenodd" clip-rule="evenodd" d="M130 19.766c-2.119-3.004-7.443-3.343-10.808-3.324-6.646-.055-8.038 7.592-8.385 12.95-.709.12-1.398.368-1.866.926-.569.679-.766 1.844-.232 2.604.355.504.915.673 1.5.7 1.94-.185 2.338 1.546 3.294 2.845 2.452 3.315 6.699 4.39 10.595 4.407 1.323.036 2.917.135 3.765-1.111 2.676-4.645 2.734-10.804 2.899-16.067.023-1.347.017-2.774-.762-3.93Z" fill="#fff"></path><path fill-rule="evenodd" clip-rule="evenodd" d="M134.573 22.372c.027.05.047.107.058.168.035.195-.037.344-.131.488.013.101.02.199.025.285.03.482-.081 1.143-.505 1.34l-.021.023a.36.36 0 0 1-.148.134.523.523 0 0 1-.05.031c-.007.007-.016.012-.023.018a.672.672 0 0 1 .026-.028 1.395 1.395 0 0 1-.704.084c-.15.054-.3.095-.427.126-.395.098-.905.176-1.29.01a.799.799 0 0 1-.275-.19c.006.299.014.597.027.895.027.755.025 1.509.02 2.264-.007.85-.031 1.7-.076 2.55-.022.426-.056.852-.101 1.276-.039.414-.084.827-.136 1.239-.123.846-.325 1.7-.572 2.517-.107.356-.225.715-.358 1.066a11.34 11.34 0 0 1-.181.48c-.343.829-.77 1.629-1.346 2.32a6.02 6.02 0 0 1-1.051 1 4.734 4.734 0 0 1-1.019.612c-.797.349-1.687.427-2.548.414-.329-.004-.678-.063-1.003-.117l-.02-.003a8.832 8.832 0 0 1-.768-.164 8.325 8.325 0 0 1-.67-.185 3.472 3.472 0 0 1-.762-.301l-.429-.162a4.114 4.114 0 0 1-.523-.24l-.466-.218a6.374 6.374 0 0 1-.566-.308.112.112 0 0 1-.049-.047 8.844 8.844 0 0 0-.143-.079c-.008-.003-.002-.026.008-.048-.008-.017-.007-.036.016-.054.017-.013.045-.01.074 0a.039.039 0 0 1-.007-.006l-.095-.052a.052.052 0 0 1-.007-.086.052.052 0 0 1 .028-.01h-.002c-.006-.005-.001-.023.007-.043-.016-.02-.021-.045.007-.067.039-.03.126.02.166.042a.133.133 0 0 0 .009.005l.076.041.046.025a.044.044 0 0 1 .016-.016 21.886 21.886 0 0 1-.177-.096h-.001c-.037-.02-.084-.06-.036-.098.039-.03.138.022.186.05a.041.041 0 0 1 .02-.008l-.026-.014-.037-.021c-.058-.032-.019-.133.041-.1l.021.014c.041-.004.098.028.127.044l.004.003c.201.126.411.237.628.332.146.07.294.138.441.205.146.072.295.135.449.187.386.151.776.291 1.17.421a9.409 9.409 0 0 0 1.697.32c.074.006.149.011.223.014l.244-.002.245-.001.867-.089.083-.008c.11-.016.218-.035.325-.058.056-.013.112-.027.167-.043l.039-.007.019-.003a4.12 4.12 0 0 0 .402-.13 4.372 4.372 0 0 0 1.039-.594l.474-.47.473-.472.288-.394a8.714 8.714 0 0 0 .913-1.734l.389-1.123c.041-.135.079-.27.116-.406l.222-.91.071-.333c.142-.689.22-1.388.288-2.087.123-1.273.157-2.549.166-3.826a87.393 87.393 0 0 0-.016-2.29c-.009-.443-.016-.886-.022-1.328-.009-.47-.018-.94-.03-1.41 0-.01.003-.019.009-.027-.002-.055-.002-.11-.003-.166-.001-.037.013-.053.034-.056-.004-.335-.006-.67-.007-1.004 0-.022.01-.036.024-.045v-.085a3.835 3.835 0 0 0-.342-.908 1.266 1.266 0 0 0-.198-.307 1.375 1.375 0 0 0-.247-.305 3.015 3.015 0 0 0-.059-.042l-.059-.043a.77.77 0 0 1-.123-.082l-.115-.07a35.332 35.332 0 0 0-.114-.072c-.045-.023-.016-.08.016-.096v-.002a.09.09 0 0 1-.023-.014 3.896 3.896 0 0 0-.289-.247.056.056 0 0 1-.056-.01 3.966 3.966 0 0 0-.181-.16 3.877 3.877 0 0 0-.434-.246 6.457 6.457 0 0 0-.744-.297l-.149-.046-.016-.004-.09-.005a70.256 70.256 0 0 0-11.026.36c-.134.015-.274.027-.417.039-.525.044-1.087.09-1.54.317a1.083 1.083 0 0 0-.071.039c.039.25.133.496.224.735l.042.108c.158.42.3.85.286 1.305-.01.317-.078.623-.177.92-.05.426-.182.837-.323 1.24-.692 1.987-1.068 4.02-1.03 6.128a.302.302 0 0 1-.034.148l.001.008c.012.09.025.18.039.268.058.356-.41.532-.572.297a.069.069 0 0 1-.039.02c-.042.003-.109-.064-.128-.095a1.936 1.936 0 0 0-.08-.135.125.125 0 0 0-.01-.004l.025.053.027.054c.028.057-.081.084-.113.032a6.313 6.313 0 0 0-.086-.13c-.017.011-.036.015-.048-.005a2.113 2.113 0 0 0-.354-.443 1.645 1.645 0 0 0-.688-.33 2.389 2.389 0 0 0-.609-.008 2.056 2.056 0 0 0-.678.19l-.508.348h-.001c-.041.044-.081.09-.119.138a2.397 2.397 0 0 0-.289.488l-.01.032a2.004 2.004 0 0 0-.092.448l-.002.29-.003.29c.026.252.09.496.188.728.046.137.119.26.217.368.053.091.113.174.18.251.135.09.283.167.441.227.038.01.077.02.116.028.202.078.412.12.628.126a2.55 2.55 0 0 0 .804-.072c.162-.028.319-.075.471-.14a2.34 2.34 0 0 0 .41-.265c.014-.009.035-.004.058.008l.015-.01a1.84 1.84 0 0 0 .069-.053c.013-.009.025.002.03.014l.008-.006c.051-.035.19.074.127.138a.747.747 0 0 1 .079.057c.112.005.337.21.295.243a2.407 2.407 0 0 1-.197.152c.06.045.138.113.102.141a1.273 1.273 0 0 1-.213.163c-.052.04-.104.076-.159.11-.06.036-.121.066-.184.094.11.213.214.428.312.647.065.155.14.305.227.449.11.22.243.425.398.617.126.212.273.407.442.585.209.238.433.462.672.67.095.067.192.132.293.193.258.194.532.36.823.5.034.018.061.06.021.092h-.002l-.002.002.288.16.003.001c.039.021.111.06.054.106-.037.031-.152-.024-.221-.06l.031.016.003.002c.029.016.136.073.065.111a.166.166 0 0 1-.109-.019 2.084 2.084 0 0 1-.107-.043c.001.011-.005.022-.024.031a.169.169 0 0 1-.043.001c.078.045.157.089.236.132.023.012.132.072.06.11a.147.147 0 0 1-.102-.017 1.726 1.726 0 0 1-.176-.078l-.02-.011-.02-.011a.163.163 0 0 1-.031-.004l.191.1c.037.02.101.062.046.104-.037.03-.14-.023-.2-.057l-.008.009-.007.006c-.039.03-.133-.024-.18-.052l-.017-.01a9.922 9.922 0 0 1-.923-.55 7.636 7.636 0 0 1-.531-.372 6.592 6.592 0 0 1-.907-.868 5.975 5.975 0 0 1-.473-.596c-.293-.42-.514-.857-.727-1.32-.003-.008.003-.026.013-.044a11.277 11.277 0 0 1-.128-.328 4.485 4.485 0 0 1-.332.031 2.77 2.77 0 0 1-.754-.062 2.617 2.617 0 0 1-.845-.252 4.42 4.42 0 0 1-.445-.254 2.603 2.603 0 0 1-.366-.235c-.498-.38-.768-.972-.834-1.585a2.766 2.766 0 0 1-.032-.817c.022-.195.066-.388.129-.573a2.32 2.32 0 0 1 .654-1.083c.054-.055.11-.107.169-.156.177-.144.378-.26.591-.346.041-.02.083-.038.125-.056l-.051-.117c-.018.005-.08-.005-.088-.027l-.037-.104-.023-.065a.086.086 0 0 1-.042.012v.064c0 .02-.035.135-.054.075a3.523 3.523 0 0 1-.035-.103l-.023-.065c-.016-.01-.028-.023-.032-.037l-.007-.017-.003-.001h-.001v.02c0 .011-.032.104-.037.086a7.454 7.454 0 0 1-.273-.936 5.051 5.051 0 0 1-.115-.532 11.239 11.239 0 0 1-.083-.487l-.006-.04-.002-.01v-.004l-.006-.048a11.687 11.687 0 0 1-.107-1.71.17.17 0 0 0-.015.007l-.009.005c-.167.07-.343.129-.523.175a1.793 1.793 0 0 1-1.392.781c-.2.01-.41-.014-.604-.07a.648.648 0 0 1-.33-.02c-.048-.012-.096-.025-.149-.032l-.057-.008c-.212-.027-.393-.05-.534-.177a.434.434 0 0 1-.136-.019.82.82 0 0 1-.981-.568 1.516 1.516 0 0 1-.569-.602 3.507 3.507 0 0 1-.578-1.134l-.002-.005-.004-.007a1.087 1.087 0 0 1-.096-.433c-.067-.42-.049-.842.079-1.213-.006-.2.041-.41.128-.6.104-.23.264-.495.471-.649.001-.236.102-.496.235-.672a1.42 1.42 0 0 1 1.065-.565c.212-.543.853-.67 1.406-.489.229-.235.566-.347.902-.307.283.034.526.17.727.357l.158.047a.885.885 0 0 1 .569-.046c.325.084.538.33.685.614.046.032.092.066.137.1a.569.569 0 0 1 .134.086.304.304 0 0 1 .139.158c.083.085.16.176.228.273.051-.118.104-.236.158-.352.089.026.196-.008.241-.127l.011-.03c.285-.757.792-2.105 1.271-2.73a3.306 3.306 0 0 1-2.032.564c-.369.064-.744.07-1.088 0a5.68 5.68 0 0 1-.835-.384c-.017-.013-.032-.029-.048-.044l-.018-.017a.429.429 0 0 1-.143-.014.85.85 0 0 1-.475-.338.645.645 0 0 1-.051-.093 1.423 1.423 0 0 1-.448-.99c-.038-.2-.035-.405.034-.596l.016-.038.009-.023.005-.016.006-.023a.95.95 0 0 1 .078-.186.708.708 0 0 1 .057-.174l.011-.082a1.055 1.055 0 0 1 .174-1.203.777.777 0 0 1 .124-.598.958.958 0 0 1 .359-.308c.015-.008.054-.02.101-.036a1.37 1.37 0 0 1 .169-.13c.015-.376.391-.594.716-.782l.047-.027a1.06 1.06 0 0 0 .26-.239c.081-.093.161-.186.276-.248.2-.108.447-.133.678-.156.051-.005.102-.01.151-.017.638-.077 1.317-.136 1.958-.066.356.038.651.21.773.492.306.036.579.258.795.485.269.284.499.586.578.96.052.028.1.063.143.102a2.78 2.78 0 0 1-.108.773.638.638 0 0 1-.098.417c.011.121.003.24-.022.36.146.26.009.653-.196.911l-.002.146a.19.19 0 0 0 .035-.024c.591-.502 1.192-.641 1.841-.79.374-.087.765-.177 1.179-.344a20.776 20.776 0 0 1 3.107-.364.555.555 0 0 0-.041-.006 3.516 3.516 0 0 1-1.468-.614.755.755 0 0 1-.322-.169.695.695 0 0 1-.198-.286 1.094 1.094 0 0 1-.051-.056c-.327-.08-.576-.363-.534-.735a.975.975 0 0 1-.213-.863.73.73 0 0 1-.039-.648.694.694 0 0 1-.054-.784.538.538 0 0 1 .002-.649.539.539 0 0 1 .295-.2.612.612 0 0 1 .201-.315.665.665 0 0 1 .165-.101.502.502 0 0 1 .224-.332.559.559 0 0 1 .185-.083.705.705 0 0 1 .304-.354.718.718 0 0 1 .557-.06c.24-.363.766-.504 1.13-.235a.816.816 0 0 1 .958.08.808.808 0 0 1 .998.156.877.877 0 0 1 1.183.37.87.87 0 0 1 .924.625l.054.045.005.004c.25.012.488.11.629.343.07.117.102.254.097.388a.643.643 0 0 1 .289.847.742.742 0 0 1 .116.847c.062.105.093.23.088.358a.739.739 0 0 1-.216.476.643.643 0 0 1-.154.816c-.141.502-.498.835-1.046 1.04a5.564 5.564 0 0 1-.857.24c1.174.158 2.33.436 3.439.85a.16.16 0 0 0 .151-.012l.032.017a12.105 12.105 0 0 1 .938.566l.002-.097a2.63 2.63 0 0 1 .093-.777 1.227 1.227 0 0 1-.199-.415c-.093-.368.085-.891.404-1.017.112-.31.366-.535.678-.623a.638.638 0 0 1 .291-.158.708.708 0 0 1 .288-.432.76.76 0 0 1 .707-.086c.043-.015.087-.027.131-.038.368-.313.94-.29 1.263.076a.753.753 0 0 1 .71.03c.181.11.294.286.338.48.344.01.659.238.758.579a.731.731 0 0 1 .631.596.67.67 0 0 1 .502.313.623.623 0 0 1 .088.278.666.666 0 0 1 .363.776l.013.026a1.762 1.762 0 0 1 .102.259.863.863 0 0 1 .146.53c.022.08.044.16.062.24.072.316.099.653.05.974-.025.156-.06.31-.11.458a.487.487 0 0 1-.023.08 2.48 2.48 0 0 1-.108.344 7 7 0 0 1-.34.418 2.63 2.63 0 0 1-.648.672 2.356 2.356 0 0 1-.714.396 3.024 3.024 0 0 0-.138-.025c-.293.161-.752.18-1.034.178a1.557 1.557 0 0 1-.829-.227l.082.163a.171.171 0 0 1-.006.003l-.014.01a.807.807 0 0 0-.175-.214c-.092-.074-.24-.08-.303.039l-.003.006a.182.182 0 0 0-.004.175l.029.04c.003.005.006.009.01.012h-.002c.088.071.174.244.256.413.055.098.108.198.158.3.028.042.08.08.134.09a.22.22 0 0 0 .088.207.601.601 0 0 1 .061-.1c.276-.376.818-.538 1.227-.366.081-.014.163-.025.246-.032.27-.018.543.004.81.06a1.747 1.747 0 0 1 .409.338c.042.031.083.064.123.1.164.087.284.256.384.424.08.113.15.233.211.36.28.48.603 1.076.35 1.548Zm-22.469 9.274c.102.119.183.251.241.397.023.047-.006.075-.053.067a.225.225 0 0 1-.08-.04l.007.017.007.015c.025.05.004.085-.053.067l-.009-.006c.03.053.057.107.08.163.025.05.002.085-.054.066a.639.639 0 0 1-.085-.058l.01.022.026.06c.026.05-.004.077-.054.065a.668.668 0 0 1-.12-.085l-.009-.007-.007-.007c.016.042-.015.068-.057.06-.059-.012-.17-.112-.197-.165l-.005-.01a.53.53 0 0 1-.092-.079c-.02.03-.06.052-.078.016a.957.957 0 0 0-.253-.38.99.99 0 0 0-.239-.245 2.629 2.629 0 0 0-.155-.121 1.43 1.43 0 0 0-.296-.098l-.035-.01-.027-.006-.007-.002a2.465 2.465 0 0 0-.688-.035c-.033.001-.065-.024-.079-.054a2.757 2.757 0 0 0-.125.008c-.069.003-.054-.095-.002-.104.066-.012.131-.021.195-.03a.05.05 0 0 1 0-.017 2.313 2.313 0 0 0-.353.01c-.051.002.01-.093.038-.098a.463.463 0 0 1 .02-.004l.019-.003-.002-.005h-.004c-.07.003-.119-.11-.034-.125l.03-.005.033-.005c-.004-.011-.005-.02-.001-.03h-.109c.009 0 .018-.021.027-.043.009-.022.019-.046.031-.048l.057-.008c.001-.023.037-.079.052-.082a2.83 2.83 0 0 1 .36-.04c.012-.026.029-.062.045-.062.134-.002.263-.001.392.012.005-.003.01-.005.014-.005l.061.015c.072.01.143.025.216.047.171.05.343.13.491.23a2.93 2.93 0 0 1 .524.427 4.58 4.58 0 0 1 .386.358Z" fill="#2B283A"></path><path fill-rule="evenodd" clip-rule="evenodd" d="M125.777 36.728a2.8 2.8 0 0 1-1.565.008 2.812 2.812 0 0 1-1.293-.837c-.305-.355-.504-.786-.496-1.246a.204.204 0 0 1 .049-.13.229.229 0 0 1 .263-.061.188.188 0 0 1 .093.092c.053.07.106.137.159.204.425.525.837.917 1.477 1.057.347.077.694.043 1.012-.074.34-.124.648-.343.889-.624a.476.476 0 0 1 .364-.18.557.557 0 0 1 .389.172.597.597 0 0 1 .181.393.523.523 0 0 1-.149.386c-.372.398-.853.69-1.373.84Zm-.016-6.57c.518.314 1.309 1.049.751 1.83-.657.687-1.603-.102-2.069-.459-.432-.276-.917.435-.516.758 3.367 2.49 4.733-2.047 2.096-2.5-.29-.05-.398.273-.262.37Zm-4.852-1.386a.58.58 0 0 0-.58-.044c-.17.077-.468.334-.675.672-.142.232-.242.503-.221.785a.181.181 0 0 1-.058.15.225.225 0 0 1-.125.056.325.325 0 0 1-.132-.012.196.196 0 0 1-.131-.112c-.145-.385-.082-.815.08-1.203.22-.523.618-.96.88-1.102a1.472 1.472 0 0 1 1.422-.006c.381.21.619.548.856.893.05.073.1.146.152.217a.44.44 0 0 1 .074.408.528.528 0 0 1-.3.308.54.54 0 0 1-.417.007.53.53 0 0 1-.284-.3c-.111-.266-.296-.56-.541-.717Zm8.466.593a.393.393 0 0 1-.33.04.467.467 0 0 1-.193-.116.383.383 0 0 1-.108-.194.798.798 0 0 0-.279-.465.563.563 0 0 0-.447-.117.856.856 0 0 0-.48.287c-.04.047-.072.1-.104.152a1.06 1.06 0 0 1-.199.261.194.194 0 0 1-.124.047.19.19 0 0 1-.055-.009c-.183-.183-.218-.323-.212-.46a.836.836 0 0 1 .156-.43c.217-.32.628-.584.906-.643.381-.082.759.016 1.062.228.311.219.542.558.614.94a.495.495 0 0 1-.025.277.386.386 0 0 1-.182.202Zm-7.627-4.016c-.228.222-.498.256-.772.287a3.62 3.62 0 0 0-.392.058 3.684 3.684 0 0 0-.948.346c-.31.167-.647.37-.889.629-.058.061-.112.126-.167.19a4.76 4.76 0 0 1-.147.172c-.058.063-.113.129-.168.195-.034.055-.04.069-.047.083a1.475 1.475 0 0 1-.099.18c-.038.063-.059.081-.076.089a.158.158 0 0 1-.084.016.14.14 0 0 1-.073-.035c-.117-.1-.152-.262-.148-.434.005-.261.102-.551.191-.729.207-.414.494-.844.839-1.152.394-.353.825-.62 1.32-.803.308-.114.664-.22.999-.206.242.01.472.081.662.26.117.11.173.266.173.422a.6.6 0 0 1-.174.432Zm8.092 2.034a.13.13 0 0 1-.057.05.134.134 0 0 1-.142-.024.12.12 0 0 1-.038-.065c-.152-.665-.447-1.16-1.075-1.48-.309-.156-.664-.256-1.001-.335a3.586 3.586 0 0 0-.305-.054c-.326-.047-.655-.102-.867-.365a.703.703 0 0 1-.152-.547.583.583 0 0 1 .317-.43c.462-.24 1.037-.005 1.504.195l.102.043c.456.193.873.447 1.215.81.272.288.524.714.625 1.153.084.365.064.737-.126 1.05Z" fill="#2B283A"></path><path fill-rule="evenodd" clip-rule="evenodd" d="M131.299 30.978c-.399.54-1.138.713-1.82.654-1.47-.143-1.933-1.83-1.981-3.14.986.28-.083-1.704 3.287-1.922 1.188-.1.86.624 1.385 1.154-.01 1.111-.194 2.319-.871 3.254Zm-7.003-1.277c-.868 4.106-5.621 3.13-6.121-.572.461-.328.34-1.14.913-1.434.908-.586 2.042-.56 3.073-.547 1.318.091 1.694.643 2.37 1.244a8.359 8.359 0 0 1-.235 1.31Zm8.886-3.811a8.304 8.304 0 0 0-.147-.023.431.431 0 0 0-.134-.05 2.301 2.301 0 0 0-.355-.061c-1.689-.384-5.597.161-5.759 1.617-.538.181-1.003.02-1.627.035-.474-2.003-8.68-1.72-9.074-.513h-.005c-.379-.12-.938-.09-1.372-.11-.927-.02-1.854.064-2.761.262-1.698.272-4.015.591-2.834 2.732v.002h.001c.203.21.548.04.561-.245-.397-1.014.5-1.136 1.19-1.428 1.716-.622 3.464-.709 5.24-.516.133.159.336.297.55.37 1.187.199.562 1.088 1.312 1.218-.138 3.1 3.589 4.792 5.748 2.754.862-.851 1.068-2.113 1.268-3.25a.3.3 0 0 0 .212-.159c.254-.256.414-.493.916-.563.503-.07.89.07.942.114.014.027.028.054.044.08a.3.3 0 0 0 .09.098c-.496 3.087 1.877 5.04 4.272 3.438 1.041-.989 1.261-2.503 1.304-3.854a.41.41 0 0 0 .182-.462c-.067-.29.091-.54.342-.665.327-.163.269-.758-.106-.821Z" fill="#2B283A"></path><path fill-rule="evenodd" clip-rule="evenodd" d="M215.119 36.17c-.836-.232-1.796-.205-2.654-.146-.87.06-1.804.163-2.621.488-.711.282-1.31.757-1.675 1.437-.3.56-.44 1.173-.529 1.796-.036.255-.066.51-.095.766l-.059.532a8.544 8.544 0 0 1-.083.583c-.112.628-.269 1.153-.617 1.61-.844 1.106-2.223 1.476-3.476 1.948-.802.302-1.438.845-1.614 1.719-.17.842-6.634 7.909-7.269 8.504l-.018.016c-.492.443-.434 1.276-.503 1.883a183.363 183.363 0 0 0-.573 5.935 179.537 179.537 0 0 0-.562 15.612l.003.294c.006.661.001 1.325.031 1.986.028.634.221 1.27.809 1.601.546.307 1.236.28 1.845.31l.037.003c.654.036 1.308.065 1.963.09 2.66.097 5.323.108 7.985.096 5.281-.024 10.568-.14 15.844.155 1.345.075 5.632-.382 6.973-.252 1.281.125.182.752.973.711 2.604-.136 5.073-.716 7.568-1.415a.757.757 0 0 0 .546-.716 339.68 339.68 0 0 0-1.19-24.477l-.051-.593c-.066-.764-.104-1.543-.255-2.297-.149-.746-.486-1.393-.976-1.97-.44-.52-5.416-4.578-6.615-5.347-1.147-.735-2.352-1.356-3.53-2.037-.49-.284-.96-.182-1.379-.53-.221-.184-3.423-1.42-4.287-1.828l-.025-.012c-.661-.317-1.27-.66-1.727-1.209-.153-.183-.453-1.34-.454-1.71-.001-.661.049-1.357-.15-1.997a2.268 2.268 0 0 0-1.59-1.54Zm-1.417 17.03 5.117 9.954h-3.327l2.385 5.53h-5.238l1.858 7.748-10.625-13.278h3.987l-3.987-5.227h2.766l-2.766-4.427 9.83-.3Z" fill="#fff"></path><path fill-rule="evenodd" clip-rule="evenodd" d="m196.514 58.798.036.036a.434.434 0 0 1-.036-.06v.024Zm9.944-2.9c.46.587.946 1.78 1.392 2.377.064.085.127.171.189.258.186.258-.062.655-.366.638a81.791 81.791 0 0 1-1.825-.124c1.249 1.391 2.286 3.119 3.433 4.592l.231.297c.29.379-.001.55-.397.448l-.247-.062-1.73-.443c-.319-.082-.64-.183-.963-.246-.133-.026-.261-.005-.387.002.061.092.145.258.162.283.189.294.378.586.569.876.372.566.746 1.13 1.133 1.685 1.511 2.163 3.141 4.227 4.756 6.311a82.78 82.78 0 0 0 1.238 1.557l-.005-.01-1.132-2.202c-.718-1.395-1.428-2.793-2.153-4.185l-.113-.217c-.151-.288.096-.588.405-.527 1.508.297 3.001.661 4.475 1.093a.27.27 0 0 0 .251.074l.178.053-.054-.111c.06-.052.09-.133.051-.234-.849-2.187-2.012-4.299-3.39-6.232l.166.004c1.513.04 2.997.257 4.455.67.007-.136-.074-.344-.118-.444-.177-.397-.38-.784-.569-1.175l-1.164-2.407c-.38-.784-.756-1.57-1.113-2.365l-.561-1.252c-.152-.34-.272-.682-.398-1.03-.371.109-5.13.133-6.286.213-.284.02-.568.038-.852.053-.227.013-.546.063-.702-.141l-.059.05c.514.613 1.006 1.243 1.5 1.873Zm18.579-11.401-.069-.032c-.012.017-.027.032-.041.048-.038.038-.075.079-.113.116a15.4 15.4 0 0 0 .223-.132ZM191.78 79.404c.043-.905.091-1.81.142-2.715.101-1.769.205-3.538.343-5.304.282-3.58.544-7.159.967-10.725.177-1.495.424-2.98.672-4.464l-.095-.085c.034.406-.518.664-.792.259l-.06-.093c-.237-.383-.783-2.26-.745-2.419.068-.286.259-.54.407-.793.13-.22.261-.44.394-.66.266-.437.539-.87.826-1.295.594-.879 1.243-1.722 2.008-2.46.792-.763 1.7-1.391 2.638-1.96.451-.274.916-.522 1.39-.753.468-.227.979-.479 1.483-.608.029-.008.058.032.032.053a6.91 6.91 0 0 1-.416.3c.385-.133.783-.229 1.183-.263.776-.272 1.56-.521 2.332-.805.759-.28 1.506-.594 2.01-1.256.431-.566.704-1.258.913-1.933.23-.744.322-1.516.534-2.261.017-.06.116-.067.129 0 .152.781.145 1.66.058 2.448-.09.828-.324 1.64-.831 2.312-.589.782-1.389 1.218-2.289 1.565-.726.28-1.46.567-2.204.818.097.063.196.126.297.186.403.24.822.452 1.251.643.782.348 1.606.61 2.435.82a20.46 20.46 0 0 0 4.715.619c3.182.053 6.4-.613 9.311-1.899.819-.362 1.62-.76 2.412-1.178.247-.13.496-.262.744-.398a9.258 9.258 0 0 1-1.696-.314c-1.095-.308-2.145-.79-3.176-1.264-.874-.401-1.774-.86-2.309-1.696-.285-.448-.416-.974-.523-1.488-.118-.573-.258-1.148-.345-1.726-.03-.203.015-.477.233-.572.087-.038.158-.07.256-.07.216 0 .437.157.489.372.127.536.204 1.087.305 1.629.086.468.165.957.418 1.369.442.721 1.309 1.09 2.041 1.44.929.446 1.858.88 2.822 1.24.425.159.857.303 1.295.421a.406.406 0 0 1 .061-.305c.106-.14.226-.234.362-.341.148-.117.347-.178.522-.127h.001a.362.362 0 0 1 .23.028c.25.114.499.23.748.347 3.588 1.686 7.073 3.666 9.712 6.682.381.434.737.892 1.071 1.363.325.458.727.955.816 1.523.008.047-.061.069-.073.02a1.565 1.565 0 0 0-.086-.257c.074.259.07.533-.034.804-.124.318-.351.528-.638.612.288 1.26.482 2.538.637 3.829.223 1.86.382 3.725.501 5.594.239 3.732.345 7.482.268 11.22a104.76 104.76 0 0 1-.204 4.752c-.033.52-.006 1.091-.459 1.365l-.018.061c-.11.383-.6.26-.646-.088a.047.047 0 0 1-.002-.011c-.371-.283-.315-.754-.287-1.205.029-.488.06-.975.086-1.462.05-.934.092-1.868.13-2.803.074-1.849.116-3.7.129-5.55.028-3.7-.186-7.394-.44-11.084-.106-1.543-.231-3.08-.269-4.623-.198-.103-.259-.396-.159-.594-2.35 1.602-4.53 3.516-6.28 5.74-.292.372-.572.755-.839 1.145-.087.126-.17.258-.253.39.081.367.144.74.226 1.092.169.727.24 1.482.337 2.221.197 1.502.336 3.017.454 4.526.231 2.98.403 5.961.457 8.95.03 1.691.069 3.393-.005 5.083.055.33-.243.653-.554.695a.637.637 0 0 1-.648-.333c-.85.105-1.723.154-2.568.16-1.139.008-2.277.007-3.416-.017-2.278-.05-4.555-.108-6.832-.176l-13.663-.404-3.789-.112c-.569-.016-1.279.148-1.728-.291a.842.842 0 0 1-.179-.26c-.135.033-.3 0-.388-.103-.165-.195-.286-.375-.28-.644.006-.252.076-.518.112-.768a133.744 133.744 0 0 0 .543-4.195c.217-1.9.415-3.807.569-5.714.306-3.772.392-7.564.382-11.348l-.005-1.016a.327.327 0 0 1-.047.05l-.041.035c-.159.14-.424.212-.615.08-.234-.152-.396-.38-.579-.585-.192-.215-.39-.425-.589-.634-.387-.404-.787-.79-1.195-1.174l-.098-.09c-.003 1.204-.002 2.407-.034 3.611-.049 1.789-.146 3.575-.234 5.36-.177 3.537-.36 7.072-.536 10.607l-.145 2.962-.073 1.481-.037.802c-.013.287.005.594-.092.867-.221.623-1.175.712-1.359 0-.115-.447-.026-.964-.006-1.422l.064-1.358Z" fill="#2B283A"></path><path fill-rule="evenodd" clip-rule="evenodd" d="M209.578 12.133c-3.648 0-8.218 4.166-9.555 5.939-1.125 1.49-.966 9.17-.966 13.726 0 .952.43 2.756.587 3.667.572 3.34 3.065 6.14 8 6.14 4.019 0 7.111-1.274 10.101-4.533.682-.743 4.014 1.918 4.695.96 1.78 0 3.268-16.647-.226-21.64-3.494-4.992-8.987-4.26-12.636-4.26Z" fill="#fff"></path><path fill-rule="evenodd" clip-rule="evenodd" d="M220.545 13.305c-2.108-1.92-4.917-2.844-7.751-2.776-1.468.036-2.93.316-4.316.795-.694.24-1.365.554-2.007.91a5.074 5.074 0 0 0-.65.435l-.051.04h-.001c-.551.199-1.042.554-1.488.97a6.903 6.903 0 0 0-2.659.285c-1.203.385-2.317 1.09-3.099 2.09-.911 1.164-1.213 2.577-1.105 4.035l.02.248c.106 1.288.298 2.945 1.354 3.791.08.064.169.113.261.143-.681 1.167-1.239 2.462-1.573 3.77-1.276 4.998-.295 10.21 1.239 15.027.126.397.725.66 1.03.273.545-.694 1.337-1.223 2.228-1.322.549-.06 1.096.05 1.615-.2.204-.098.4-.259.542-.454.876.332 1.82.49 2.757.45 1.536-.063 3.178-.595 4.235-1.763a.658.658 0 0 0 .174-.588 2.269 2.269 0 0 0-.409-.105c-1.34.791-2.818 1.32-4.406 1.353-.917.019-1.812-.11-2.556-.683a3.649 3.649 0 0 1-.446-.41c-1.556-1.001-2.653-2.703-3.174-4.525-.486-1.7-.426-3.47-.259-5.212l.088-.92c.129-1.35.248-2.705.281-4.06l-.01-.001c-.328-.021-.331-.536 0-.515.856.056 1.706-.085 2.559-.024.007-.403.036-.805.154-1.195.068-.222.455-.266.496 0 .055.356.075.71.081 1.069 1.277-.017 2.553-.125 3.83-.08.235-.252.31-.698.421-1.008l.048-.137c.097.444.234.877.415 1.302l.313.001c1.777.008 3.591.061 5.326.43a.625.625 0 0 0 .212-.4c.125-.956.305-1.886.624-2.797l.045-.128a.993.993 0 0 0 .012-.034c.234.379.514.732.82 1.061.18.194.368.38.562.56.188.209.382.415.571.625a5.769 5.769 0 0 0-.041 1.43c.077.789.299 1.55.657 2.254l.011.07c.055.33.132.671.313.92a2.35 2.35 0 0 0-.5.89c-.089.298.323.557.537.312.17-.194.359-.354.566-.482.014.017.037.026.064.011.577-.32 1.559-.224 2.136.079.717.376.998 1.147.918 1.928-.077.747-.403 1.62-1.036 2.003-.29.175-.517.19-.825.106a.93.93 0 0 1-.273-.15l-.052-.041c-.202-.16-.391-.27-.629-.274a.453.453 0 0 0-.583.286l-.006.016c-.044.13-.123.295-.106.494a.946.946 0 0 0 .262.564c.025.027.052.054.079.08-2.512 2.722-2.835 6.965-1.546 10.367.056.15.115.297.178.443.215.5 1.044.345 1.149-.15a10.97 10.97 0 0 1 .344-1.248l.034-.1c.077-.218.148-.439.225-.657l.008-.025a.558.558 0 0 0 .009-.034l.131.285.396.86c.186.4.775.183.797-.204l.001-.013a6.844 6.844 0 0 1 .272-1.748l.051.064c.774.957 1.681 1.854 2.926 2.075.313.055.666-.272.451-.587a8.682 8.682 0 0 1-.255-.4c.07-.033.136-.067.198-.102a3.935 3.935 0 0 0 1.19-1.073c.69-.91.937-2.055.997-3.175.064-1.185-.04-2.433-.363-3.576a9.092 9.092 0 0 0-.549-1.428c.016-.04.03-.082.045-.123a19.686 19.686 0 0 0 1.113-6.233c.039-2.536-.398-5.113-1.319-7.479-.951-2.439-2.382-4.789-4.328-6.56Zm1.184 22.176c.175-.275.612-.027.45.25l-.006.01c-.277.437-.407.934-.566 1.42-.103.314-.599.18-.496-.136l.034-.106c.159-.494.304-.996.584-1.438Zm-1.521-5.254-.116-.056c-.366-.175-.686-.294-1.119-.142-.579.204-1.199.854-.808 1.483a.61.61 0 0 0 .664.27c.444-.092.558-.492.784-.82l.039-.056c.137-.2.311-.474.54-.552.052-.018.073-.1.016-.127Zm-.326-13.371-.037-.034c-.249-.22.116-.582.363-.364 1.132 1.002 1.526 2.57 2.113 3.906.132.3-.311.563-.444.26-.56-1.275-.932-2.8-1.995-3.768Zm-13.606-.438c.295-.134.554.297.27.44l-.011.004c-1 .453-1.425 1.477-1.833 2.428-.129.303-.572.041-.444-.26l.074-.17c.425-.98.921-1.979 1.944-2.442Zm-1.568-.619c.314-.109.448.388.137.497-.847.295-1.429.932-1.919 1.66-.184.273-.629.015-.444-.26.57-.845 1.246-1.555 2.226-1.897Z" fill="#2B283A"></path><path fill-rule="evenodd" clip-rule="evenodd" d="M204.781 31.19c-.518.314-1.309 1.049-.751 1.829.657.688 1.603-.1 2.069-.458.432-.276.917.435.516.758-3.367 2.49-4.733-2.047-2.096-2.5.29-.05.398.273.262.37Zm4.686-6.005-.129-.022-.066-.011c-.386-.064-.844-.107-1.111.196-.15.17-.201.486 0 .648.354.286.745.175 1.169.2.35.02.686.077 1.022.173.739.211 1.34.596 1.971 1.019.083.055.167-.05.128-.128-.364-.712-1.07-1.297-1.777-1.654a4.401 4.401 0 0 0-1.207-.42Zm-3.416 9.84c-1.129.08-3.574-.457-4.59.35-3.827 4.773 11.347 6 9.708.72-1.044-1.708-3.445-1.022-5.118-1.07Zm.194 2.88c.279-.022.617.199.699.37.082.17.051.53.048.593-.488.05-.98.057-1.469.024.127-.42.131-.923.722-.986Zm-2.254.705c.079-.521.452-.645.754-.566.309.08.491.435.471.751-.001.022.012.04.02.058a8.453 8.453 0 0 1-1.245-.243Zm3.461-.61c.176-.267.597-.397.866-.35.44.093.492.651.492.765a7.771 7.771 0 0 1-1.247.338 8.67 8.67 0 0 1-.249.045l-.005-.068c-.01-.145-.018-.485.143-.73Zm-4.974-.044c.451-.697 1.42-.198 1.34.563a8.78 8.78 0 0 1-.257-.085c-.354-.123-.743-.27-1.083-.478Zm3.55-2.4c.606-.055 1.104-.037 1.5.037l.012.131c.043.458.1.908-.141 1.092-.195.15-.844.135-1.279.027-.107-.027-.247-.976-.092-1.288Zm-.938-.055c.097.45.143.998-.053 1.161-.206.172-.869.148-1.043.034-.152-.1-.148-.56-.091-1.078.336-.079.921-.117 1.187-.117Zm2.706.096.199.002.112.001c.284.005.591.022.881.085.576 1.243-1.528 1.458-1.203-.042l.011-.046Zm-4.161.03.004.07c.017.35.006.81-.188.933-.285.183-.82.148-1.11-.697.096-.252 1.113-.288 1.294-.306Zm5.582-7.412a.585.585 0 0 0-.344.117 1.025 1.025 0 0 0-.278.322c-.149.26-.242.617-.242 1.012 0 .396.093.753.242 1.012.079.137.174.247.278.322a.585.585 0 0 0 .344.118.586.586 0 0 0 .345-.118 1.01 1.01 0 0 0 .277-.322c.149-.259.243-.616.243-1.012 0-.395-.094-.753-.243-1.012a1.01 1.01 0 0 0-.277-.322.586.586 0 0 0-.345-.117Zm-7.709 0a.585.585 0 0 0-.344.117 1.025 1.025 0 0 0-.278.322c-.149.26-.242.617-.242 1.012 0 .396.093.753.242 1.012.079.137.174.247.278.322a.585.585 0 0 0 .344.118.586.586 0 0 0 .345-.118 1.01 1.01 0 0 0 .277-.322c.149-.259.242-.616.242-1.012 0-.395-.093-.753-.242-1.012a1.01 1.01 0 0 0-.277-.322.586.586 0 0 0-.345-.117Zm1.049-3.349-.098.02-.066.014c-1.064.229-2.414.68-2.912 1.712-.02.149.001.18.017.202l.006.006c.014.018.025.043.089.063a3.1 3.1 0 0 0 .651-.246l.193-.095c.225-.11.452-.216.692-.294a8.137 8.137 0 0 1 1.575-.348.647.647 0 0 0 .316-.12.475.475 0 0 0 .176-.268.482.482 0 0 0-.054-.403.512.512 0 0 0-.249-.215.59.59 0 0 0-.336-.028Z" fill="#2B283A"></path><path fill-rule="evenodd" clip-rule="evenodd" d="M241.848 48.57c.591-2.291 1.135-3.263 2.186-4.059.983-.745 2.417-1.37 4.51-1.827 2.18-.38 2.242-1.512 2.789-3.331.159-.547.949-.693 1.291-.298.048-.052.098-.1.15-.143-.047-.26.333-1.008.321-1.257-.133-2.604.72-3.911 2.848-4.397.463-.106 3.607-.168 4.058-.044 1.973.545 3.915 2.275 3.618 4.358.619.809 1.225 1.302 2.181 1.562 2.126.27 4.252.51 6.379.715 4.163.652 8.066 2.853 10.734 6.063.246.296.318.698.1 1.014.17.728 1.128 2.493.375 2.992 1.239 2.96 4.09 8.68 4.095 10.315.022 6.866-.72 15.803-7.504 19.602-.272.267-.31.562-.428.959-.298 1.25-1.381 2.143-2.567 2.07-5.84.13-11.497-.582-17.337-.616-2.576-.016-5.673.368-7.91.624-2.238.256-4.496.03-6.643-.624a.872.872 0 0 1-.919.368c-2.226-.441-4.026-1.811-5.593-3.309-.479-.87-2.35-3.35-1.607-4.213-.674-2.846-.639-5.905.559-8.615-.17-.497.14-1.043 0-1.556-.101-.371-.36-.525-.49-.892-.184-.518.016-1.212.222-1.74.085-.263-.155-.546-.222-.814-.317-1.267.408-1.155.931-2.002-.007-.002-.143-.607-.143-.604-.08-.431.121-.984.296-1.344.118-.244.371-.396.623-.368-.253-.86-.574-1.575-.919-2.403a25.056 25.056 0 0 0-2.257-4.178c-.358-.542.123-1.168.703-1.205 1.878-.12 3.736-.39 5.57-.803Z" fill="#fff"></path><path fill-rule="evenodd" clip-rule="evenodd" d="M247.329 59.609a8.275 8.275 0 0 1 2.373-.52c-.438-.077-.877-.15-1.319-.189-.309-.026-.595-.023-.827.21-.155.156-.228.357-.33.541.034-.015.068-.029.103-.042Zm-8.063-2.751a9.48 9.48 0 0 1 3.575.884c.455.217.868.53.989 1.045.061.263.046.535.013.8-.024.202-.03.459-.205.595a.388.388 0 0 1-.095.053c.41.186.801.408 1.148.637.318.21.644.532.791.896.012-.041.024-.08.037-.117.249-.737.634-1.34 1.24-1.747-.107-.048-.181-.162-.147-.32.144-.656.752-1.227 1.437-1.186.752.044 1.558.317 2.238.662.247-.005.494-.002.739.009.042.001.04.058 0 .063a15.92 15.92 0 0 0-.595.086c-.471.075-.94.17-1.4.289-.551.142-1.121.285-1.636.534-.998.483-1.617 1.747-1.49 2.846.021.18.091.725.342.67.211-.048.295-.49.369-.653.199-.434.555-.717.984-.909.502-.226 1.04-.378 1.562-.556l.886-.302c.302-.104.59-.247.912-.174.195.044.217.276.108.409-.166.202-.413.262-.652.345l-.948.33c-.488.17-.999.312-1.474.52l.015.033c.038-.01.084.028.076.076-.071.438-.17.945-.06 1.384.087.349.393.734.791.632a.21.21 0 0 1-.044-.246c.158-.336 2.22-1.663 2.404-1.17.006.017-.013.03-.028.027-.156-.032-.419.235-.544.32-.182.122-.366.24-.545.366-.196.137-.387.28-.574.43-.146.116-.257.237-.425.296.088.042.158.12.188.22.076.26.222.48.477.594.266.12.567.044.848.073.383.039.716.22.995.48.586.547.88 1.51 1.699 1.767.489.154 1.032.057 1.527-.013.553-.078 1.092-.14 1.649-.058.533.078 1.037.262 1.525.487.456.211.961.45 1.366.764.084-.257.168-.51.232-.773.15-.62.232-1.252.251-1.89a15.36 15.36 0 0 0-.068-1.819c-.025-.302-.066-.602-.092-.903-.007-.076-.02-.158-.03-.239-.724-.426-1.484-.753-2.25-1.09l-.006-.002-.07-.031.002-.004a.473.473 0 0 1-.185-.205 8.864 8.864 0 0 1-2.715-2.894c-.288-.488-.566-.995-.943-1.422a2.713 2.713 0 0 0-1.469-.868 13.758 13.758 0 0 0-2.108-.321c-.386-.03-.818-.078-1.238-.076a3.277 3.277 0 0 0-.844.1c-.39.107-.618.403-.863.703-.234.287-.467.575-.685.875a8.277 8.277 0 0 0-.572.885 5.402 5.402 0 0 0-.276.57c-.028.069-.064.148-.081.22-.017.072.014.149-.067.149.335.004.332.54-.002.52-1.307-.075.565-2.624.839-2.979.387-.503.787-1.159 1.407-1.393l.027-.01a3.199 3.199 0 0 1-.459-.583c-.14-.214-.308-.46-.354-.713-.029-.163.172-.255.268-.113.139.207.206.468.31.695.106.23.235.448.336.68.245-.074.51-.109.779-.12-.34-.46-.92-1.347-.99-1.46a33.456 33.456 0 0 1-.92-1.616c-.316-.59-.587-1.203-.89-1.8-.172-.338-.345-.679-.535-1.007a2.985 2.985 0 0 0-.217-.328c-.015-.02-.035-.037-.053-.056l-.055-.03c-.11-.064-.149-.21-.226-.303-.124-.15-.269-.168-.455-.17-.396-.004-.794.012-1.189.023a71.089 71.089 0 0 0-4.801.296c-.745.071-1.49.187-2.236.243a70.717 70.717 0 0 0 3.397 7.019.284.284 0 0 1 .028.069Zm5.602 6.173c.163.074.321.167.469.273a2.713 2.713 0 0 1-.024-.513.823.823 0 0 1-.445.24Zm-6.951-4.122a.036.036 0 0 1 .028.019 1.15 1.15 0 0 1-.237 1.347c-.193.19-.613.404-.599.716.011.252.286.463.403.671.11.194.15.407.063.617-.112.27-.425.376-.532.64-.136.336.085.74.239 1.033.144.27.33.54.454.827.827.428 1.567 1.084 2.204 1.75.696.729 1.294 1.586 2.401 1.564a.278.278 0 0 1 .245.137c.308.014.617.02.925.022.541.003 1.083-.003 1.623-.02.038-.13.011-.308.013-.419.006-.356.01-.71.025-1.067l.012-.297c-.195.352-.575.512-1.008.487-.696-.04-1.396-.154-2.085-.257a35.025 35.025 0 0 1-1.088-.18c-.297-.052-.716-.038-.924-.276-.049-.056-.051-.158.025-.195.206-.101.336-.045.562-.001a50.844 50.844 0 0 0 2.426.405c.304.042.609.084.913.117.266.029.566.067.781-.133.432-.404.19-1.08-.084-1.489a.026.026 0 0 1-.003-.022c-.258-.06-.515-.13-.772-.18a31.51 31.51 0 0 0-1.487-.246c-1.022-.146-2.051-.242-3.078-.34-.254-.024-.257-.424 0-.4 1.476.135 2.959.263 4.415.547.365.07.728.15 1.088.24.17.043.353.109.531.11h.033c.349-.011.4-.31.208-.559a2.608 2.608 0 0 0-.073-.09c-.339-.404-.762-.674-1.198-.953-.488-.066-.974-.214-1.452-.322l-3.538-.805c-.232-.053-.133-.408.098-.356l2.687.608 1.311.297c.262.059.589.178.897.22.152.021.299.024.432-.007.43-.102.451-.638.266-.957-.207-.357-.6-.581-.948-.784-.603-.352-1.245-.604-1.872-.896l-.334-.073c-.647-.142-1.387-.212-1.996-.473-.182-.077-.083-.365.098-.36.473.01.967.178 1.43.277l1.5.324c.051.011.348.106.393.085.028-.014.038-.113.048-.178.03-.214.053-.439.019-.654-.073-.482-.475-.708-.882-.893a9.407 9.407 0 0 0-3.575-.818c-.27-.008-.492-.056-.628.21-.215.417-.333.954-.403 1.43Zm1.259 15.139c.197-.683.144-1.412.279-2.108.07-.359.165-.715.269-1.066.084-.283.224-.584.24-.88.001-.02-.022-.03-.038-.022-.279.16-.493.505-.652.775-.19.324-.335.663-.452 1.019-.234.71-.426 1.566-.125 2.281.09.213.405.256.479 0Zm6.104-9.04a4.143 4.143 0 0 1-.501-.085c.187.182.359.4.455.644.015-.187.034-.373.059-.558h-.013Zm1.605 14.205c.294-.205.508-.492.758-.745.246-.249-.138-.632-.384-.383-.213.216-.398.486-.648.66-.121.084-.177.236-.098.371.07.12.251.181.372.097Zm1.641-7.886c-.537-.232-1.066-.484-1.628-.652-.336-.1-.478.424-.144.523.518.154 1.003.384 1.498.598.318.137.594-.33.274-.469Zm5.675-.162c.131-.324-.394-.463-.524-.144-.149.367-.32.725-.469 1.093-.131.324.394.463.524.144.149-.367.32-.725.469-1.093Zm5.601 6.467c.087.117.233.18.371.098.115-.07.186-.253.097-.371a9.484 9.484 0 0 0-.824-.992c-.246-.249-.629.135-.384.383.271.275.508.575.74.882Zm.8-36.289c-.249.17-.467.377-.68.59-.247.246.136.63.384.383.179-.18.36-.361.57-.504.122-.083.176-.237.098-.371-.071-.12-.251-.18-.372-.098Zm-8.148 8.726c.141.282.267.558.275.878.009.35.552.35.543 0-.01-.419-.165-.782-.35-1.151-.156-.313-.624-.038-.468.273Zm-2.99-7.008c-.292-.194-.563.276-.274.468l.704.469c.291.194.563-.276.274-.468l-.704-.469Zm12.968 12.253c.05.345.573.197.523-.144a12.372 12.372 0 0 0-.312-1.562c-.094-.336-.618-.192-.524.145.144.513.237 1.034.313 1.561Zm1.903 6.212c.349-.008.35-.55 0-.543-.316.007-.627.09-.932.166-.339.085-.195.608.144.523.258-.064.521-.14.788-.146Zm.703 12.512c.12.058.243.11.364.166a471.074 471.074 0 0 1 2.245 1.032c1.011.467 2.03.918 3.043 1.38 1.034.472 2.065.95 3.094 1.43.485.227.974.444 1.462.665.417.188.932.517 1.39.548.023.002.031-.028.018-.043-.173-.197-.449-.31-.676-.439-.233-.13-.469-.253-.705-.377-.49-.26-.982-.518-1.477-.769-.992-.5-1.985-.998-2.978-1.495-1.014-.507-2.026-1.017-3.048-1.506-.481-.23-.963-.46-1.444-.688l-.784-.371c-.113-.054-.225-.111-.34-.159-.153-.063-.27-.05-.428-.09-.258-.063-.369.265-.171.407.163.118.248.218.435.309Zm3.623 5.56c.056-.135-.06-.3-.189-.334-.154-.04-.278.053-.334.19a3.06 3.06 0 0 1-.634.973c-.244.25.14.634.384.384a3.74 3.74 0 0 0 .773-1.213Zm2.667-8.704c.247-.247-.137-.63-.384-.383l-.704.703c-.247.247.137.63.384.383l.704-.703Zm7.217-1.145c.506.148 1.096.284 1.441.715.017.021.045-.006.035-.027-.442-.914-1.708-1.235-2.584-1.555a20.977 20.977 0 0 0-1.898-.583c.064-.73-.113-1.514-.174-2.241a47.903 47.903 0 0 1-.147-2.335 35.261 35.261 0 0 1-.008-2.39c.026-.791.129-1.574.174-2.363.004-.077-.102-.08-.125-.017-.266.732-.38 1.544-.467 2.316-.089.796-.119 1.59-.108 2.39.012.822.06 1.643.126 2.463.031.39.067.778.101 1.166.026.296.039.59.099.878a66.082 66.082 0 0 0-1.161-.272c-1.233-.278-2.471-.536-3.698-.836-.603-.148-1.197-.324-1.796-.481-.565-.148-1.161-.327-1.741-.393-.207-.023-.233.26-.096.355.471.33 1.097.561 1.641.746.547.186 1.114.32 1.674.457 1.168.287 2.347.521 3.524.766 1.176.244 2.354.486 3.516.787.559.145 1.117.29 1.672.454Zm2.772-14.507c.302.177.575-.292.274-.468-.394-.231-.814-.405-1.238-.574-.324-.13-.464.394-.144.523a8.11 8.11 0 0 1 1.108.519Zm1.094 20.145c.303.176.576-.293.274-.468-.424-.246-.889-.41-1.329-.624-.313-.154-.588.314-.274.468.44.215.905.379 1.329.624Zm.492-11.435c-.293.278-.684.409-1.053.555-.321.127-.18.651.145.523.459-.182.927-.349 1.292-.695.254-.24-.131-.623-.384-.383Zm-3.241-15.53c-.322.126-.181.65.144.523.361-.142.734-.25 1.094-.39.322-.127.181-.651-.144-.524-.361.142-.733.25-1.094.39Zm-5.718-6.169c-.343-.057-.488.465-.145.523.427.072.847.156 1.251.312.327.127.467-.398.144-.523-.404-.156-.824-.24-1.25-.312Zm-1.89 15.02c.314-.155.039-.622-.274-.47-.329.163-.67.288-1.029.364-.342.073-.197.595.144.523a4.996 4.996 0 0 0 1.159-.418Zm-1.784-8.461c-.338-.092-.481.43-.145.523.592.162 1.202.246 1.798.39.34.082.484-.44.145-.523-.597-.144-1.206-.228-1.798-.39Zm-7.57-2.655c-.344.064-.198.586.144.523.363-.067.732-.068 1.1-.068.35 0 .35-.543 0-.543-.418 0-.832.012-1.244.088Zm-24.69 2.833a70.136 70.136 0 0 1 2.665-.203l.124-.007a6.337 6.337 0 0 0 .706-1.36c.177-.459.349-.931.621-1.344.312-.471.732-.84 1.192-1.16.279.188.538.408.775.64.25.245.634-.138.384-.383a5.88 5.88 0 0 0-.673-.57c.274-.167.554-.324.828-.48a41.158 41.158 0 0 1 3.142-1.616c.497-.23 1.001-.434 1.508-.64.272-.112.542-.255.815-.383-.02-.193.038-.409.185-.535.11-.093.195-.128.325-.194.029-.01.047-.016.055-.02a.892.892 0 0 0-.053.017c-.069.032-.075.022-.016-.028.003-.11.219-.341.269-.454.172-.389.226-.8.48-1.154.351-.487.94-.671 1.489-.506.057-.586.072-1.198.293-1.721.006-.015.026-.02.035-.005.23.392.25.83.268 1.282.017.425.001.86-.055 1.282.035.027.071.053.108.078.175.115.364.204.562.27.377.124.773.179 1.169.198 1.021.048 2.073-.055 3.078-.23 1.015-.176 2.573-.442 3.476-.95.597-.335 1.147-.743 1.705-1.14-.202-.65-.254-1.35-.05-1.9.024-.065.127-.077.147 0 .127.526.165 1.053.334 1.571a.225.225 0 0 1 .008.023l.159-.106c.122-.08.289-.02.362.095 1.172 1.844 3.028 1.95 4.976 2.28 2.133.36 4.276.749 6.327 1.455 1.961.675 3.835 1.658 5.32 3.126.336.332.65.686.947 1.056a4.863 4.863 0 0 0-.853.18c-.333.105-.19.628.144.523.361-.113.727-.169 1.095-.197 1.009 1.379 1.796 2.942 2.476 4.48a32.827 32.827 0 0 1 2.545 9.29c-.215-.128-.433-.25-.657-.365-.311-.158-.586.31-.274.469.346.175.681.369 1.007.579.142 1.4.197 2.809.164 4.216-.08 3.353-.533 6.806-1.558 10.005-.503 1.57-1.169 3.129-2.162 4.456a7.84 7.84 0 0 1-1.561 1.595 6.21 6.21 0 0 1-.924.581c-.419.214-.964.285-1.325.588-.119.1-.21.23-.28.38.04.281.045.564-.032.846a.303.303 0 0 1-.173.194c-.002.025-.002.049-.002.072 0 .01-.016.013-.018.002l-.01-.063a.266.266 0 0 1-.083.013 82.207 82.207 0 0 1-3.095-.057c.08-.244.167-.486.25-.73.112-.332-.412-.473-.524-.144-.097.285-.198.568-.289.855-1.105-.041-2.211-.09-3.314-.127-2.347-.078-4.694-.104-7.042-.153-3.645-.078-7.318-.236-10.969-.081-.126-.268-.268-.53-.402-.793-.158-.312-.626-.037-.469.273.094.184.19.365.282.548-.74.038-1.479.09-2.216.158-1.258.118-2.504.328-3.76.458a14.04 14.04 0 0 1-3.795-.102.5.5 0 0 1-.418-.346 2.616 2.616 0 0 0-1-.462c-.207-.03-.418-.034-.625-.06a5.187 5.187 0 0 1-1.407-.392 3.147 3.147 0 0 1-.698-.441c-.446-.326-.833-.742-1.171-1.175a8.911 8.911 0 0 1-.55-.788 19.749 19.749 0 0 1-.795-1.46 5.419 5.419 0 0 1-.252-.45c.493-.146.992-.264 1.514-.273.35-.005.35-.547 0-.542-.599.01-1.167.15-1.73.316a4.24 4.24 0 0 1-.078-.22 3.73 3.73 0 0 1-.169-.476l-.082-.22-.184-.761c-.123-.407-.219-.82-.291-1.238a8.062 8.062 0 0 1-.137-.833c-.095-.68-.172-1.359-.178-2.046.008-.423.036-.846.082-1.267.019-.286.053-.571.097-.854.059-.42.117-.836.214-1.25l.217-.843c.182-.585.395-1.158.642-1.719.013-.035.082-.112.123-.113.031 0 .075.028.061.066l-.005.01c.015-.031.028-.064.042-.095.013-.03.06-.09.097-.09l.007.001a.151.151 0 0 1-.028-.025c-.243-.288-.401-.667-.576-1-.144-.276-.281-.566-.32-.877-.034-.273.012-.542.184-.763.195-.252.563-.37.359-.733-.232-.413-.573-.772-.233-1.242.173-.24.447-.37.65-.579a1.23 1.23 0 0 0 .339-.891c-.014.008-.033.004-.04-.016-.196-.594-.054-1.246.148-1.824.11-.314.342-.4.613-.416a92.211 92.211 0 0 1-3.344-7.223c-.047-.117.053-.272.169-.298.846-.185 1.726-.244 2.587-.325Z" fill="#2B283A"></path><path fill-rule="evenodd" clip-rule="evenodd" d="M247.867 6.338c3.75-1.102 16.644.027 16.963.266.521.434 3.059 1.81 3.454 2.125 3.571 3.789.167 9.415.429 13.986-.017 1.621.673 3.101.991 4.661.134.817.104 1.663-.322 2.397-.748 1.31-2.328 1.577-3.613 2.105-.639.276-1.237.667-1.784 1.094-3.688 3.265-5.74 5.502-11.12 4.765-.028.257-.255.51-.537.395-.661-.27-1.317-.555-1.983-.81-.142.343-.551.441-.829.138l-.001.002c-1.233-1.002-2.018-2.371-2.6-3.837a16.052 16.052 0 0 1-.997-2.637.462.462 0 0 1 .001-.274 35.804 35.804 0 0 1-1.303-12.555c.063-.87.227-1.751.187-2.625-.037-.789-.376-1.535-.635-2.27-1.335-3.124.706-5.943 3.699-6.926Z" fill="#fff"></path><path fill-rule="evenodd" clip-rule="evenodd" d="m247.396 1.265-.04-.031c-.432-.34-.84-.785-1.45-.618-.5.137-.752.551-.859 1.052-.152-.16-.3-.325-.445-.495-.392-.463-1.27-.223-1.387.367a9.27 9.27 0 0 0-.018 3.59c.035.18.076.36.125.538a9.717 9.717 0 0 1-.727-1.03c-.238-.39-.775-.197-.812.22a3.95 3.95 0 0 0-.017.329.375.375 0 0 0-.239.443c.244 1.167.553 2.317.925 3.448-.598-.317-1.267-.505-1.898-.281-1.001.356-1.24 1.45-1.044 2.391.246 1.184 1.02 2.174 2.019 2.824.118.178.235.358.347.54.002.518.096 1.034.285 1.514a3.223 3.223 0 0 0 1.052 1.357c.163.355.594.614.972.542l.02-.004c-.096.347-.18.698-.252 1.049-.559 2.719-.276 5.55.234 8.253l.016.086c.458 2.407.991 4.899 2.027 7.133.937 2.02 2.525 3.797 4.795 4.237 2.67.52 5.625-.303 7.922-1.674.832-.497.069-1.806-.76-1.301a11.727 11.727 0 0 1-3.87 1.506c-1.284.25-2.721.334-3.953-.184-1.716-.721-2.735-2.484-3.38-4.143-.381-.98-.665-1.99-.93-3.005-.342-1.305-.66-2.619-.899-3.947-.446-2.477-.59-5.05-.119-7.534.15-.792.363-1.59.64-2.356.043-.054.085-.114.122-.18.289-.509.489-1.086.704-1.636.189-.328.395-.643.614-.951.327-.252.639-.52.924-.814-.829-.538-1.56-1.21-2.087-2.067-.086-.141-.031-.276.072-.353.42.527.964.972 1.536 1.367.293.252.609.477.94.681a8.046 8.046 0 0 0 2.686.065c1.419-.19 7.422-1.845 9.952-1.201.527.134.775.607 1.054 1.051.242.387.55.707.92.97l.041.03c.722.5 2.174 2.083 2.785 3.496.788 1.825 1.545 7.292 1.197 7.34-.912.123-1.417.603-2.16 1.118-.049.034-.02.125.043.102.49-.177 1.021-.282 1.535-.367.464-.078.954-.092 1.403.074.688.256 1.024.833 1.162 1.485.054.255.078.52.081.784v.076c0 .83-.155 1.75-.757 2.362-.256.26-.603.436-.966.485-.398.053-.643-.127-1.008-.22-.421-.107-.749.17-.71.532-.089.077-.175.16-.261.243h-.001a.67.67 0 0 0-.157.1c-.08.068-.146.142-.199.22a.538.538 0 0 0-.326.21c-.192.248-.369.5-.534.755-.295.313-.589.628-.879.947-.348.384-.688.777-1.029 1.167l-.171.195-.552.63-.055.062c-.185.207-.326.36-.346.659-.014.22.224.37.421.32.303-.078.444-.317.626-.554l.275-.353.259-.332c.128-.166.258-.33.387-.496.039.304.36.55.653.562l.068.003c.689.023 1.525-.074 2.049-.56.236.238.529.425.89.538.82.255 1.659-.197 1.99-.886.644.276 1.37.331 2.065.128a.567.567 0 0 0 .26-.923l-.013-.014-.003-.003a.477.477 0 0 0 .095-.267c.006-.122-.083-.25-.064-.364.069-.432.774-.112.997-.018a.345.345 0 0 0 .121.027c.346.101.722-.354.541-.73-.406-.84-.802-1.685-1.213-2.523.052.017.105.034.157.047.739.19 1.634-.174 1.464-1.065-.039-.209-.229-.352-.417-.417-.366-.126-.641-.035-.922-.153-.318-.132-.65-.374-.929-.602a4.867 4.867 0 0 1-.783-.812 3.178 3.178 0 0 0-.501-1.196l-.047-.062c1.618-.386 1.406-1.98 2.121-3.393l.06-.117c.485-.945.908-2.01.663-3.086a2.53 2.53 0 0 0-.188-.542c.13.017.261.031.39.046.298.034.601-.35.483-.634a4.856 4.856 0 0 0-.963-1.476c.501-.013 1.002-.013 1.497-.07.468-.055.959-.311.945-.851-.015-.515-.466-.904-.884-1.155a5.052 5.052 0 0 0-1.524-1.343c.116-.026.235-.045.355-.057l.06-.006c.338-.026.641-.119.946-.26.274-.127.27-.51.091-.703-.578-.625-1.444-.422-2.118-.063.047-.06.098-.117.154-.172l.034-.033c.331-.308-.166-.804-.496-.496a2.4 2.4 0 0 0-.281.315l-.008-.017a7.22 7.22 0 0 0-1.828-2.312l-.177-.148c-1.36-1.138-1.78-1.677-3.589-1.51.077-.328.069-.698.052-1.003l-.003-.04c-.069-1.145-.491-2.515-1.605-3.028-.29-.133-.618.084-.541.416.054.235.12.464.202.686a7.59 7.59 0 0 0-.781-.716c-1.126-.898-2.63-1.671-4.111-1.418-.813.14-1.451.65-2.132 1.077a5.352 5.352 0 0 1-2.25.777c-1.12.129-2.244-.001-3.351-.206-.761-.332-1.5-.721-2.22-1.14-.444-.258-.875-.54-1.282-.85Zm19.882 24.851a1.538 1.538 0 0 0-.741 0c-.613.154-1.184.668-1.22 1.315-.016.293.22.573.493.648.31.086.577-.066.758-.309.194-.26.242-.54.48-.777l.055-.053c.202-.193.507-.444.788-.399.041.007.072-.05.03-.072-.229-.125-.379-.286-.643-.353Zm-3.187-3.051c-.108-.089-.251.015-.2.142l.004.01c.128.27-.023.588-.179.815-.133.196.12.382.298.298.5-.238.474-.942.077-1.265Zm-1.83-8.14c.009-.067-.079-.094-.101-.029-.374 1.086-.481 2.048-.42 3.196l.005.102c.066 1.106.26 2.277.929 3.185.155.21.472.087.42-.177-.205-1.057-.6-2.06-.753-3.129-.161-1.117-.233-2.03-.08-3.149Zm3.49 3.946c-.054-.29-.5-.588-.725-.297-.075.1.014.22.105.257.085.034.162-.012.246.004a.223.223 0 0 1 .151.115l.007.012c.066.127.239.033.216-.09Zm.183-2.31c-.16-.296-.528-.484-.843-.3-.104.061-.063.239.063.233l.075-.003c.224-.008.449-.003.637.139.042.031.089-.028.068-.068Zm-.563-8.09c.897-.403 1.789-.038 2.521.53.061.047.09.102.097.157-.489-.19-1.01-.315-1.507-.419a8.289 8.289 0 0 0-1.229-.163.247.247 0 0 1 .118-.104Z" fill="#2B283A"></path><path fill-rule="evenodd" clip-rule="evenodd" d="M250.739 30.118c.726-.327 2.029-.041 2.503.072 1.1.264 2.206.835 2.548 1.729.386 1.008-.383 1.325-.496 1.273-.762.054-1.669-.426-2.467-.55-.648-.1-1.331-.189-1.938-.534-.443.245-1.444.376-2.252.59-.688.181-.986.575-1.624.492-.765-.1-.452-1.71.4-2.362.933-.714 2.51-1.003 3.326-.71ZM249.302 37c.635.155.677-1.238.749-1.73.055-.384.369-1.376 1.163-1.333.795.042 1.094.873 1.053 1.39-.026.335-.334 2.033.651 2.247a11.706 11.706 0 0 0 2.014-.166c.777-.176 1.787-.793 2.054.422.096.437-3.326 1.735-4.845 1.853-1.541.312-3.343-.168-4.439-1.348-.25-.268-.952-1.382-1.003-1.655-.105-.573.139-.942.848-.74.5.268 1.346.96 1.755 1.06Z" fill="#2B283A"></path><path fill-rule="evenodd" clip-rule="evenodd" d="M250.462 30.851c-.257-.453-1.024-.38-1.142.15-.238 1.07 1.042 2.06 2.013 2.085.966.024 2.049-.797 1.91-1.833-.035-.257-.378-.226-.495-.065l-.045.062c-.318.426-.737.867-1.326.763a1.012 1.012 0 0 1-.614-.391c-.178-.237-.159-.52-.301-.77Zm6.14-7.838a.575.575 0 0 0-.379.027.745.745 0 0 0-.551.51 1.327 1.327 0 0 1-.02.062l-.012.031.031-.079c-.014.078-.077.16-.1.238a.843.843 0 0 0-.025.31c-.083.001-.165.004-.247.01l-.08.008c-.444.041-.931.117-1.194.5-.148.215-.009.603.262.644.418.064.778-.167 1.195-.213a4.172 4.172 0 0 1 1.195.052c.802.147 1.539.471 2.321.675l.107.027c.134.032.286-.154.153-.263-.626-.514-1.428-.93-2.218-1.184a.708.708 0 0 0 .072-.62 1.661 1.661 0 0 0-.044-.12l-.033-.081a.624.624 0 0 0-.021-.113l-.002-.011h-.001a.613.613 0 0 0-.409-.41Zm-7.993.03c-.171-.172-.412-.146-.591-.012l-.024.019c-.168.075-.308.238-.399.39a.97.97 0 0 0-.161.49c-.415.001-.812.126-1.117.46-.098.108-.165.274-.111.42l.032.088c.102.276.562.435.718.11l.008-.015c.166-.386.803-.346 1.142-.306.236.027.469.086.697.151.08.023.16.049.239.074l.08.026c.042.014.263.134.126.105-.037-.008-.065.046-.027.064.164.079.338-.077.327-.253-.019-.305-.504-.472-.737-.578l-.014-.006a4.483 4.483 0 0 0-.28-.118c.054-.08.099-.17.137-.267.035-.09.059-.18.072-.276a.285.285 0 0 0 0-.142l-.002-.013a.512.512 0 0 0 .009-.097l.001-.012h-.001a.465.465 0 0 0-.124-.302Zm2.738 3.248c-.659.203-1.745.757-1.402 1.61.479.785 1.75.209 2.365-.045.553-.183.841.591.307.825-4.419 1.746-4.403-2.862-1.431-2.794.328.007.338.337.161.404Zm5.846-6.008-.112-.032c-.584-.169-1.179-.46-1.697-.006-.204.179-.246.55-.1.773.332.507.823.43 1.359.473.407.033.809.153 1.19.302a4.2 4.2 0 0 1 .872.486c.267.189.45.484.724.654.101.062.217-.002.253-.103.128-.358-.088-.804-.271-1.11-.223-.372-.563-.676-.928-.907-.399-.252-.841-.398-1.29-.53Zm-8.502-.385c-.986 0-1.935.547-2.487 1.35-.187.273-.05.677.219.835.302.176.625.049.824-.204l.012-.015c.316-.42.724-.752 1.207-.968a3.2 3.2 0 0 1 .752-.234l.082-.014c.116-.02.25-.038.354-.02a.403.403 0 0 1 .155.054c-.023.05.036.11.091.08.245-.134.215-.374.012-.56-.286-.264-.851-.304-1.221-.304Z" fill="#2B283A"></path><path fill-rule="evenodd" clip-rule="evenodd" d="M244.588 26.433c.785.819 2.094 1.053 3.138.614 2.68-1.13 1.368-4.657-.699-5.605-.258-.065-.603-.219-.917-.254-.029-.014-.091.027-.166-.012-2.278.257-2.797 3.83-1.356 5.257Zm8.644.21c.88 1.178 2.515 1.542 3.852.994 2.64-1.05 1.703-4.178-.103-5.404-3.816-1.448-5.391 2.236-3.749 4.41Zm5.723-2.611c.002-.002.005-.002.007-.003a7.774 7.774 0 0 1-.042-.02.516.516 0 0 0 .014.037c.007-.005.013-.01.021-.014Zm-16.183-1.275c.215 0 .526.036.705.187.44-1.498 2.063-2.884 3.474-1.873 1.112.361 1.937 1.162 2.406 2.226.845-.507 2.174-.29 2.907.381.48-1.602 1.662-2.163 3.068-2.246 1.535-.254 3.065 1.252 3.542 2.46.397-.046.99-.174 1.363.074 2.424-.642 6.66-.996 7.153-.64.351.137.544.974.054 1.019-.428-.062.049-.614-.381-.674-2.296-.143-4.524.323-6.794.52-.203.275-.858.367-1.208.256.551 2.049-.638 3.443-2.418 3.86-2.757.64-5.155-1.85-4.434-4.441-.835-.42-1.796-.402-2.706-.181 1.521 5.65-7.49 5.397-6.083-.547-.936.47-1.139-.286-.648-.38Z" fill="#2B283A"></path></svg>