<svg width="1152" height="246" viewBox="0 0 1152 246" fill="none" xmlns="http://www.w3.org/2000/svg">
<mask id="mask0" mask-type="alpha" maskUnits="userSpaceOnUse" x="-1" y="-121" width="1153" height="367">
<path d="M-1 -113.846C302.962 -125.782 618.341 -120.648 1152 -113.846C1152 26.6827 1152 105.471 1152 246C687.997 235.241 434.442 231.298 -1 246V-113.846Z" fill="#FFFAD1"/>
</mask>
<g mask="url(#mask0)">
<path d="M-1 -113.846C302.962 -125.782 618.341 -120.648 1152 -113.846C1152 26.6827 1152 105.471 1152 246C687.997 235.241 434.442 231.298 -1 246V-113.846Z" fill="#FFFAD1"/>
<path fill-rule="evenodd" clip-rule="evenodd" d="M167.081 -126.259C215.722 -129.923 269.951 -143.376 305.177 -109.638C344.166 -72.2954 355.532 -11.8156 340.792 40.1165C326.808 89.3803 283.428 125.555 234.305 140.047C192.952 152.246 155.502 123.814 116.054 106.417C73.5944 87.692 16.9962 82.141 2.819 37.9601C-11.9649 -8.11171 18.6034 -56.4182 52.8237 -90.6297C82.505 -120.303 125.226 -123.106 167.081 -126.259Z" fill="#FBE6F4"/>
<path fill-rule="evenodd" clip-rule="evenodd" d="M627.081 173.741C675.722 170.077 729.951 156.624 765.177 190.362C804.166 227.705 815.532 288.184 800.792 340.117C786.808 389.38 743.428 425.555 694.305 440.047C652.952 452.246 615.502 423.814 576.054 406.417C533.594 387.692 476.996 382.141 462.819 337.96C448.035 291.888 478.603 243.582 512.824 209.37C542.505 179.697 585.226 176.894 627.081 173.741Z" fill="#FBE6F4"/>
<path fill-rule="evenodd" clip-rule="evenodd" d="M987.081 -102.259C1035.72 -105.923 1089.95 -119.376 1125.18 -85.638C1164.17 -48.2954 1175.53 12.1844 1160.79 64.1165C1146.81 113.38 1103.43 149.555 1054.31 164.047C1012.95 176.246 975.502 147.814 936.054 130.417C893.594 111.692 836.996 106.141 822.819 61.9601C808.035 15.8883 838.603 -32.4182 872.824 -66.6297C902.505 -96.3032 945.226 -99.1063 987.081 -102.259Z" fill="#FBE6F4"/>
</g>
</svg>
