<svg width="93" height="126" viewBox="0 0 93 126" fill="none" class="cb-ba cb_af">
<path fill-rule="evenodd" clip-rule="evenodd" d="M18.4079 84.6956C18.4079 84.0306 19.3248 82.8501 19.3264 82.2476C18.5555 82.1093 17.911 81.0608 18.0818 80.4042C18.3827 80.1733 19.1713 79.7188 19.4974 79.5065C21.4846 79.567 20.7293 76.7915 20.9542 75.3807C21.1807 74.0004 21.3488 72.5571 21.6802 71.169C22.2688 70.0582 22.5451 68.813 23.1076 67.7079C23.3589 67.3416 23.7649 67.0059 23.8865 66.5804C25.1173 65.2308 26.8116 64.4218 28.2059 63.2788C27.6648 63.1049 27.7009 62.3721 27.7359 61.9016C27.61 61.2877 27.7445 60.5177 28.3021 60.1719C28.4906 59.5554 29.3143 59.3402 29.796 59.733C30.1124 58.3091 31.3503 57.4453 32.6471 56.917C32.646 56.9128 32.6449 56.9087 32.6437 56.9045C33.9515 56.3834 35.519 56.1236 36.8239 56.4165C36.1351 48.7112 42.0133 48.4283 44.9966 49.0759C46.5225 49.4071 48.8121 50.4382 49.3322 51.8717C49.6259 52.681 50.4685 55.2911 50.5885 56.1236C52.8666 54.8185 55.5076 53.0975 57.4835 55.725C57.8792 56.1829 58.317 56.523 58.909 56.6804C60.7576 57.1619 63.2111 57.178 64.2618 59.0699C64.8898 60.242 64.325 61.0142 64.4937 62.1867C72.8148 68.0535 79.7686 89.6661 78.2073 99.7208C77.8317 103.319 75.9979 109.688 71.4716 108.894C69.1629 111.429 30.4137 111.429 26.418 108.894C23.1291 109.758 19.7871 108.421 18.4079 105.258C16.6563 100.922 18.5125 96.2382 18.8414 91.7896C19.0412 90.6664 19.3385 89.7749 19.4974 88.625C19.5636 88.1459 19.3352 87.3488 19.4974 86.9071C19.4209 86.6196 18.4079 85.3607 18.4079 84.6956Z" fill="white"></path>
<path fill-rule="evenodd" clip-rule="evenodd" d="M36.7243 53.926C36.6328 54.3194 36.7164 54.763 36.7011 55.1668C36.6865 55.5527 36.6411 55.9364 36.5743 56.3166C35.8718 55.9456 35.0415 55.8979 34.2408 56.0174C33.2051 56.1719 32.0067 56.5138 31.195 57.2085C30.9946 57.3801 30.8286 57.5833 30.6895 57.8072C30.5227 58.076 30.4162 58.3796 30.1517 58.5722C29.7425 58.8701 29.2353 58.9855 28.8419 59.3156C28.4408 59.6522 28.1919 60.1554 28.1392 60.6747C28.1112 60.9511 28.1566 61.2095 28.2088 61.4791C28.2557 61.7216 28.2327 61.8212 28.169 62.0547C28.1191 62.238 28.2144 62.446 28.3698 62.5471C28.0367 62.7766 27.7081 63.0133 27.3852 63.2595C25.504 64.6929 23.9132 66.4798 22.8105 68.5823L22.7838 68.6345L22.753 68.6972C22.4842 69.2515 21.7811 70.8721 21.6937 71.2364C21.6313 71.4267 21.5708 71.6177 21.5145 71.8099C21.366 72.3192 21.2401 72.8348 21.1357 73.3546L21.1077 73.4965C21.023 73.9331 20.8772 74.4503 20.9007 74.9156C20.6565 76.1862 20.4401 77.462 20.2554 78.7432C20.2313 78.9111 20.2978 79.0474 20.4012 79.1379C20.1542 79.1778 19.9087 79.2268 19.666 79.2762L19.525 79.3059L19.4544 79.3216C18.9489 79.4361 18.4499 79.6028 18.1188 80.029C17.7618 80.4902 17.7545 81.0828 18.1131 81.5472C18.4175 81.9417 18.8622 82.1291 19.3263 82.2475C19.4179 82.2705 19.5105 82.2919 19.6031 82.3107C19.6652 82.3238 19.7061 82.2384 19.6473 82.2055L19.5488 82.1509L19.4144 82.077C19.0644 81.8833 18.7013 81.6648 18.5077 81.3154C18.2448 80.8412 18.4528 80.4022 18.9039 80.1614C19.2815 79.9596 19.7486 79.9079 20.168 79.839L20.3411 79.8103C20.7796 79.74 21.2268 79.6944 21.6693 79.7446C22.0565 79.789 22.4486 79.9214 22.7614 80.1589L22.7904 80.1817L22.8203 80.207C23.0946 80.4457 23.4891 80.9817 22.9718 81.1362C22.5764 81.2536 22.0945 81.2244 21.679 81.2472L21.6251 81.2505C21.2772 81.2743 20.9136 81.2743 20.5617 81.3162C20.4356 81.3309 20.3111 81.3515 20.1891 81.3803C19.8396 81.4634 19.9599 81.9302 20.2678 81.9631C20.3431 81.9713 20.42 81.9753 20.497 81.9771C20.6984 82.1291 20.9768 82.1982 21.2149 82.2926C21.4425 82.3831 21.6709 82.4727 21.901 82.5606C21.7028 82.5697 21.5047 82.5861 21.3074 82.6108C21.2436 82.6181 21.2428 82.7045 21.3074 82.711C21.7823 82.7595 22.2572 82.8121 22.7303 82.8786C23.463 82.9806 24.1908 83.1171 24.9022 83.3249C25.4221 83.4776 25.9358 83.6593 26.4339 83.8713L26.5846 83.9364L26.6468 83.9637C27.0989 84.1604 27.6838 84.3906 27.9436 84.8241C28.0795 85.0501 28.1392 85.3994 27.9476 85.6157C27.7427 85.8486 27.3136 85.822 27.0266 85.8333L27.0037 85.8343C26.3962 85.8639 25.788 85.8679 25.1798 85.8466C23.9051 85.8014 22.6296 85.6617 21.3778 85.4159C21.147 85.3708 21.0471 85.7184 21.2796 85.7727C22.7561 86.1171 24.2488 86.306 25.7637 86.3148L25.9297 86.3151C26.5198 86.4284 27.0986 86.5973 27.6724 86.788L27.7871 86.8264C28.1261 86.9414 28.7049 87.0557 28.9047 87.3934C29.0372 87.6178 28.9907 87.7716 28.8596 87.876C28.6288 88.0592 28.1376 88.0937 27.8986 88.1028C26.9407 88.1389 25.9821 88.1455 25.0234 88.1249C24.5444 88.1142 24.0655 88.0971 23.5866 88.0724C23.1183 88.0477 22.6182 87.9779 22.1515 88.023C21.9509 88.0427 21.8838 88.3386 22.1015 88.3938C22.677 88.5401 23.3224 88.5273 23.917 88.546L23.9854 88.5483C24.6239 88.5712 25.2632 88.5812 25.9018 88.5795C26.4499 88.5773 26.9979 88.5662 27.5454 88.546L28.0294 88.5267L28.1151 88.5226C28.3731 88.5087 28.6366 88.4789 28.8653 88.3723C29.0765 88.7274 28.9186 89.2033 28.646 89.4844C28.3865 89.7524 28.0123 89.8839 27.6538 89.9661C27.6201 89.9735 27.5866 89.9808 27.553 89.9875C26.7654 90.1485 25.9632 90.1346 25.2264 90.4978C24.6067 90.8036 24.0393 91.3131 23.3452 91.434C22.7246 91.5425 22.2735 91.268 21.9428 90.7601C21.9247 90.7321 21.9067 90.7042 21.8895 90.6762C21.6292 90.2553 21.4418 89.7919 21.1674 89.3792C21.0274 89.1688 20.8694 88.9666 20.6762 88.8023C20.5895 88.7274 19.9821 88.4036 19.887 88.3066C19.4785 87.8857 19.8404 87.0006 19.734 86.4729C19.6096 85.8589 19.0717 85.6428 18.7491 85.1668C18.136 84.2612 19.8175 83.4129 19.3148 82.4225C19.3082 82.4102 19.3001 82.4012 19.2895 82.3953C19.2453 82.3715 19.1748 82.4012 19.1789 82.4595C19.2346 83.1976 18.5338 83.7056 18.2808 84.3449C17.9927 85.0724 18.4528 85.5129 18.9227 85.9987C19.5253 86.6225 19.1012 87.3212 19.2354 88.0724C19.2529 88.1709 19.2811 88.2577 19.3177 88.3353C19.2147 88.3994 19.1353 88.5056 19.1178 88.6539C18.9112 90.4128 18.6891 92.1663 18.3264 93.9009L18.2488 94.2694L18.1449 94.761C17.8864 95.9907 17.6452 97.2253 17.5993 98.4823C17.4553 99.5432 17.3981 100.613 17.4834 101.681C17.7421 104.932 19.5523 108.333 22.8409 109.33C23.6021 109.561 24.4094 109.621 25.1904 109.46C25.458 109.404 25.833 109.283 26.1695 109.099C26.1495 109.315 26.1336 109.532 26.127 109.748C26.0161 109.872 25.9659 110.059 26.0291 110.219C26.2973 110.131 26.541 109.991 26.7605 109.799L26.7969 109.766C26.927 109.281 26.9651 108.75 26.984 108.238L26.9889 108.093C26.9939 107.951 26.9971 107.812 27.0021 107.677C27.0299 106.833 27.0102 105.987 26.9669 105.144L26.935 104.523C26.8619 103.075 26.8024 101.63 26.8424 100.178C26.8882 98.5075 27.0307 96.8438 27.2092 95.182C27.3018 94.3246 27.4065 93.4691 27.5138 92.6135C27.5997 91.9247 27.7438 91.1834 27.7462 90.4732C28.2972 90.3549 28.8383 90.1279 29.1773 89.6636C29.5367 89.1713 29.5898 88.5417 29.2706 88.037C29.5792 87.6129 29.3262 87.2135 28.9447 86.9439C29.5309 86.6142 29.8575 85.7151 29.9443 85.0897C30.0033 84.6605 30.0221 84.0186 29.8396 83.5362C30.1015 83.5453 30.3635 83.5724 30.6254 83.6176C30.9284 83.671 31.2255 83.749 31.5187 83.8461L31.6671 83.8954C31.742 83.9206 31.8263 83.9502 31.91 83.985C31.3802 84.8644 32.0606 85.6617 32.9333 85.8894C33.0994 85.9329 33.2689 85.9634 33.44 85.9879C33.8256 86.0414 34.2195 86.0578 34.6018 86.0932C35.3336 86.1605 36.0696 86.2568 36.8039 86.288C36.9653 86.2954 37.0691 86.2198 37.1183 86.1145C37.1199 86.1129 37.1207 86.112 37.1207 86.1105C37.1379 86.0825 37.1494 86.0529 37.1535 86.0217C37.151 86.0242 37.1477 86.0258 37.1454 86.0275C37.1806 85.8301 37.0626 85.5902 36.8039 85.5614C35.7437 85.4414 34.6689 85.4357 33.6055 85.3477L33.5373 85.3421C33.2035 85.3131 32.8103 85.26 32.546 85.0477C32.3004 84.8505 32.2784 84.594 32.3766 84.3623C32.3783 84.3679 32.3798 84.3745 32.3807 84.3803C32.3881 84.4263 32.4511 84.4247 32.4715 84.3926C32.5329 84.299 32.5486 84.2068 32.5329 84.1181C32.6067 84.0327 32.6958 83.957 32.7924 83.8986C33.2207 83.6373 33.7838 83.5658 34.271 83.4885C34.8039 83.4039 35.3409 83.3652 35.8788 83.3398C36.9373 83.2896 37.9992 83.376 39.0405 83.5666C39.084 83.574 39.1019 83.5132 39.0593 83.4993C38.6533 83.3644 38.2383 83.251 37.8183 83.1614C37.8281 83.1597 37.8379 83.1582 37.8477 83.1556C37.8845 83.1466 37.9108 83.1014 37.8984 83.0653C37.8969 83.0594 37.8944 83.0538 37.8919 83.0488C38.0704 82.9666 38.1449 82.6905 37.9287 82.5787C37.2551 82.2294 36.4642 82.0715 35.7249 81.9277C35.0151 81.7904 34.298 81.6942 33.58 81.6088C32.3659 81.4658 31.0421 81.4691 29.874 81.0844L29.826 81.0682C29.3502 80.9035 28.7823 80.5697 28.7491 80.0061C28.7 79.1537 29.9616 79.3757 30.4872 79.3962C31.9255 79.4513 33.3622 79.5516 34.7941 79.7061C35.0864 79.7373 35.3787 79.7693 35.6709 79.8023C36.1187 79.8523 36.5673 79.905 37.0143 79.9608C37.264 79.9921 37.5194 80.0332 37.7765 80.0727C37.8567 80.0924 37.9353 80.1064 38.0139 80.1138C38.0197 80.1145 38.0245 80.1129 38.0286 80.1105C38.4027 80.1631 38.7785 80.2033 39.1436 80.1919C39.1855 80.191 39.2116 80.1252 39.1674 80.1055C38.6958 79.905 38.1711 79.7866 37.6447 79.6937C37.3188 79.4497 36.9251 79.254 36.6017 79.065C36.158 78.8053 35.6496 78.4231 35.1461 78.2677C34.9194 78.0886 34.6624 77.9447 34.4257 77.8469C34.4936 77.7409 34.5182 77.5937 34.506 77.4697C34.4609 77.025 34.1064 76.7767 33.6971 76.6896C33.5702 76.6634 33.4236 76.6436 33.2673 76.6362C33.2641 76.5532 33.2272 76.4718 33.1454 76.411L33.1212 76.3926L33.104 76.3789C32.8293 76.1549 32.2838 75.5242 32.9407 75.4782C33.2894 75.4534 33.5842 75.7099 33.8617 75.8834C34.438 76.2442 34.9955 76.2622 35.6537 76.1726L35.9496 76.13L35.9988 76.1233C36.4746 76.0606 36.9574 76.052 37.223 76.5392C37.508 77.0603 37.6078 77.5354 38.1826 77.8223C38.7318 78.096 39.3417 78.1502 39.846 78.5266C40.3864 78.9293 40.7925 79.4948 41.2345 79.9962C42.2095 81.1008 43.3254 82.0765 44.4748 82.9938L44.6792 83.1564C45.7378 83.9963 46.8304 84.8232 48.0155 85.4702C48.0237 85.4742 48.0319 85.476 48.0392 85.476C48.0711 85.4727 48.095 85.4316 48.0662 85.4036C46.6819 84.0532 45.0626 82.9584 43.6406 81.6442C43.0103 81.0614 42.4102 80.4482 41.833 79.8121C41.3287 79.254 40.8817 78.6269 40.2939 78.1519C40.0082 77.9208 39.6995 77.7442 39.3541 77.6209C39.0315 77.5049 38.6696 77.4474 38.3725 77.2699C37.7904 76.9231 37.8469 76.1012 37.2648 75.7279C36.7657 75.4079 36.1577 75.5248 35.6044 75.6008L35.5382 75.6097C35.1797 75.6573 34.8088 75.6976 34.4666 75.5554C34.1278 75.4149 33.8551 75.1519 33.5138 75.0121C33.038 74.8157 32.3635 74.8625 32.1195 75.3877C31.8863 75.8891 32.2046 76.3428 32.5763 76.6757C32.0696 76.7677 31.625 77.0135 31.5874 77.5149C31.2157 77.5025 30.8448 77.4893 30.4733 77.4762C29.1789 77.431 27.8781 77.3438 26.5829 77.3669C26.6124 77.2345 26.6255 77.0981 26.6272 76.9592C26.6279 76.882 26.6246 76.8047 26.619 76.7258C26.6092 76.5909 26.5207 76.5096 26.3897 76.4956L26.0972 76.4643L25.9993 76.4545C25.4512 76.4025 24.8384 76.3916 24.4208 76.7553C24.1965 76.9519 24.0156 77.4039 24.1253 77.7055C23.8699 77.7935 23.6267 77.906 23.4048 78.0483C22.9652 77.9003 22.5035 77.9168 22.0615 78.0712L22.009 78.0901C21.6948 78.2059 21.2494 78.4253 21.0786 78.7382C21.4931 75.9175 22.0517 73.121 22.7538 70.3582C23.2021 69.2548 23.7684 68.2002 24.4552 67.2269C26.185 64.7743 28.6771 63.0877 30.9152 61.1488C31.1127 61.367 31.3255 61.5747 31.5244 61.7745L31.6087 61.8596C32.014 62.2717 32.4367 62.6659 32.8687 63.0494C33.7716 63.8507 34.722 64.5904 35.6655 65.3418C37.5677 66.8569 39.2875 68.4656 40.7183 70.4436C40.744 70.4792 40.8153 70.4585 40.7954 70.411C39.814 68.0688 37.7795 66.2881 35.9313 64.6358C34.9594 63.767 33.9647 62.9191 33.0302 62.0092C32.5945 61.585 32.1725 61.1462 31.7743 60.6862L31.6753 60.5708C31.415 60.2649 30.8054 59.3308 30.4025 60.0047C30.3181 60.1457 30.3218 60.326 30.4025 60.4671C30.517 60.6677 30.6623 60.8589 30.8212 61.0426C30.2563 61.3511 29.7031 61.6768 29.1619 62.0216C29.193 61.8555 29.1853 61.6719 29.1564 61.4882L29.1469 61.4299L29.1075 61.202C29.0509 60.8662 29.0219 60.5539 29.2341 60.2263C29.4995 59.8165 30 59.6887 30.3987 59.4519C30.8579 59.179 31.0978 58.8139 31.3437 58.3505C31.8147 57.4634 32.8787 57.1077 33.7932 56.8223L33.9083 56.7865C34.7533 56.5236 35.6674 56.3829 36.5123 56.6355C36.433 57.0059 36.3293 57.371 36.1997 57.7266C36.0618 58.1052 35.7467 58.5261 35.7789 58.935C35.8012 59.218 36.1393 59.5205 36.4199 59.3042C36.8172 58.9981 36.8966 58.4996 37.0032 58.0247C37.1061 57.5654 37.1719 57.095 37.1999 56.6251C37.2268 56.1722 37.2058 55.7197 37.1501 55.2699L37.1075 54.9396L37.0971 54.8629C37.0507 54.529 36.9816 54.1785 36.7946 53.9168C36.7766 53.8916 36.7325 53.8911 36.7243 53.926ZM48.2534 52.0485C48.2475 52.0752 48.2433 52.1016 48.2395 52.128C48.2122 52.2406 48.202 52.3488 48.2053 52.4575C48.2037 52.4968 48.2065 52.536 48.2138 52.5749C48.2285 52.7029 48.2592 52.8342 48.3007 52.9778C48.389 53.2833 48.4902 53.5851 48.6033 53.8824C48.8268 54.4703 49.0906 55.0313 49.4168 55.569C50.006 56.5403 50.7549 57.3465 51.638 58.0434C51.4704 58.1822 51.3066 58.3266 51.1424 58.4684C50.3491 59.1539 49.5771 59.8704 48.8295 60.6059C47.5017 61.9121 46.2006 63.2427 44.93 64.6051C44.3033 65.277 43.6883 65.9577 43.0765 66.643L43.0565 66.6661L43.0348 66.692C42.8176 66.9557 42.3834 67.5847 42.0594 67.4837C41.8959 67.4326 41.7236 67.1875 41.6121 67.0707L41.4067 66.8557C41.3385 66.7838 41.2706 66.7115 41.2039 66.6382C40.009 65.3238 38.8784 63.9589 37.8167 62.5323C37.2987 61.8362 36.7979 61.1271 36.3153 60.4056C36.0672 60.0346 35.8238 59.6604 35.5852 59.2831C35.3545 58.9181 35.1679 58.5259 34.828 58.2535C34.5784 58.0537 34.2327 58.2369 34.2956 58.5646C34.3946 59.0807 34.7504 59.5172 35.0306 59.9534C35.3119 60.3917 35.5999 60.8257 35.8944 61.2552C36.4612 62.082 37.0525 62.8915 37.6649 63.6846C38.1924 64.3677 38.7426 65.0332 39.3077 65.6852L39.4622 65.8627C40.0701 66.5585 40.6667 67.297 41.3384 67.932C41.9399 68.5007 42.5968 68.335 43.1447 67.7824C43.8377 67.0837 44.4811 66.328 45.1479 65.6038C46.4804 64.1566 47.8268 62.7203 49.187 61.2994L49.6342 60.8318C50.1556 60.2854 50.6749 59.7355 51.1806 59.1757L51.2458 59.1027C51.8225 58.4513 52.409 57.6354 53.2289 57.3042C53.2881 57.2803 53.2664 57.1958 53.2023 57.2077C52.6775 57.3051 52.2393 57.5705 51.8317 57.8877C51.4652 57.2789 51.1382 56.6372 50.8532 55.9808L51.0361 55.9011C52.3446 55.3334 53.8195 54.761 55.2244 54.853C55.7905 54.89 56.3946 55.1054 56.7855 55.5321C57.1395 55.9186 57.3163 56.4399 57.6411 56.8516C58.0132 57.3231 58.4985 57.5354 59.0941 57.5545L59.3837 57.5633C59.7168 57.5742 60.0362 57.5917 60.3741 57.6653C61.2895 57.8645 62.2546 58.1878 63.0224 58.7399C63.3009 58.9401 63.5884 59.2154 63.7231 59.5188C63.8566 59.8194 63.895 60.1711 63.908 60.4955C63.9143 60.6536 63.8671 60.8625 63.9065 61.0138C63.902 60.9965 63.9 61.0057 63.8994 61.0237C63.7767 61.1209 63.6931 61.2824 63.684 61.4433C62.9187 61.0429 62.1265 60.6919 61.3189 60.3756C60.4197 60.0234 59.4925 59.7411 58.5652 59.4738C57.6577 59.2124 56.7077 59.1042 55.7825 58.9178C55.6647 58.8941 55.6238 59.0538 55.7336 59.0962C56.706 59.4711 57.6469 59.9156 58.6274 60.2684C59.6074 60.6211 60.5801 61.0028 61.5317 61.4271C63.3711 62.2474 65.1479 63.2912 66.597 64.7075C68.0123 66.0908 69.104 67.7712 70.1193 69.4607C71.1418 71.1622 72.0543 72.9256 72.8677 74.737C74.4767 78.3205 75.6832 82.0883 76.4776 85.9368C77.2506 89.682 77.6826 93.5608 77.5387 97.3888C77.4704 99.2068 77.2492 101.026 76.7348 102.775C76.489 103.61 76.1814 104.427 75.7927 105.206C75.3828 106.027 74.8305 106.759 74.4562 107.595C74.4254 107.663 74.4136 107.729 74.4154 107.791C72.819 109.179 70.3202 108.244 68.5925 107.415C64.6171 105.506 60.7154 103.418 57.0068 101.021C53.3466 98.6553 49.8779 96.0153 46.4911 93.2751C46.7531 93.0039 46.984 92.6998 47.187 92.4245C47.6061 91.8557 47.9213 91.2113 48.1383 90.5389C48.392 89.7515 48.4707 88.909 48.3986 88.0864L48.3781 87.8537C48.3091 87.0768 48.2294 86.2885 48.0597 85.5293C48.0581 85.5195 48.0507 85.5153 48.0425 85.5153C48.0344 85.5153 48.0261 85.5203 48.0228 85.5293C47.5652 86.9998 47.5284 88.5803 47.0143 90.0318C46.8072 90.6154 46.4863 91.1792 46.1014 91.6634C45.9352 91.8729 45.7404 92.0546 45.5415 92.2321C45.5284 92.1416 45.5104 92.0521 45.4834 91.9642L45.462 91.8945C45.4353 91.81 45.4024 91.716 45.3565 91.6329C45.4212 91.614 45.4842 91.5935 45.5464 91.5704C45.5956 91.5524 45.6062 91.4727 45.5464 91.4595C45.3835 91.4217 45.2156 91.4028 45.0445 91.3946C45.0175 91.3905 44.9914 91.3897 44.9652 91.3913C44.645 91.3814 44.3192 91.4045 44.0106 91.4094C43.476 91.4176 42.943 91.4274 42.4093 91.4513C41.3876 91.4956 40.2342 91.6921 39.2288 91.4537C38.3151 91.2368 37.4146 90.6252 36.682 90.0499C36.0418 89.5469 35.548 88.9494 35.0168 88.3535C35.055 88.3595 35.0928 88.3652 35.1305 88.3705L35.4731 88.4176C35.9056 88.4755 36.4189 88.521 36.7621 88.3124C36.8932 88.2327 36.8555 88.0518 36.722 88.0025C36.3717 87.8735 35.9369 87.9803 35.5637 87.9623C35.2706 87.9482 34.9742 87.9171 34.6852 87.8562C34.5902 87.8365 34.4962 87.8135 34.4028 87.7864C33.7184 87.5883 32.9144 86.8913 33.458 86.1302C33.4785 86.1014 33.4556 86.0751 33.4278 86.0701C33.4154 86.0677 33.4023 86.0701 33.3917 86.0792C32.7729 86.5937 33.0946 87.5159 33.6799 87.9113C33.8813 88.0477 34.1088 88.1431 34.3446 88.2129C34.2996 88.2959 34.2915 88.3979 34.3455 88.4948C34.8039 89.3151 35.58 90.0359 36.307 90.6154C37.0536 91.2104 37.9148 91.7718 38.8407 92.0349C39.91 92.3372 41.0847 92.1097 42.1694 92.0135C42.7573 91.9616 43.3434 91.9 43.9303 91.8318C44.0876 91.8138 44.2504 91.7998 44.4159 91.7842C44.2603 91.9897 44.1366 92.2264 44.0556 92.3686C43.792 92.8304 44.0351 93.4387 44.546 93.58C44.5993 93.5949 44.6541 93.6031 44.7081 93.6046C44.8457 93.8816 45.1731 94.0856 45.4761 93.9811C45.6078 93.936 45.7347 93.8743 45.8566 93.8003C47.7618 95.4803 49.7675 97.0567 51.8304 98.5346C55.656 101.275 59.6659 103.778 63.8238 105.978C64.7604 106.473 65.7041 106.956 66.6558 107.419L67.4749 107.816C68.3816 108.254 69.3095 108.69 70.2724 108.961C70.4602 109.014 70.6567 109.057 70.8581 109.09C70.8607 109.108 70.8614 109.125 70.8602 109.142C71.0412 109.166 71.1992 109.17 71.3341 109.153L71.3649 109.149C72.5451 109.232 73.8076 108.942 74.5669 108.077C74.6935 108.166 74.878 108.176 75.0408 108.048C75.8597 107.403 76.3479 106.42 76.7763 105.483C77.2107 104.531 77.5512 103.54 77.8013 102.525C78.3011 100.496 78.4993 98.4039 78.5097 96.3175C78.5475 88.2775 76.5419 80.167 73.0583 72.949C72.1748 71.1184 71.201 69.3219 70.1198 67.6011C69.0417 65.8849 67.7897 64.29 66.1863 63.0383C65.7253 62.6785 65.2456 62.3495 64.7509 62.0464C65.0829 61.8812 65.2148 61.4609 65.2381 61.0876C65.2896 60.2585 65.1912 59.3034 64.7077 58.6038C64.0295 57.6225 62.8153 57.0174 61.6895 56.7231C61.1018 56.5696 60.4938 56.4801 59.8876 56.4498C59.5751 56.4341 59.2503 56.4858 58.9415 56.4519C58.669 56.4221 58.5006 56.2589 58.3439 56.0443C57.9425 55.4942 57.6812 54.9172 57.1054 54.514C56.5146 54.1003 55.7491 53.942 55.0375 53.9849C54.2084 54.035 53.452 54.3629 52.7219 54.7398C52.0628 55.0799 51.4231 55.4566 50.7997 55.8586C50.6854 55.5897 50.5778 55.3188 50.4777 55.047C50.2835 54.52 50.1146 53.9762 49.9775 53.4314C49.8386 52.879 49.8589 52.1495 49.4393 51.7341C49.0744 51.373 48.3717 51.5148 48.2534 52.0485ZM19.9704 88.9086L19.9734 88.9092C20.8221 89.4142 21.228 90.6762 21.6275 91.2277C21.5949 91.4126 21.5719 91.6008 21.5269 91.7759C21.4237 92.1779 21.2887 92.5765 21.1322 92.9595C20.8572 93.636 20.5125 94.2804 20.1941 94.9362C19.9378 95.4636 19.6867 96.0007 19.4914 96.5559C19.5126 96.5772 19.5322 96.6024 19.5488 96.6338C19.7607 97.0321 19.9265 96.9538 20.3174 96.8668L20.3177 96.866C20.5413 96.179 20.8637 95.5338 21.1535 94.8745L21.224 94.7136L21.2937 94.5525C21.5359 93.9883 21.7568 93.4189 21.8855 92.8141C21.9674 92.4286 22.0009 92.0323 22.0058 91.6386C22.2178 91.8138 22.4725 91.9395 22.7933 91.988C23.48 92.0921 24.1019 91.6604 24.6613 91.314L24.7874 91.2365C25.1377 91.0225 25.4849 90.8249 25.8887 90.7238C26.3472 90.6089 26.8212 90.6089 27.2869 90.5504C27.3427 90.543 27.3991 90.5356 27.4557 90.5267C27.2739 91.1308 27.1896 91.7867 27.0814 92.3916C26.9308 93.2398 26.808 94.0954 26.6901 94.9486C26.4609 96.6023 26.3013 98.269 26.2203 99.9368C26.1418 101.552 26.1814 103.16 26.2395 104.774L26.2686 105.562C26.2918 106.203 26.311 106.844 26.2997 107.485C26.2686 107.488 26.2375 107.493 26.2063 107.5C25.8837 107.576 25.6636 107.906 25.3688 108.053C24.7467 108.364 23.9951 108.36 23.3328 108.203C21.8265 107.844 20.5739 106.789 19.7488 105.5C18.7581 103.953 18.3946 102.132 18.4062 100.311C18.4198 98.2609 18.7505 96.301 19.2108 94.322L19.2403 94.1957C19.6277 92.5471 19.8704 88.9243 19.9704 88.9086ZM62.1512 84.7726C62.1426 85.324 62.3659 85.9137 62.4886 86.4494C62.6208 87.0266 62.7526 87.6039 62.8862 88.1809L63.0064 88.6978C63.1064 89.1286 63.2051 89.5597 63.2935 89.9931C63.3662 90.3494 63.3966 90.819 63.5157 91.2118C62.0989 90.6364 60.6798 90.0669 59.2631 89.4935C57.5177 88.7867 55.7641 88.0995 54.0147 87.4041C52.2717 86.7121 50.5386 85.9247 48.7604 85.3329C48.3372 85.1915 48.0506 85.8696 48.4559 86.0578C50.2619 86.8987 52.1727 87.557 54.0228 88.2935L56.6992 89.3602C59.1526 90.3376 61.6078 91.3102 64.0752 92.2493C65.7559 92.8889 67.4301 93.5472 69.1214 94.1545C69.9278 94.4439 70.7415 94.7176 71.5439 95.0176C72.216 95.2691 72.943 95.6423 73.1918 96.3671C73.2049 96.405 73.2565 96.3894 73.2508 96.3507C73.1501 95.6488 72.631 95.2099 72.0457 94.8778C71.2689 94.436 70.4157 94.1145 69.5957 93.7601L69.4841 93.7116C67.8097 92.9785 66.1218 92.275 64.4289 91.5833C64.4457 91.5422 64.4556 91.4981 64.4563 91.4521L64.4611 91.4534C64.4919 91.1392 64.3484 90.859 64.2452 90.5667L63.9491 89.728C63.7518 89.1695 63.5748 88.6041 63.3924 88.0406C63.2018 87.4516 63.0093 86.8632 62.8172 86.2747C62.6544 85.7763 62.545 85.1821 62.2666 84.7365C62.2331 84.6829 62.1405 84.713 62.1512 84.7726ZM29.5448 83.5329L29.5659 83.64C29.5905 83.7652 29.6136 83.8913 29.6193 84.0179C29.6357 84.3491 29.5981 84.6803 29.5104 85.0001C29.4244 85.3164 29.3042 85.6223 29.133 85.9025C28.9709 86.1663 28.736 86.3735 28.5861 86.6439C28.5707 86.6726 28.5608 86.7013 28.5567 86.7294C28.4994 86.7055 28.4429 86.6842 28.388 86.6668C27.9312 86.5214 27.4647 86.3997 26.9915 86.3086L27.0665 86.3034L27.115 86.2996C27.9056 86.2324 28.6515 85.9727 28.4904 85.046C28.3992 84.5222 27.9896 84.1709 27.5507 83.9219L27.4957 83.8913C27.472 83.8781 27.4474 83.8649 27.4237 83.8535C27.8208 83.7861 28.1089 83.7031 28.596 83.6209C28.912 83.5675 29.2289 83.5379 29.5448 83.5329ZM65.6634 72.1179C64.886 73.6949 64.3012 75.3716 63.8599 77.0727C63.6469 77.8942 63.4661 78.7238 63.3207 79.5601L63.273 79.8393L63.2458 79.9909C63.11 80.7362 62.9376 81.5437 63.137 82.271C63.2021 82.5086 63.5951 82.6026 63.7051 82.3456C64.037 81.5697 63.9903 80.6778 64.0865 79.8475C64.1876 78.9763 64.3255 78.1092 64.4975 77.2492C64.8277 75.5968 65.2912 73.983 65.8078 72.3814L65.8655 72.2035C65.9093 72.0849 65.7183 72.0067 65.6634 72.1179ZM35.7823 79.1726C36.0139 79.282 36.2456 79.3823 36.4503 79.4825C36.4658 79.4908 36.4821 79.4981 36.4986 79.5064C36.2669 79.4669 36.0344 79.4299 35.8019 79.3953C35.8043 79.3197 35.7969 79.245 35.7823 79.1726ZM26.7169 78.3828C26.7517 78.3942 26.7825 78.4125 26.8092 78.4376L26.8223 78.4508C26.8542 78.4806 26.8768 78.5159 26.89 78.5566C26.9104 78.5958 26.9199 78.6381 26.9182 78.6833L26.9065 78.7707C26.8909 78.8264 26.8629 78.8746 26.8223 78.9157L26.756 78.9671C26.7113 78.9931 26.6636 79.0078 26.6127 79.0113L26.5907 79.0121L26.5245 79.0121C26.4865 79.0108 26.4509 79.0014 26.4174 78.9837C26.3826 78.9724 26.3519 78.9541 26.3251 78.9289L26.3121 78.9157C26.2801 78.8859 26.2576 78.8506 26.2444 78.81C26.2268 78.7763 26.2174 78.7405 26.2161 78.7025L26.2161 78.6833L26.2278 78.5958C26.2415 78.5471 26.2647 78.504 26.2974 78.4665L26.3121 78.4508L26.3783 78.3993C26.423 78.3734 26.4708 78.3587 26.5216 78.3553L26.5436 78.3545H26.5907C26.6359 78.3528 26.6779 78.3623 26.7169 78.3828ZM28.847 78.2716C29.0209 78.3037 29.1196 78.5154 29.0756 78.6759C29.027 78.8537 28.8587 78.9327 28.6897 78.9084L28.6728 78.9056C28.4749 78.8691 28.2809 78.8832 28.0924 78.953C27.9266 79.0144 27.7336 78.8842 27.6896 78.7233C27.6394 78.5397 27.7518 78.3806 27.9184 78.3189C28.2172 78.2082 28.5377 78.2144 28.847 78.2716ZM63.3381 66.5959C62.942 67.1787 62.6947 67.9534 62.4507 68.6194L62.4263 68.6857C62.167 69.3856 61.9168 70.0911 61.6835 70.8003C61.2177 72.2161 60.6108 73.6976 60.4986 75.1931C60.4779 75.4691 60.8986 75.5798 61.0206 75.3351C61.3711 74.6318 61.5595 73.8987 61.7669 73.1447C61.9647 72.4256 62.1707 71.7089 62.3769 70.9922C62.5829 70.2759 62.7823 69.5575 62.9852 68.8403C63.1826 68.1426 63.4574 67.3667 63.5026 66.6406C63.5085 66.5462 63.3836 66.5288 63.3381 66.5959ZM54.3976 61.9039C53.8688 62.2724 53.4357 62.8113 52.9883 63.2722C52.5343 63.7399 52.0864 64.2119 51.6427 64.6895C50.9012 65.4876 50.1732 66.2987 49.4213 67.0871C47.9228 68.6582 46.2276 70.1039 44.1595 70.8424C43.659 71.021 43.8782 71.8273 44.3798 71.6449C46.4952 70.8749 48.2475 69.4513 49.7933 67.8407C50.5938 67.0066 51.3284 66.1153 52.0447 65.2082C52.3798 64.7837 52.7125 64.3578 53.0405 63.9279L53.2366 63.6694C53.649 63.1232 54.1535 62.5787 54.4553 61.9619C54.4723 61.9273 54.4351 61.8779 54.3976 61.9039Z" fill="#2B283A"></path>
<path fill-rule="evenodd" clip-rule="evenodd" d="M29.1023 37.3927C29.6642 30.5153 31.3752 24.424 39.4149 24.1643C43.0431 24.1969 46.7466 24.9707 50.083 26.4025C58.1923 30.4846 60.7653 45.4009 53.6208 51.4053C53.6632 51.4295 53.6735 51.4997 53.6233 51.5335C52.1472 52.5305 50.5066 53.3508 48.8633 54.04C44.4863 55.8979 39.3335 56.7049 34.8696 54.6896C28.0573 51.7794 27.9551 43.6814 29.1023 37.3927Z" fill="white"></path>
<path fill-rule="evenodd" clip-rule="evenodd" d="M15.6933 34.187C15.4133 33.9339 15.2045 33.6018 15.0989 33.2295C15.0023 32.89 14.9958 32.5194 15.0981 32.1807C15.2078 31.8174 15.4444 31.5281 15.3912 31.15C15.3854 31.1131 15.3781 31.0744 15.3666 31.0358C15.162 30.324 14.6585 29.8103 14.8386 29.0213C14.8893 28.7985 14.9851 28.598 15.1186 28.4402C15.1038 28.2692 15.0907 28.0966 15.0801 27.924C14.7845 27.2295 14.7952 26.4043 15.1104 25.7204C15.1489 25.3703 15.207 25.0235 15.2888 24.6824C15.2512 24.3807 15.3036 24.0487 15.4002 23.7848C15.5699 23.3206 15.7796 22.8631 16.0072 22.4132C15.9805 22.2902 15.9925 22.1601 16.0601 22.0445C16.1831 21.8343 16.3456 21.6496 16.5117 21.469C16.6292 21.2583 16.7475 21.0494 16.8648 20.8432C16.9191 20.7484 16.9791 20.6433 17.0453 20.5319C16.865 20.1961 16.7687 19.8688 16.9594 19.4739C17.031 19.3255 17.228 19.2161 17.3902 19.2258C17.5674 19.2364 17.7463 19.2444 17.9262 19.2512C18.2623 18.8437 18.6432 18.4779 19.0514 18.2673C19.4648 17.9155 19.884 17.5703 20.2917 17.2177C20.4071 17.1174 20.5234 17.0172 20.6388 16.9169C20.6396 16.9144 20.6404 16.9111 20.6413 16.9087C20.7264 16.5972 20.8222 16.2898 20.918 15.9807C20.9777 15.7892 20.9957 15.5887 21.1816 15.4843C21.5696 15.2665 22.1664 15.2319 22.6118 15.195C22.656 15.1555 22.7002 15.1169 22.7444 15.0774C22.5422 14.5366 22.5782 13.9621 22.8328 13.4204C22.9196 13.2363 23.2209 13.1533 23.3862 13.275C23.7677 13.5561 24.2205 13.6555 24.6683 13.6144C25.3265 13.1065 27.9814 10.8095 28.3916 10.5671C28.3967 10.5584 28.4008 10.5496 28.4062 10.541C28.6368 10.1713 28.9169 9.87444 29.2317 9.63641C29.2767 9.58932 29.3216 9.54214 29.3666 9.49496C29.327 9.21313 29.223 8.94099 29.0555 8.71332C29.0375 8.68702 29.017 8.66154 28.9965 8.63688C28.7034 8.28674 29.0612 7.83633 29.4705 8.01962C29.5 8.03277 29.5295 8.04592 29.5589 8.05989C29.8736 8.20077 30.2218 8.35389 30.5844 8.4831C30.7171 8.43321 30.8524 8.388 30.9757 8.33819L32.2967 7.80502C32.5142 7.71724 32.744 7.64285 32.9543 7.5397C33.0277 7.04992 33.5166 6.72871 34.0243 6.74548C33.995 6.65145 33.9513 6.56014 33.8897 6.47359C33.8717 6.44811 33.852 6.42345 33.8315 6.39962C33.5704 6.09469 33.9191 5.52921 34.2924 5.80044C34.3186 5.81934 34.3457 5.83825 34.3719 5.85715C34.4756 5.93022 34.5818 5.99877 34.6891 6.06518C34.8609 5.98989 35.0545 5.97271 35.257 6.05236C35.7055 6.22866 36.1189 6.40792 36.5137 6.68425C36.5298 6.69551 36.5464 6.70496 36.5626 6.71556C36.7586 6.47787 37.0698 6.31891 37.35 6.32063C37.3557 6.32063 37.3601 6.32055 37.3652 6.32047C37.5747 6 37.9587 5.81376 38.3296 5.85904C38.3046 5.39918 38.7631 4.9888 39.1805 4.93891C39.6683 4.88071 40.1079 5.16502 40.2543 5.64271C40.295 5.7757 40.3357 5.90877 40.3765 6.04184C40.7552 5.84992 41.1549 5.70288 41.5724 5.62948C42.5231 5.4623 43.4527 5.64033 44.3689 5.90532C44.4604 5.93178 44.5518 5.95899 44.6433 5.98611C44.7739 5.83414 44.8965 5.67855 45.0136 5.53332C45.2159 5.28263 45.7013 5.48318 45.6686 5.80537C45.6458 6.0277 45.7358 6.18765 45.8806 6.30132C46.0397 6.32466 46.1934 6.33173 46.4253 6.32704C46.7317 6.3208 46.8711 6.31118 47.1915 6.18576C47.3409 6.1274 47.5268 5.97395 47.6138 5.83619C47.9474 5.30795 48.7948 5.16567 49.1984 5.66934C49.6231 5.48269 50.1594 5.74011 50.3951 6.10307C50.5185 6.29285 50.7759 6.39896 51.0999 6.49019C51.3431 6.55858 51.5918 6.61036 51.8417 6.65565C51.953 6.504 52.1875 6.40233 52.3595 6.52948C52.476 6.61587 52.5891 6.70455 52.7007 6.79545C53.5611 6.91447 54.417 6.91874 55.2374 6.58192C55.932 6.29671 56.5697 7.07565 56.4551 7.72956C56.6563 7.83469 56.8745 7.90463 57.0732 8.01477C57.5067 8.25526 57.8626 8.6354 58.0796 9.08203C58.1185 9.162 58.1536 9.24321 58.1871 9.32482C58.3491 9.45724 58.5093 9.59318 58.6657 9.73661C58.926 9.60263 59.1855 9.46866 59.4458 9.33469C59.6407 9.23441 59.969 9.30428 60.0074 9.564C60.0705 9.9914 60.2236 10.3456 60.4422 10.6424C61.1528 11.0172 61.8363 11.438 62.4904 11.9056C63.2428 12.1424 64.0426 12.2804 64.7 12.4358C64.9251 12.4892 65.0479 12.7843 64.9211 12.9807C64.7868 13.1887 64.6525 13.3966 64.5191 13.6046C64.8932 13.9711 65.2444 14.3541 65.576 14.7503C66.4986 15.8517 67.2706 17.0591 67.9616 18.338C68.235 18.4489 68.5084 18.5591 68.7819 18.67C69.0455 18.7769 69.1642 19.0843 68.9505 19.3103C68.849 19.418 68.7581 19.5314 68.6804 19.6506C69.0676 20.2941 69.5236 20.881 70.1613 21.2656C70.3553 21.3824 70.5011 21.5656 70.5788 21.7736C70.6451 21.818 70.7106 21.8657 70.7753 21.9141C70.9554 22.0506 71.0643 22.3481 70.8531 22.5248C70.7049 22.6498 70.5657 22.7977 70.4478 22.9613C70.4225 23.0541 70.3963 23.1478 70.3701 23.2407C70.9628 23.7881 71.4556 24.4243 71.8257 25.1377C71.9132 25.1237 72.0033 25.1328 72.0762 25.187C72.7376 25.6777 72.7573 26.4594 72.4912 27.158C72.6517 28.2109 72.5485 29.29 72.2391 30.31C72.646 30.7177 72.8907 31.3062 72.9906 31.8733C73.1666 32.8695 73.1789 34.4015 73.2247 35.4183C73.6685 35.8481 73.9845 36.4046 74.1605 37.0029C74.3087 37.0769 74.4568 37.1509 74.605 37.2248C74.7368 37.2906 74.8334 37.464 74.8252 37.6103C74.7876 38.318 74.4969 38.8769 74.1114 39.3832C73.9746 39.7736 73.7724 40.1336 73.5072 40.4788C73.3238 40.7155 73.1445 40.9424 72.9865 41.198C72.9701 41.2235 72.9603 41.2473 72.9529 41.2637C73.0152 41.3311 73.0667 41.4429 73.1118 41.5226C73.49 42.1917 73.4957 42.9758 72.9587 43.5585C73.1609 43.7246 73.1674 44.0599 72.989 44.2654C71.8273 45.5977 70.8588 47.2177 69.2469 47.9254C69.2395 47.9377 69.2329 47.95 69.2272 47.9624C69.5539 48.7514 69.5981 49.1615 69.3312 49.9769C69.3296 49.9843 69.3271 49.9909 69.3246 49.9983C69.1822 50.4257 68.9202 51.1103 68.4479 51.2435C68.2989 51.2854 68.1523 51.3043 68.0074 51.3035C67.6325 51.6659 67.2583 52.0292 66.8842 52.3925C66.8515 52.5725 66.831 52.7542 66.8244 52.9374C66.8138 53.244 66.5265 53.4922 66.217 53.4018C66.1081 53.3698 65.5056 52.7821 65.3951 52.7854C65.3394 52.8413 65.2854 52.8972 65.2313 52.9539C65.0324 53.1635 64.7565 53.4939 64.7336 53.7133C64.6894 54.1268 64.4192 54.6002 63.9829 54.684C63.8191 54.8509 63.5572 54.901 63.3566 54.6832C63.3435 54.6692 63.3304 54.6552 63.3165 54.6429C63.2952 54.6405 63.2747 54.638 63.2534 54.6355C63.1568 54.9248 63.0602 55.2142 62.9628 55.5026C62.7721 56.0714 62.0435 56.4372 61.5261 56.1051C61.4426 56.1552 61.3607 56.2087 61.2788 56.2621C61.1544 56.3418 61.0283 56.4232 60.899 56.4996C60.8916 56.521 60.8842 56.5424 60.8777 56.5629C60.7942 56.8185 60.4471 56.9558 60.2334 56.8087C60.1671 56.83 60.0991 56.8473 60.0304 56.8613C59.6693 56.9328 59.3059 56.9131 58.9571 56.7922C58.7074 56.7068 58.4692 56.5432 58.2007 56.521C58.1839 56.5196 58.1666 56.5208 58.1496 56.5203C57.9305 56.9708 57.4299 57.3591 57.0354 57.491C56.5186 57.6639 55.9898 57.6021 55.5192 57.3904C55.3922 57.6453 55.2328 57.8866 55.0423 58.1098C54.9367 58.2331 54.7459 58.2068 54.637 58.1098C54.4302 57.9257 54.2247 57.7408 54.0196 57.5556C53.8711 57.4982 53.7212 57.4292 53.5648 57.3651C53.0758 57.1646 52.5396 57.0815 52.0873 56.7917C51.8726 56.6541 51.6706 56.4785 51.5042 56.2751C51.1909 56.0934 50.9029 55.8672 50.6436 55.6078C50.5142 55.6087 50.3792 55.5783 50.2482 55.5117C49.7005 55.2322 49.4123 54.6635 49.3869 54.0815C48.9432 53.0336 48.6813 51.9158 48.6092 50.7717C48.5863 50.3961 48.5822 50.0172 48.6108 49.6415C48.6305 49.3769 48.6968 49.2002 48.7967 48.961C48.8303 48.8829 48.8605 48.8114 48.8843 48.7325C48.8786 48.4794 48.8753 48.2262 48.872 47.9739C48.8041 47.761 48.6829 47.5629 48.5142 47.3961C48.2531 47.138 48.1336 46.6021 48.371 46.2832C48.5257 46.0769 48.6796 45.8706 48.8343 45.6643C48.791 44.7791 48.5797 43.3703 49.048 43.2224C49.0292 43.0909 48.9891 42.961 48.9662 42.8303C48.8564 42.2024 48.9219 41.641 49.2543 41.092C49.3239 40.9777 49.3828 40.8766 49.4311 40.778C49.4614 40.5972 49.4917 40.4163 49.522 40.2355C49.5687 39.9569 49.6145 39.6758 49.6538 39.3931C49.6743 39.0331 49.6931 38.673 49.7136 38.3122C49.7324 37.9802 49.7537 37.6481 49.7758 37.3152C49.7668 37.1665 49.7537 37.0177 49.7349 36.8689C49.6227 35.9821 49.2617 35.6541 48.6362 35.0377C48.538 35.0221 48.4406 35.0048 48.3448 34.9851C47.8986 34.8922 47.432 34.7484 46.9727 34.8002C46.4741 34.8561 46.028 35.0722 45.5433 34.7961C45.4009 34.7139 45.0873 34.487 45.0603 34.307C45.0587 34.2955 45.0562 34.2857 45.0529 34.2783C45.0194 34.2733 44.976 34.2692 44.949 34.2684C44.5642 34.2552 44.1966 34.4073 43.8086 34.3654C43.3493 34.3161 42.9383 34.1114 42.6682 33.8081C42.3219 33.8936 41.9682 33.9322 41.6088 33.8846C41.3076 33.8451 41.0374 33.7465 40.7705 33.6002C40.5765 33.495 40.6379 33.4646 40.4267 33.55C39.9461 33.7457 39.5114 34.0037 38.9703 33.8698C38.6895 33.8007 38.4472 33.6487 38.2433 33.444C38.195 33.3963 38.1131 33.3248 38.0583 33.2574C37.8012 33.3881 37.1545 33.6832 37.0481 33.7095C36.7468 33.7835 36.4275 33.772 36.1344 33.6733C35.9191 33.601 35.6555 33.4037 35.4664 33.3635C35.2216 33.3109 34.678 33.6528 34.3858 33.7703C33.8733 33.9766 33.3305 34.0276 32.8115 33.8147C32.633 33.7415 32.2859 33.4498 32.1525 33.4522C31.9355 33.721 31.3297 35.1914 31.148 35.7281C30.412 37.898 30.2212 44.6731 30.561 46.4015C30.5741 46.4525 30.588 46.5026 30.6019 46.5536C31.0194 48.0569 31.4541 49.5857 32.1525 50.9862C32.8115 52.3062 33.7227 53.4947 35.0301 54.2155C36.3858 54.9635 37.9772 55.1599 39.5016 55.0588C40.4832 54.9947 41.4484 54.7966 42.398 54.5484C42.8941 54.4194 43.3861 54.2755 43.8757 54.1259C44.0894 54.061 44.3063 54.0002 44.5159 53.9246C44.8859 53.7906 45.08 53.7799 45.4344 53.9517C45.757 54.1079 45.8397 54.5689 45.6719 54.8591C45.3984 55.3325 44.8974 55.3654 44.4136 55.5035C43.9207 55.644 43.4263 55.7788 42.9285 55.8996C41.9748 56.1298 41.0055 56.3065 40.028 56.3878C38.2777 56.535 36.4742 56.3081 34.8811 55.5413C34.701 55.4542 34.5274 55.3613 34.3596 55.261C34.4218 55.3481 34.4848 55.4352 34.5487 55.5215C34.7255 55.7607 34.5945 56.1676 34.3465 56.2983C34.2679 56.3394 34.1893 56.3788 34.1099 56.4174C34.0992 56.4429 34.0878 56.4684 34.0747 56.4939C33.8479 56.9509 33.3731 57.2205 32.8893 57.3372C32.3146 57.4753 31.6711 57.3774 31.0866 57.3602C30.5446 57.3437 30.0027 57.3273 29.4615 57.3109C29.3338 57.3076 29.2061 57.3035 29.0784 57.2994C28.4349 57.2796 27.7923 57.2607 27.1496 57.241C26.5766 57.2237 26.6036 57.2681 26.0657 57.038C25.8258 56.9344 25.6294 56.7881 25.464 56.5933C25.3608 56.5473 25.261 56.4947 25.1652 56.4347C24.8574 56.2424 24.5839 55.9843 24.3318 55.6999C23.9036 55.8355 23.3035 55.7098 23.22 55.1698C23.0858 54.3059 21.9675 53.9369 21.4452 53.3122C21.0236 52.8084 20.7223 52.1484 20.7379 51.5147C19.6752 50.9985 19.0973 49.6383 18.9622 48.4843C18.8991 47.9492 18.909 47.3763 18.8181 46.8322C18.778 46.7887 18.742 46.7426 18.7117 46.6933C18.4448 46.2602 18.2123 45.8139 18.0076 45.3569C17.7293 45.1555 17.3944 45.0314 17.0441 45.0109C16.1828 44.9607 16.0207 43.7944 16.8418 43.5133C16.8459 43.5117 16.8492 43.5109 16.8533 43.5092C16.6306 42.9503 16.6495 42.2887 16.9196 41.7594C16.9082 41.7018 16.8975 41.6451 16.8869 41.5876C16.426 41.0903 16.1615 40.3991 16.191 39.7259C15.9806 39.5772 15.7448 39.4621 15.487 39.3906C15.0883 39.2804 15.0858 38.7922 15.3805 38.5736C15.4992 38.4857 15.5975 38.3829 15.6793 38.2695C15.4755 37.6547 15.5557 36.9437 15.9724 36.4391C15.708 36.0988 15.4436 35.7585 15.1791 35.4183C15.0039 35.1931 14.9114 34.8109 15.1791 34.5972C15.3502 34.4599 15.5213 34.3235 15.6933 34.187Z" fill="#2B283A"></path>
<path fill-rule="evenodd" clip-rule="evenodd" d="M41.8871 45.4092C40.4838 45.2382 39.1235 45.6696 37.7515 45.887C37.0272 46.0017 36.302 46.0874 35.5689 46.1193C35.4215 46.1257 35.274 46.1295 35.1264 46.1325C35.1127 46.0021 35.04 45.8824 34.8825 45.8107C34.5597 45.6637 34.3013 45.5975 33.9468 45.6117C33.6224 45.6245 33.2967 45.658 32.9772 45.7167C32.3971 45.8235 31.8143 46.0659 31.3899 46.4869C30.4078 47.4611 30.5573 49.026 31.3162 50.0871C32.8841 52.2798 35.7457 52.3815 38.1966 52.3529L38.4228 52.35C40.6544 52.3179 43.8472 52.652 44.8611 50.1029C45.2339 49.1655 45.1821 48.079 44.7256 47.18C44.1811 46.1076 43.035 45.5491 41.8871 45.4092ZM34.9163 49.0601L34.9363 49.0609C35.9652 49.1007 36.994 49.1287 38.0234 49.1469C37.9926 49.4124 37.9612 49.6779 37.9252 49.9427C37.897 50.1512 37.8668 50.3593 37.8354 50.5673C37.8221 50.6553 37.7732 50.792 37.787 50.8792L37.792 50.9137C37.7391 50.9377 37.6912 50.9763 37.6555 51.0324C37.6431 51.0518 37.6341 51.0714 37.6251 51.0909C36.8258 51.0972 35.9657 51.0817 35.1509 50.9358L35.1493 50.918C35.1345 50.8135 35.0912 50.7432 35.0337 50.6949C34.9765 50.3617 34.9817 50.0066 34.9595 49.676C34.9457 49.4706 34.9308 49.2654 34.9163 49.0601ZM38.8097 49.161C39.5513 49.1737 40.2932 49.1834 41.0346 49.1743L41.3712 49.1691C41.3002 49.552 41.2228 49.9335 41.1585 50.3189C41.0914 50.7206 41.4436 50.976 41.7484 50.9657C41.7142 50.9713 41.68 50.9771 41.6458 50.982C40.6935 51.1172 39.7048 51.0813 38.7384 51.0802C38.7904 50.7756 38.7693 50.4318 38.7771 50.1775L38.7785 50.1381C38.7933 49.8123 38.8037 49.4866 38.8097 49.161ZM43.847 49.0907C43.8213 49.2898 43.7712 49.4847 43.6963 49.6661C43.3798 50.4324 42.654 50.7901 41.8861 50.9407C42.0194 50.8945 42.1252 50.7835 42.1519 50.5935C42.2184 50.1208 42.2424 49.6404 42.2442 49.1604C42.7793 49.1554 43.3181 49.144 43.847 49.0907ZM32.1255 48.9271C32.5065 49.0174 32.9493 48.976 33.3231 48.9931C33.6733 49.009 34.0237 49.023 34.3739 49.0372C34.3574 49.2772 34.3413 49.5172 34.3238 49.7571C34.3013 50.0671 34.2992 50.3948 34.24 50.7035C33.5352 50.462 32.9036 50.0747 32.4298 49.4554C32.3118 49.3012 32.2061 49.1201 32.1255 48.9271ZM42.0481 46.6666C42.6824 46.8174 43.2826 47.1359 43.6052 47.7186C43.7967 48.0644 43.8809 48.4742 43.8648 48.878C43.3287 48.8153 42.7834 48.7916 42.2408 48.7719C42.239 48.6738 42.2367 48.5758 42.2337 48.478L42.2254 48.2274C42.2106 47.7493 42.2031 47.149 42.0481 46.6666ZM38.7653 46.725L39.0445 46.6935C39.82 46.6048 40.5951 46.5116 41.3707 46.565C41.4829 46.5728 41.5969 46.5851 41.7111 46.6019C41.574 47.0985 41.5855 47.6817 41.5283 48.1734C41.5061 48.3634 41.4782 48.552 41.4472 48.7398L41.3127 48.7335C40.4805 48.6882 39.6475 48.6603 38.8147 48.6271C38.8147 48.4702 38.8139 48.3131 38.8114 48.1559L38.8083 47.9988C38.7988 47.5974 38.8246 47.1452 38.7653 46.725ZM34.871 46.6612C35.6832 46.7929 36.5227 46.8209 37.3206 46.8218C37.6392 46.8223 37.9577 46.8026 38.2761 46.7743C38.2553 46.9444 38.2446 47.1166 38.2289 47.2844C38.1975 47.6235 38.1616 47.9621 38.1225 48.3004L38.0877 48.5963C37.064 48.5497 36.0405 48.4994 35.017 48.4472L34.8726 48.4394L34.8321 47.8706C34.8046 47.4913 34.7743 47.1121 34.7315 46.7345L34.7636 46.7228C34.8013 46.7073 34.8371 46.6858 34.871 46.6612ZM34.5183 46.8024C34.4735 47.3388 34.4487 47.8773 34.4158 48.4145L33.7411 48.3784C33.6287 48.3722 33.5163 48.3659 33.4038 48.3594C32.9666 48.3341 32.4048 48.2012 31.9726 48.3252C31.9396 47.9307 32.0519 47.5464 32.4066 47.2814C33.0291 46.8159 33.8218 46.9816 34.5183 46.8024ZM36.8233 42.0079C35.8187 41.4302 33.2979 40.8399 33.1383 42.6551C33.0649 43.4904 33.6834 44.1825 34.4057 44.4913L34.4329 44.5027C35.1103 44.7824 36.311 45.0981 36.8973 44.4918C37.3852 43.9872 36.738 43.0823 36.1317 43.4957C35.8202 43.7081 35.1643 43.5516 34.8166 43.4506L34.7949 43.4442C34.4197 43.3335 33.9195 42.9791 34.0746 42.5153C34.2119 42.105 34.7961 42.0301 35.162 42.0168C35.7081 41.9971 36.2396 42.1244 36.7807 42.1659C36.8664 42.1724 36.8928 42.0478 36.8233 42.0079ZM32.6617 39.089C31.2981 39.0249 30.4499 40.5197 30.7635 41.7444C30.8176 41.9557 31.0531 42.1632 31.2804 42.1394L31.3376 42.1341C31.3667 42.1313 31.3959 42.1276 31.4228 42.1202C31.6386 42.0602 31.8321 41.8348 31.8163 41.6012L31.8122 41.5332C31.7803 40.9546 31.8428 40.288 32.5277 40.1479C33.1085 40.0291 33.4328 40.5904 33.4397 41.107C33.441 41.1987 33.5436 41.2628 33.6244 41.2134C34.0443 40.9569 34.117 40.4466 33.9566 40.0071C33.7534 39.4503 33.2447 39.1164 32.6617 39.089ZM42.7806 39.4096C41.7883 39.0772 40.7177 39.6083 40.2373 40.489C40.0687 40.538 39.9004 40.6685 39.9238 40.8682C39.9576 41.1555 40.0085 41.3367 40.207 41.5546C40.5174 41.8954 41.0987 41.7212 41.2277 41.3016L41.2332 41.2826C41.3797 40.7402 41.9744 40.3824 42.5161 40.5722C43.1489 40.794 43.1306 41.465 43.5744 41.8559C43.6266 41.9018 43.6891 41.9092 43.7517 41.8788C44.2232 41.6501 44.1384 40.9616 43.9704 40.5676C43.7499 40.0506 43.3214 39.5907 42.7806 39.4096ZM44.132 36.3844C43.3279 35.5606 41.2311 34.7635 40.6811 36.2847C40.5763 36.5744 40.7994 36.965 41.0998 37.0251C41.5918 37.1234 42.0284 36.909 42.5171 36.9475C42.9128 36.9788 43.3254 37.1115 43.6418 37.3576C44.5179 38.0391 44.7106 39.1919 45.3211 40.0593C45.3508 40.1016 45.4085 40.0838 45.414 40.034C45.553 38.7711 45.0127 37.2865 44.132 36.3844ZM33.6453 35.5735C33.1117 35.3843 32.5075 35.4005 31.9711 35.5683C31.4308 35.7374 30.9347 36.0586 30.5526 36.4783C30.3792 36.6688 30.2187 36.8791 30.0901 37.1029C30.0217 37.2215 29.9498 37.4665 29.8721 37.6124C29.4518 37.856 29.2721 38.4113 29.6484 38.8063L29.6654 38.8236L29.7158 38.8737C29.9181 39.0748 30.2231 39.1619 30.4992 39.0816C31.1171 38.9021 31.1922 38.4134 31.4061 37.8948C31.5474 37.5522 31.7895 37.2491 32.083 37.0265C32.7767 36.5004 33.914 36.3328 34.7491 36.5807C34.7936 36.594 34.8458 36.5371 34.8141 36.4958C34.6559 36.29 34.5647 36.1211 34.3528 35.9551C34.1378 35.7866 33.903 35.6649 33.6453 35.5735Z" fill="#2B283A"></path>
<path fill-rule="evenodd" clip-rule="evenodd" d="M28.3857 42.3356C29.1372 43.2782 32.0792 44.3246 33.645 43.1887C35.2108 42.0528 35.8296 41.2612 36.0389 39.8419C36.0612 39.6906 36.3338 39.5899 36.449 39.6974C37.0942 40.299 37.5119 41.0653 37.9256 41.8336C38.3923 42.7001 38.852 43.5719 39.7 44.1584C41.2021 44.9668 43.9196 45.082 44.7224 44.7254C46.2604 44.0423 47.477 42.5814 47.7536 40.571C47.7536 40.571 48.035 39.6793 48.2815 39.4916C48.5152 39.3137 49.8048 39.1553 49.9461 39.129C52.492 38.6547 55.712 38.3524 57.9796 40.0209C58.2865 40.2072 59.3371 40.9068 59.3526 40.7348C59.3636 40.0609 58.6029 38.5356 56.873 37.8099C54.7337 36.9124 51.5536 36.8599 49.7113 37.0579C49.6186 37.0679 49.3027 36.99 49.2804 36.9803C46.4893 35.7671 43.2778 36.0893 40.2913 36.5992C39.8634 36.6826 36.0323 37.635 34.5084 37.0579C31.9889 36.0253 29.3026 35.2771 26.5818 35.5715C26.5591 35.5739 26.2156 37.6671 26.4832 37.8099C26.6961 37.9235 27.0584 38.2147 27.1871 38.374C27.3022 38.5165 27.3747 38.6936 27.3683 38.939C27.3165 40.3584 27.7199 41.5004 28.3857 42.3356ZM38.745 41.0691C38.4255 40.6051 38.3247 39.5628 38.4584 38.8024C38.5261 38.4174 38.6576 38.111 38.8227 37.9584C38.9324 37.857 39.0575 37.8093 39.194 37.8164C39.2689 37.8203 39.3499 37.8416 39.4357 37.8881C40.5977 37.2571 42.0053 37.0299 43.3396 37.0952C44.4018 37.095 45.1597 37.3467 45.6736 37.7385C46.292 38.21 46.5706 38.8878 46.5867 39.6228C46.6059 40.495 46.249 41.4492 45.6636 42.2042C45.1033 42.9268 44.3368 43.4626 43.5052 43.5862C42.5613 43.7743 41.5993 43.5923 40.7629 43.1471C39.9051 42.6905 39.1805 41.9571 38.745 41.0691ZM29.4303 41.5611C28.8919 40.9223 28.5339 40.0913 28.4794 39.268C28.4298 38.5187 28.6297 37.7765 29.1822 37.1631C29.6832 36.7314 30.5684 36.7243 31.4996 36.9647C32.7037 37.2755 33.9493 37.9702 34.3646 38.4188C34.4624 38.4703 34.5532 38.56 34.6323 38.7523L34.6328 38.8209C34.7586 39.4033 34.684 39.9944 34.4664 40.5397C34.23 41.132 33.8246 41.6696 33.3303 42.0799C32.6736 42.623 31.9881 42.7893 31.3465 42.7016C30.6197 42.6022 29.9438 42.1703 29.4303 41.5611Z" fill="white"></path>
<path fill-rule="evenodd" clip-rule="evenodd" d="M34.5951 36.8271C32.0437 35.7813 29.3165 35.0275 26.5555 35.3262C26.3271 35.239 26.0437 35.3125 25.9425 35.6366C24.9591 38.6444 27.1522 37.808 27.1227 38.9324C26.8928 45.2367 35.3328 46.3133 36.2818 39.8779L36.2993 39.8882C37.6646 41.1674 37.9522 43.2489 39.5607 44.3614C42.8053 46.7437 47.4047 44.8562 47.9954 40.6151L48.0083 40.5577C48.2066 39.6922 48.4437 39.4775 49.4217 39.4818L49.5762 39.451C52.1172 38.9483 55.501 38.4967 57.8415 40.2252C58.3505 40.5224 58.3744 41.2865 58.8045 41.6185C59.2758 41.7104 59.5661 41.1413 59.598 40.7476C59.6727 36.8218 52.6755 36.5394 49.5419 36.8763C49.482 36.8141 49.3542 36.8218 49.3112 36.8993C46.4771 35.6674 43.2843 35.8379 40.2498 36.356C38.3701 36.7213 36.5135 37.5535 34.5951 36.8271ZM26.8095 36.051C28.3405 35.9741 29.7566 36.0582 31.2593 36.4276C32.0513 36.6195 32.6591 36.862 33.4172 37.1537C38.1456 39.2569 38.691 35.5184 49.29 36.9839C49.1529 37.5736 49.1277 38.1574 49.1203 38.7113C46.9562 38.6238 47.4657 40.6984 46.6549 42.1557L46.63 42.1996C45.4483 44.3258 42.6599 45.3175 40.4107 43.9073C38.5341 42.8092 38.3511 40.0241 36.4827 38.9188C34.8632 38.8548 35.5101 41.0494 34.6287 41.9513C33.3881 43.6133 30.7511 43.8457 29.1955 42.2824C28.4657 41.5302 28.0778 40.5751 28.0563 39.549C28.0156 38.8935 28.1276 38.2273 27.634 37.7662C27.2879 37.4133 26.6731 37.5311 26.6025 36.9976C26.5577 36.6821 26.6883 36.3399 26.8095 36.051ZM43.448 36.9102C41.9272 36.835 40.318 37.1002 39.0122 37.849C38.0456 37.0767 37.8088 40.1459 38.4503 41.0337C39.3747 42.9325 41.5267 44.1809 43.5988 43.7663C46.8314 43.296 49.0837 36.9045 43.448 36.9102ZM39.105 38.0548L39.1878 38.0427C40.5887 37.8281 44.4032 36.8338 45.8745 38.4031C47.3023 41.006 43.68 45.3781 39.9104 41.8956C38.8613 40.8233 38.4547 39.5229 39.105 38.0548ZM34.6655 38.3875C33.94 37.525 30.2425 35.7781 28.9537 36.8992C26.6014 39.5458 30.3318 44.8992 33.4563 42.291C34.497 41.4192 35.1816 40.0302 34.882 38.6851L34.8815 38.6287C34.8809 38.6083 34.8771 38.6129 34.8553 38.5875C34.8168 38.4858 34.7473 38.4209 34.6655 38.3875ZM28.9865 39.9916C28.1932 35.6719 31.5087 37.3141 34.2316 38.467C34.0854 38.6011 34.0861 38.7841 34.1281 38.9346C34.4153 42.1397 30.5351 43.956 28.9865 39.9916ZM49.5969 37.0862C50.7326 37.4724 58.2447 36.7818 58.9387 40.3172C58.2062 39.1257 56.689 38.6528 55.3251 38.3962C53.47 38.0471 51.625 38.2493 49.7958 38.6166L49.758 38.2365C49.7175 37.8334 49.6747 37.4563 49.5969 37.0862Z" fill="#2B283A"></path>

</svg>