<svg width="128" height="124" viewBox="0 0 128 124" fill="none" class="cb-ar cb_af">
<path fill-rule="evenodd" clip-rule="evenodd" d="M120.651 74.3221C121.765 73.7429 122.853 73.1136 123.924 72.4586C124.678 72.0094 124.011 70.8779 123.237 71.2867C122.842 71.4959 122.448 71.7071 122.052 71.9149C122.363 71.6481 122.652 71.3576 122.911 71.0409L122.893 71.0232C123.89 70.1338 122.609 68.4557 121.475 69.1863C120.475 69.908 119.466 70.6443 118.318 71.1196C115.941 72.1233 113.318 72.2894 110.766 72.3184C109.832 72.2485 108.94 72.4096 108.034 72.5891C108.39 71.1702 109.279 70.0988 109.75 68.7246C110.098 67.3372 108.087 66.3921 107.374 67.7257C107.199 68.0532 107.032 68.3845 106.869 68.7174C105.328 70.1128 102.755 69.9899 101.201 71.4881C100.316 72.2703 99.8827 73.3316 99.7116 74.3968C99.5954 75.1201 99.776 75.8452 99.3367 76.4859C97.213 79.4765 93.8574 84.2035 92.1532 87.4947C90.9466 79.6739 87.7249 70.0005 84.3965 62.8493C83.2959 60.5623 82.0367 58.3275 80.3838 56.3889C80.5711 55.7424 79.9098 54.5948 79.4893 54.9481C78.1949 53.3738 75.9068 52.9662 74.0669 52.1836C71.5833 51.1262 69.5227 48.9285 68.5098 46.4306C67.2083 41.6738 64.0044 41.0696 59.561 41.2798C55.3086 41.2745 52.1624 43.0853 51.2345 47.3951C49.3495 50.6663 44.8989 50.1253 41.697 50.9913C39.3503 51.525 37.073 52.3502 34.9087 53.3978C32.501 51.124 23.8779 60.6668 23.0941 63.1227C23.5555 63.2118 24.0141 63.3189 24.4686 63.4495C24.8733 63.566 24.7034 64.1747 24.2952 64.0773C23.7872 63.9558 23.2759 63.8722 22.7623 63.8141C22.7466 63.8631 22.7329 63.9117 22.7227 63.9597C22.665 63.9558 22.6074 63.9509 22.5498 63.947C22.6776 64.0133 22.8007 64.0902 22.9206 64.1894C23.2104 64.429 22.8331 64.8914 22.5251 64.7005C22.2349 64.4843 21.8549 64.5185 21.5068 64.4459C21.4861 65.1585 18.9322 64.3613 18.5355 64.1251C16.7724 63.9056 14.9585 64.1412 13.3126 63.2946C11.1225 62.8354 8.91601 62.3277 6.75053 61.7429C6.17725 61.9653 5.63846 62.7616 6.0938 63.3458C6.34992 63.6117 6.02069 64.0458 5.6982 63.8569C4.6166 63.223 3.78013 62.2336 3.07096 61.1677C2.73715 60.8324 2.14462 60.9045 1.69613 60.7654C1.63618 60.8726 1.60082 60.9922 1.60137 61.1148C-0.301035 61.4265 1.05605 63.4952 2.01242 64.1398C1.50508 64.4687 1.48582 65.1127 1.53021 65.6506C1.42271 65.8421 1.38681 66.0796 1.48038 66.2943C1.83812 67.115 2.61181 67.8062 3.2001 68.4712C3.84965 69.2056 4.4288 69.944 5.21914 70.5393C8.23165 72.8256 11.867 74.1038 15.5966 74.6037C16.9208 74.8062 18.8256 75.1161 19.6455 76.2309C19.4443 77.554 19.075 78.8229 18.7398 80.1131C18.2712 81.8257 18.3031 83.6186 18.2969 85.3646C18.2314 85.3122 18.1056 85.323 18.0869 85.4228C17.9779 86.1466 17.8969 86.8866 17.455 87.4947C17.0677 88.6256 16.8099 89.8318 16.6651 91.0198C16.085 96.6522 15.9465 102.451 17.2545 107.995C17.7592 110.052 18.5801 112.007 19.6986 113.807C20.0321 114.344 20.5683 114.501 21.0497 114.396C22.6611 115.229 24.691 115.497 26.4278 115.285C32.3489 113.616 30.2858 117.635 38.5877 116.404C52.9177 114.587 67.3997 118.158 81.6992 116.061C82.0514 118.77 86.6618 117.993 88.2632 116.848C93.0651 113.294 95.4494 102.041 97.8592 96.3331C99.5157 91.834 102.29 83.8652 105.922 80.8461C107.011 79.9979 108.328 79.5514 109.645 79.191C114.562 77.9296 119.497 76.7368 124.423 75.5104C125.259 75.3056 125.108 73.8872 124.215 73.9782C123.03 74.0989 121.84 74.2083 120.651 74.3221Z" fill="white"></path>
<path fill-rule="evenodd" clip-rule="evenodd" d="M11.2016 73.4784C10.8687 73.4373 10.5423 73.3192 10.2181 73.226C9.72301 73.0819 9.23775 72.914 8.76011 72.7223C7.77436 72.3292 6.81799 71.8644 5.92147 71.2957C4.47331 70.376 3.1938 69.1974 2.22873 67.7784L2.16247 67.6794C1.61152 66.8439 0.595218 64.9886 1.73477 64.3542C1.00032 63.7432 0.306164 62.6459 0.345333 61.7988C0.400822 60.6007 1.87618 60.6171 2.63888 61.125C3.13828 61.4576 3.51256 61.9234 3.88792 62.3817C4.30355 62.8907 4.74746 63.376 5.20878 63.8429C5.33118 63.9664 5.45481 64.0874 5.58058 64.2065L5.70708 64.3249C5.68751 64.2784 5.6701 64.2307 5.65487 64.1819C5.40027 63.3923 5.70383 62.3643 6.49699 62.0025C6.98238 61.781 7.48648 61.9162 7.95684 62.1043L8.02893 62.1336C8.66215 62.3945 9.303 62.6254 9.96234 62.8106C12.6497 63.5656 15.4547 63.6913 18.2084 64.0683C19.2693 64.2145 20.3497 64.3985 21.405 64.6694C21.8076 62.9676 22.7944 61.3363 23.865 59.9942C28.9918 53.5737 37.4468 51.4517 45.1815 50.0782C45.8865 49.9536 46.4709 50.883 46.881 50.6631C47.659 50.2471 48.3433 49.6578 48.9439 49.0176C50.2245 47.6517 51.133 46.0452 52.2004 44.5232C52.7281 43.7715 53.9423 44.4442 53.4527 45.2512L53.2128 45.6456C52.2253 47.2611 51.1316 48.926 49.7153 50.1789C48.9624 50.844 48.1268 51.3694 47.1715 51.6975C46.448 51.9456 45.4329 52.1547 44.6408 51.9141L44.5457 51.7763C44.5772 51.8224 44.6089 51.8683 44.6408 51.9142C46.708 54.8964 49.3018 57.4203 52.0349 59.8024C54.7937 62.2054 57.7698 64.3573 60.7637 66.4614L61.0133 66.6366C65.8908 63.0945 70.0111 58.4744 72.902 53.1958C72.2961 53.1231 71.6966 52.7365 71.1787 52.4482C70.5553 52.0996 69.9688 51.6835 69.5118 51.1289C68.5163 49.921 68.6458 48.3644 68.4663 46.8988C68.4554 46.8078 68.5761 46.785 68.6316 46.8305C69.1713 47.2768 69.3606 48.008 69.5858 48.6396C69.8339 49.3339 70.1146 49.906 70.6836 50.3944C71.2135 50.8495 71.8598 51.1841 72.4876 51.482C72.8113 51.6348 74.4185 52.0276 74.6016 52.353C77.3782 51.7041 80.083 52.8252 82.1405 54.7166C84.1283 56.544 85.5873 58.9196 86.8755 61.2648C88.2497 63.7671 89.3758 66.3755 90.3463 69.0565C91.3299 71.7777 92.0839 74.5584 92.4984 77.4225C92.8483 79.8372 93.0629 82.2898 93.2017 84.7315L93.2187 85.0367C95.2729 81.827 97.3782 78.6509 99.527 75.503C99.0385 74.2042 99.5792 72.8783 100.494 71.8752C101.508 70.7649 102.911 70.2492 104.252 69.6491L104.429 69.5697C105.075 69.2761 105.72 68.9527 106.278 68.5128C106.816 68.0882 107.211 67.5032 107.776 67.1122C108.599 66.5424 110.092 66.6637 110.13 67.9083C110.149 68.592 109.854 69.3415 109.585 69.9557C109.279 70.6502 108.867 71.2794 108.377 71.8579C108.354 71.8848 108.33 71.9061 108.304 71.9229L108.286 71.9348C108.962 72.0464 109.645 72.1363 110.34 72.1677C111.742 72.2316 113.16 72.1287 114.533 71.834C115.939 71.5329 117.301 71.0434 118.565 70.3608C119.646 69.778 120.647 69.0241 121.874 68.8464C121.987 68.8291 122.101 68.8183 122.219 68.8118C122.415 68.801 122.61 69.0306 122.533 69.2233C122.491 69.3296 122.446 69.4347 122.397 69.5408C121.973 70.4713 121.322 71.3739 120.51 72.0591L120.447 72.1113C120.734 72.0128 121.015 71.9023 121.293 71.7777C122.924 71.0465 124.404 69.9416 126.152 69.4975C126.235 69.4758 126.318 69.4563 126.402 69.4379C126.943 69.322 127.228 69.9069 126.91 70.3077C126.859 70.3727 126.808 70.4366 126.755 70.5006C125.975 71.4646 125.114 72.3594 124.165 73.1631C123.84 73.4383 123.505 73.7048 123.163 73.9594C123.019 74.0673 122.874 74.1729 122.728 74.2768L122.656 74.3276C122.827 74.2075 122.996 74.0851 123.163 73.9594C124.234 73.6365 125.289 73.2541 126.322 72.8307C126.732 72.6627 127.051 73.0765 127.094 73.4166C127.24 74.5563 125.969 75.3807 125.142 75.9287C124.313 76.4791 123.4 76.8972 122.466 77.2329C120.669 77.8795 118.781 78.1731 116.897 78.4362L115.982 78.5631C112.359 79.0675 108.575 79.6705 105.976 82.477C104.519 84.0498 103.533 86.0039 102.631 87.9267C101.73 89.8474 100.939 91.8189 100.189 93.8013C99.4106 95.8528 98.7327 97.9424 98.0125 100.015C97.351 101.917 96.5608 103.796 95.7782 105.655L95.6547 105.949C93.9933 109.9 92.0088 113.622 89.243 116.922C88.7872 117.467 88.0506 116.694 88.4716 116.154C91.3647 112.441 93.3775 108.059 95.0389 103.688C95.7951 101.699 96.4283 99.6626 97.1551 97.6629L97.5876 96.475C98.1651 94.8914 98.7476 93.3099 99.3551 91.7388C100.124 89.7509 100.97 87.787 101.937 85.887L102.04 85.6869C102.987 83.8539 104.112 82.0474 105.66 80.6603C108.447 78.1625 112.156 77.5632 115.742 77.0886L116.87 76.9406C118.386 76.7401 119.907 76.5186 121.381 76.115C122.232 75.8833 123.063 75.5864 123.844 75.1769C124.155 75.0144 124.459 74.8358 124.753 74.6408C123.915 74.8856 123.065 75.0859 122.2 75.243C121.777 75.3199 121.358 75.3774 120.94 75.4175C119.864 75.5235 118.797 75.5192 117.695 75.4619C117.601 75.4563 117.571 75.3102 117.671 75.2918C118.438 75.1559 119.207 74.986 119.972 74.8016L120.202 74.7458C120.206 74.6191 120.256 74.4847 120.36 74.357C120.741 73.8955 121.465 73.6593 121.966 73.3332C122.492 72.992 123.001 72.6238 123.486 72.2294C123.93 71.8688 124.357 71.4874 124.767 71.0888L124.89 70.9685C124.849 71.0088 124.808 71.0489 124.767 71.0888C123.659 71.598 122.609 72.2511 121.453 72.6542C120.533 72.9758 119.569 73.1924 118.597 73.2693L118.536 73.2741L118.476 73.278C117.461 73.3506 116.439 73.3214 115.439 73.5402C115.327 73.5651 115.292 73.4156 115.393 73.3733C116.266 73.0115 117.175 72.8718 118.093 72.7028C118.113 72.6313 118.163 72.5674 118.25 72.5262L118.485 72.4145C119.184 72.08 119.836 71.7423 120.418 71.1992C120.932 70.7194 121.359 70.1583 121.68 69.5365C120.395 69.817 119.267 70.7865 118.098 71.3314C116.825 71.9261 115.478 72.3529 114.095 72.5957L113.937 72.6226C111.351 73.0521 108.24 72.9973 105.923 71.6585C105.849 71.6152 105.903 71.5168 105.979 71.5286C106.636 71.6358 107.287 71.7625 107.937 71.8752C107.81 71.7593 107.754 71.5513 107.9 71.3845C108.485 70.7178 108.947 69.9557 109.242 69.1218L109.299 68.9587C109.435 68.5719 109.665 67.9713 109.43 67.6224C109.206 67.2898 108.678 67.3353 108.363 67.4761C107.707 67.7708 107.27 68.5064 106.718 68.9504C106.115 69.4357 105.43 69.7954 104.728 70.1171L104.58 70.1841C103.366 70.7277 102.069 71.1853 101.114 72.1449C100.601 72.6606 100.159 73.3051 100.011 74.0276C99.9437 74.3591 99.9437 74.7003 100.033 75.0285C100.104 75.2853 100.252 75.4435 100.167 75.7045C100.056 76.0414 99.663 76.4443 99.4606 76.7444C99.2256 77.0911 98.9917 77.4388 98.7578 77.7865C98.291 78.4819 97.8264 79.1795 97.3618 79.8761C96.4327 81.2713 95.5133 82.673 94.6015 84.079C94.3049 84.5369 94.0092 84.9952 93.7144 85.454L93.2731 86.1427L93.0399 86.5057L92.642 87.1283C92.6562 87.1858 92.6551 87.2465 92.6366 87.2995C92.5688 87.4918 92.4418 87.6233 92.284 87.7186L92.2558 87.735C89.9339 91.3888 87.6491 95.0664 85.3414 98.729C85.2185 99.8468 85.1031 100.966 85.003 102.085C84.7756 104.617 84.62 107.157 84.57 109.699C84.5461 110.93 84.6451 112.168 84.6984 113.397C84.7245 113.984 84.7602 114.57 84.8069 115.156L84.8412 115.571C84.8872 116.142 84.9132 116.708 84.7071 117.252C84.5243 117.73 83.9672 117.837 83.6376 117.473C79.3366 117.301 75.0324 117.17 70.7282 117.089C63.024 116.942 55.3164 116.964 47.6111 117.113C43.741 117.187 39.8698 117.292 36.0008 117.422C34.0946 117.485 32.1873 117.574 30.28 117.6C29.2524 117.614 27.6351 117.242 27.5522 116.091L27.5502 116.055C27.4218 116.09 27.289 116.118 27.153 116.139C27.0925 116.148 27.0343 116.145 26.9806 116.133L26.9539 116.126C25.4221 116.591 23.4845 115.927 22.029 115.541L21.9088 115.509C20.5194 115.149 19.4031 114.633 18.4924 113.487C16.8985 111.48 16.3545 108.785 16.0716 106.301C15.8061 103.963 15.7909 101.582 16.114 99.2489C15.9236 97.3478 16.1097 95.3861 16.3262 93.4957C16.4328 92.5608 16.5579 91.6271 16.7081 90.6977C16.7918 90.1788 16.9017 89.6653 17.0138 89.1529C17.0585 88.9482 17.0958 88.7278 17.1525 88.5147L17.1781 88.4239C17.004 88.4467 16.8136 88.4088 16.6297 88.3081C16.1923 88.0687 16.065 87.5844 16.0574 87.1209C16.0335 85.7234 16.201 84.286 16.349 82.8973C16.4981 81.5107 16.7026 80.1187 16.9703 78.7494L17.0395 78.3964C17.2423 77.3722 17.4744 76.3148 17.8831 75.3524C16.348 75.0925 14.8171 74.8163 13.3276 74.346C12.6008 74.1153 11.8849 73.8284 11.2016 73.4784ZM91.3299 88.021C91.3059 88.0265 91.2831 88.033 91.2602 88.0395C90.6466 88.2106 90.0264 88.3558 89.4084 88.5118C88.34 88.7793 87.2955 89.0783 86.3021 89.543C86.094 92.158 85.7856 94.7645 85.4923 97.3722L85.4339 97.8938C85.8843 97.0618 86.3456 96.2364 86.8276 95.4208C88.2954 92.9346 89.7968 90.4681 91.3299 88.021ZM17.5522 88.28C17.5555 88.5908 17.4902 88.9137 17.4554 89.2126C17.3988 89.698 17.3531 90.1855 17.2955 90.6707C17.178 91.6456 17.0779 92.6216 17.005 93.6008C16.9582 94.226 16.9277 94.8532 16.9005 95.4804C17.5174 93.1849 18.3345 90.9394 19.1114 88.6905C18.9815 88.6768 18.8488 88.6453 18.7119 88.6091L18.4813 88.5472C18.3454 88.5124 17.9045 88.4044 17.5522 88.28ZM93.273 86.1426L93.2774 86.2455C93.2937 86.6105 93.0739 86.8163 92.8073 86.8694C92.9618 86.6268 93.1174 86.3841 93.273 86.1426ZM22.6825 68.841C23.332 68.8983 23.9685 69.036 24.5756 69.2743L24.6342 69.2971C25.0833 69.4697 25.7398 69.6865 25.8867 70.1637C25.9281 70.2991 25.8171 70.4105 25.6898 70.4215C25.2023 70.4605 24.6279 69.9404 24.1763 69.7649C23.6737 69.5699 23.1471 69.4248 22.614 69.3479C21.416 69.1735 20.167 69.3057 19.0398 69.7401C18.9734 69.7661 18.9321 69.6609 18.9919 69.6295C20.1278 69.0142 21.391 68.7273 22.6825 68.841ZM8.91803 71.9391C8.84291 71.873 8.76783 71.8037 8.69385 71.7345C8.11052 71.185 7.59395 70.5438 7.21148 69.8392L7.11082 69.6485C6.7993 69.0481 6.41677 68.1926 7.14886 67.7599C7.58625 67.5011 8.11285 67.566 8.60028 67.7231C8.63183 67.7328 8.66339 67.7438 8.69494 67.7545C8.91254 67.8304 9.12253 67.9213 9.30967 68.008C10.1224 68.3795 10.8394 68.9201 11.5902 69.3968C12.4036 69.9135 13.2068 70.2439 14.1456 70.4373L14.234 70.455C15.1153 70.6285 16.0706 70.7399 16.6854 71.4614C16.8399 71.6435 16.6984 71.9846 16.4318 71.8947C14.7324 71.3239 12.9339 71.1981 11.3736 70.2611C10.7274 69.8733 10.1159 69.4282 9.45546 69.0609C9.10512 68.8658 8.74341 68.6952 8.35793 68.5782L8.14735 68.5164C8.024 68.4805 7.87675 68.4451 7.77774 68.4804C7.58926 68.5454 7.64942 68.6458 7.70773 68.8211L7.71354 68.8388C8.1716 70.2493 9.47722 71.43 10.6871 72.211C10.9645 72.3908 11.2485 72.5556 11.5379 72.7083C13.497 73.7479 15.689 74.2318 17.8419 74.8061C17.8419 74.8061 19.0866 75.1521 19.499 75.2821C19.9581 75.244 20.4815 75.4055 20.8275 75.5984C21.1637 75.7857 21.4346 76.0371 21.6391 76.3328C21.6391 76.3328 21.8361 76.4964 21.872 76.7499C21.9753 76.9849 22.045 77.2383 22.0798 77.5027C22.0994 77.6576 22.0602 77.7767 21.9862 77.8612C22.2088 81.2618 21.2862 84.6432 20.246 87.875L20.143 88.1937L20.0767 88.3957C18.955 91.8221 17.6679 95.2236 17.0934 98.796C16.7093 101.182 16.7213 103.652 17.0031 106.049L17.023 106.215C17.3006 108.481 17.8348 111.024 19.2825 112.848C20.0209 113.779 20.8957 114.193 22.0142 114.492L22.0754 114.509C23.0873 114.774 24.1318 115.15 25.1752 115.264C26.1435 115.369 26.9552 115.01 27.8267 114.674L27.8278 114.673C29.6633 113.056 30.4967 110.701 31.1125 108.324C32.7086 102.174 32.5106 95.789 31.6054 89.5484C31.1332 86.2878 30.4913 83.0554 29.8515 79.8241C29.5316 78.209 29.1867 76.5971 28.9006 74.9766L28.7306 74.0228C28.6368 73.493 28.5461 72.9627 28.4686 72.4299C28.3642 71.7138 28.3326 71.0097 28.2967 70.2894C27.4176 68.8389 26.1414 67.6441 24.6627 66.7872C23.6041 66.173 22.4834 65.7473 21.3269 65.4386C18.0204 64.5514 14.4158 64.6142 11.0886 63.9318C9.97086 63.7028 8.90988 63.3628 7.84946 62.9554L7.70485 62.8994C7.21851 62.711 6.72237 62.6059 6.48083 63.1768C6.30892 63.583 6.4112 64.0054 6.66906 64.3467C7.3012 65.1829 8.572 65.5707 9.52837 65.8719C10.1039 66.0539 10.6915 66.1979 11.2855 66.3052C11.8796 66.4124 12.4758 66.4395 13.0459 66.6486C13.2657 66.7287 13.3092 67.0764 13.0459 67.1381C12.3235 67.3061 11.5967 67.162 10.8786 67.0223C10.0898 66.8673 9.31294 66.6475 8.55786 66.3691C8.41859 66.318 8.27445 66.264 8.12766 66.2068L8.01711 66.1632C8.13135 66.2457 8.2456 66.3269 8.36093 66.4081C8.39139 66.4297 8.37289 66.4871 8.33264 66.473C6.5572 65.8136 4.94177 64.6238 3.69031 63.216L3.62804 63.1454C3.18739 62.6427 2.18315 61.1218 1.33667 61.5453C0.541809 61.9426 1.89677 63.4739 2.4117 64.1L2.4715 64.1734C3.05685 64.1885 3.62371 64.5513 4.09809 64.8438C4.92172 65.352 5.78234 65.7896 6.65929 66.1989C8.40229 67.0146 10.253 67.5899 11.9775 68.4467C12.0004 68.4587 11.983 68.4878 11.9612 68.4847C10.8634 68.3102 9.77755 68.0318 8.71673 67.6863L8.6694 67.6716L8.62207 67.6559C7.95947 67.4393 7.30557 67.1946 6.66255 66.9334C5.94772 66.6432 5.24921 66.3171 4.57138 65.9477C3.95773 65.6141 3.27663 65.0129 2.56507 64.9241C2.48891 64.9143 2.42145 64.9131 2.3627 64.9187C1.5456 64.9868 2.22127 66.3344 2.44975 66.7374C2.82294 67.3992 3.27338 68.0102 3.79019 68.5681C4.83795 69.7011 6.10767 70.5991 7.48184 71.2978C7.95078 71.5362 8.43059 71.7463 8.91803 71.9391Z" fill="#2B283A"></path>
<path fill-rule="evenodd" clip-rule="evenodd" d="M74.6841 27.0198C74.6467 24.8824 74.6053 22.7023 74.292 20.5857C73.9857 18.5164 73.143 16.646 71.6949 15.1434C68.6191 11.9516 64.1607 11.172 60.0106 10.4575L52.9151 9.23599C50.7504 8.86341 48.4411 8.26785 46.254 8.79624C45.1763 9.05662 44.2611 9.66152 43.4246 10.3772C42.6183 11.067 41.7515 11.8078 41.2052 12.7359C40.6579 13.6653 40.4696 14.7517 40.2917 15.8028C40.0911 16.9879 39.9352 18.1823 39.8244 19.3795C39.6025 21.7781 39.5722 24.1948 39.7332 26.5984C39.8112 27.7642 39.9353 28.9267 40.0937 30.0841C40.1722 30.658 40.2611 31.2304 40.3613 31.8009C40.3909 31.9691 40.4134 32.1553 40.4437 32.3435C40.2198 32.989 40.0927 33.6576 40.1029 34.3233C40.1331 36.2841 41.7651 37.5187 43.4104 38.1815C44.3644 38.5658 45.3617 38.8269 46.299 39.2563C47.2851 39.7079 47.9563 40.44 48.6304 41.2751C49.9162 42.8679 51.3672 44.2994 53.0241 45.4938C56.5369 48.0261 60.9861 49.2238 65.2483 48.3147C66.271 48.0966 67.3027 47.7579 68.2219 47.2475C69.1925 46.7088 69.9222 45.928 70.5351 45.0049C71.673 43.2912 72.489 41.3615 73.1064 39.3979C73.7361 37.3948 74.183 35.3881 74.4268 33.2995C74.6697 31.2176 74.7209 29.1146 74.6841 27.0198Z" fill="white"></path>
<path fill-rule="evenodd" clip-rule="evenodd" d="M52.0419 1.79021C54.9781 1.38061 59.0308 2.71188 60.4931 5.39617C67.4744 3.72705 76.2797 3.67238 82.0338 9.22883C88.0379 15.82 80.4964 24.5105 75.4957 26.4699C75.8598 28.2643 75.2922 39.7599 71.2754 44.8875C68.0876 49.2322 60.664 51.2372 57.2288 46.0479L57.202 46.0051C56.834 45.4058 57.151 45.4251 57.5287 45.8709C60.8925 48.8708 65.466 48.922 68.9904 45.7561C75.5956 39.9694 74.9145 25.7808 71.7715 17.5725C62.8216 16.5757 53.2392 19.3267 47.0576 26.1589L47.4756 28.711C47.5468 29.1458 47.6277 29.5802 47.6894 30.0165C47.729 30.2961 47.7334 30.5741 47.5424 30.8004C46.9118 31.5475 45.849 30.4249 44.9745 29.9783C44.7163 29.9415 44.4577 29.9273 44.2041 29.9454C40.0026 30.4942 40.8304 38.7597 45.4481 37.3109C45.8361 37.0658 46.1694 37.1406 46.3199 37.4962C47.4206 38.5187 48.1463 40.3422 49.9749 42.0985C50.6201 42.7573 51.2073 43.3085 51.933 43.837C52.3593 44.2742 53.6456 44.7199 53.2378 45.468C52.4668 47.1703 47.9198 41.823 47.1158 40.3443C44.597 41.3529 41.8057 41.0103 39.1954 40.7638C25.4249 40.0377 27.2632 25.3167 38.5506 16.0227C40.6753 14.4364 43.0195 13.1423 45.4563 12.1465C45.7889 12.0105 45.6436 11.4566 45.3062 11.5945C43.6939 12.2535 42.1221 13.0378 40.6237 13.9457L40.6215 13.4029C40.6193 12.4888 40.6334 11.537 40.79 10.7018C40.8682 10.123 40.9999 9.50486 41.2025 9.03982C41.453 7.6141 45.3776 2.72028 52.0419 1.79021ZM44.0202 31.8428C44.2328 31.638 44.6298 31.8822 44.8191 31.8761C45.3031 31.9433 45.763 32.1506 46.1216 32.4065C46.3584 32.541 46.5244 32.6674 46.663 32.7836L46.6668 32.7825C46.6658 32.7825 46.6644 32.7836 46.6633 32.7839L46.6764 32.7928C46.8783 32.9383 47.6175 33.7578 47.1505 33.5374C47.1157 33.4915 47.08 33.4474 47.0441 33.4042C47.0402 33.4101 47.0348 33.416 47.0284 33.4216L47.0547 33.4611C47.4516 34.0666 46.7663 33.4286 46.6609 33.2592C46.6559 33.2633 46.6502 33.2661 46.6447 33.269L46.782 33.4385C46.8012 33.4626 46.8163 33.4818 46.8288 33.498L46.8578 33.5264C47.3167 33.9838 47.331 34.3955 46.7978 33.7192C46.8188 33.751 46.8357 33.7848 46.838 33.8148L46.8696 33.8556C47.2882 34.4027 46.9477 34.2084 46.7397 33.9748L46.7223 33.9547L46.7259 33.9601C46.9194 34.2625 46.5354 34.0503 46.4676 33.8886L46.4647 33.8813C46.3908 33.8201 46.3453 33.7514 46.3297 33.7341L46.3268 33.7312C45.9668 33.3572 45.4451 33.0407 45.0019 32.8969C44.9376 32.8845 44.8726 32.8746 44.8069 32.8675C44.5404 32.8072 44.2709 32.7659 43.9987 32.7436C43.9654 32.7396 43.9316 32.7148 43.9064 32.6827C43.4947 32.6686 43.6218 32.4975 43.7926 32.4657L43.7956 32.4652L43.7617 32.4623C43.4975 32.4362 43.317 32.34 43.5842 32.281L43.618 32.2742C43.6139 32.2676 43.6102 32.261 43.6066 32.2544C43.3778 32.2289 43.5271 32.0034 43.6542 32.058C43.6007 31.8808 43.8449 31.9692 43.8754 31.9429C43.8987 31.9168 43.9276 31.8937 43.9442 31.8924C44.0178 31.8398 43.9821 31.8445 44.0202 31.8428ZM45.4203 28.9746L45.3666 29.0063C45.3233 29.032 45.2787 29.0491 45.2339 29.0591C45.2971 29.0864 45.3596 29.1159 45.4214 29.1473C45.4204 29.1089 45.4197 29.0704 45.4197 29.0321L45.4203 28.9746Z" fill="#2B283A"></path>
<path fill-rule="evenodd" clip-rule="evenodd" d="M62.7415 38.9875C63.7829 38.6096 64.8882 38.7517 65.9387 39.1443L66.0329 39.1801C66.9979 39.5527 68.1771 40.2 68.5719 41.2109C68.6501 41.4113 68.6868 41.6163 68.6917 41.8204C68.8207 41.8333 68.9486 41.8502 69.0754 41.8728C69.3364 41.9193 69.3241 42.3393 69.0754 42.3946C68.9179 42.4295 68.7575 42.4551 68.5956 42.4742C68.4459 42.9457 68.1361 43.3735 67.7449 43.6736C66.8291 44.3761 65.567 44.5083 64.46 44.6157C63.2358 44.7345 62.0055 44.7055 60.7859 44.5553L60.3565 44.4997C59.3577 44.3682 58.2441 44.1992 57.395 43.6579C56.5957 43.1486 56.049 42.1651 56.3873 41.2099C56.7337 40.2317 57.9212 39.8166 58.8026 39.5026C60.0691 39.0513 61.4168 38.8743 62.7415 38.9875ZM60.9744 42.2656C60.9868 42.5515 60.9974 42.8376 61.0086 43.1236C61.012 43.2113 60.9871 43.2906 60.9446 43.3591C61.5503 43.4312 62.1614 43.4652 62.7707 43.4647C62.6593 43.1235 62.6533 42.7318 62.647 42.3675C62.089 42.3399 61.5316 42.3071 60.9744 42.2656ZM63.2173 42.394L63.2659 42.5788C63.3412 42.8684 63.4097 43.1662 63.3995 43.4521C63.6836 43.4412 63.9668 43.424 64.2484 43.3992L64.6077 43.3683C64.6894 43.3612 64.7721 43.3538 64.8553 43.3458C64.8738 43.0495 64.9082 42.7493 64.9388 42.4531C64.3648 42.4373 63.791 42.4186 63.2173 42.394ZM65.4938 42.4662C65.5199 42.7279 65.5443 42.9956 65.5546 43.2607C66.0157 43.1879 66.468 43.0747 66.8544 42.8745C67.0488 42.7738 67.2046 42.652 67.3208 42.5171C66.9305 42.5078 66.5413 42.4878 66.1637 42.4816C66.0893 42.4803 66.0149 42.4788 65.9404 42.477L65.4938 42.4662ZM57.4837 41.8639C57.5138 42.4101 58.3663 42.8 58.8052 42.9283C59.224 43.0508 59.6503 43.1502 60.0809 43.2292C60.0728 43.1926 60.0688 43.1567 60.0717 43.1235C60.099 42.8152 60.126 42.5071 60.1547 42.1993L59.9235 42.1807C59.1113 42.1173 58.2666 42.0666 57.4837 41.8639ZM62.8033 39.7827C62.8716 40.4671 62.9663 41.1476 63.0926 41.8235L63.3237 41.8284C63.8786 41.8374 64.4335 41.841 64.9885 41.8417C64.99 41.8141 64.9914 41.7866 64.9924 41.7593C65.0132 41.1876 65.0053 40.6158 64.9846 40.0443C64.2796 39.8867 63.5416 39.8353 62.8033 39.7827ZM65.2744 40.1158C65.3362 40.6896 65.3877 41.2645 65.4346 41.8401L65.9209 41.8392C66.0019 41.839 66.083 41.8386 66.164 41.8379C66.6194 41.8336 67.0874 41.8034 67.5548 41.7907C67.5199 41.5436 67.3763 41.2922 67.1115 41.0635C66.5512 40.5795 65.9296 40.2939 65.2744 40.1158ZM62.3699 39.6514C61.8341 39.7096 61.3024 39.8048 60.7783 39.9383C60.9152 40.3401 60.889 40.8 60.918 41.2197C60.9308 41.4045 60.9413 41.5894 60.9509 41.7742C61.5115 41.7881 62.0721 41.8015 62.6326 41.8136C62.6147 41.1331 62.6263 40.4528 62.6641 39.7728L62.603 39.7684C62.5123 39.7618 62.4313 39.716 62.3699 39.6514ZM60.4234 40.0346C60.1785 40.1056 59.9354 40.1843 59.6946 40.2726L59.4321 40.3687C58.7991 40.6024 57.9614 40.9407 57.6086 41.4632C57.5493 41.551 57.5136 41.636 57.4961 41.718C58.3834 41.6351 59.3034 41.7187 60.1988 41.7529C60.211 41.6343 60.2236 41.5158 60.2369 41.3973L60.2574 41.2196C60.3032 40.8358 60.3028 40.4095 60.4234 40.0346ZM64.8565 31.8165C65.7001 32.3359 66.9854 33.5471 66.078 34.8348C65.0098 35.9703 63.4718 34.6684 62.7139 34.0797C62.0112 33.6234 61.2216 34.7969 61.8736 35.3297C67.3501 39.437 69.5725 31.9523 65.2832 31.2058C64.8109 31.1235 64.6355 31.6558 64.8565 31.8165ZM54.5167 25.5188C55.7154 23.4083 58.6812 23.384 60.378 24.9956C61.998 26.5345 62.1984 29.16 60.9045 30.9598C59.5254 32.8779 56.8465 33.4085 54.6741 32.7249C52.6376 32.0841 51.5429 29.8458 52.241 27.7951C52.6186 26.6858 53.4877 25.9189 54.5167 25.5188ZM53.3999 21.9836C54.413 21.0751 56.2539 20.1977 57.62 20.6448C58.4054 20.9018 58.7478 22.1839 57.871 22.5902C56.8557 23.0608 55.6851 22.8693 54.6516 23.357C54.2176 23.562 53.8094 23.8181 53.5073 24.1937C53.2692 24.4897 53.027 24.8792 52.6827 25.0498C52.5922 25.0948 52.4697 25.0959 52.3972 25.0126C51.6425 24.1478 52.7409 22.5744 53.3999 21.9836ZM67.871 20.5998C68.4971 20.4218 69.1917 20.4255 69.8278 20.5373C70.4637 20.6491 71.1092 20.916 71.6283 21.3054L71.6886 21.351C72.2553 21.7836 72.9316 22.413 72.8954 23.1794C72.8651 23.8193 72.2005 24.2522 71.6268 23.9168C71.159 23.6433 70.939 23.0953 70.543 22.7305C70.2162 22.4294 69.8324 22.1919 69.4228 22.0256C68.968 21.8408 68.5123 21.7542 68.0241 21.746C67.6482 21.7396 67.2701 21.8646 66.9012 21.9045C66.9316 21.9676 66.64 21.9382 66.4729 21.8822C66.3491 21.8288 66.3485 21.6703 66.3914 21.5674C66.6042 21.0578 67.3784 20.7397 67.871 20.5998ZM68.5528 24.1809C69.6016 23.97 70.7678 24.201 71.6456 24.8238C73.2196 25.9406 73.9257 28.2503 73.1942 30.0567C72.4684 31.8496 70.4843 32.9901 68.5923 32.6476C66.661 32.2979 65.167 30.3277 65.3753 28.3428C65.4639 27.4979 65.8277 26.7363 66.3661 26.1606C66.3702 26.1408 66.3748 26.1208 66.3825 26.1002C66.761 25.0798 67.4781 24.3972 68.5528 24.1809ZM58.9551 25.8034C57.7525 25.0701 55.9845 25.4796 54.9515 26.3648C54.7464 26.5407 54.515 26.4892 54.3891 26.3358C53.688 26.909 53.193 27.711 53.1134 28.6876C52.971 30.4393 54.2024 31.5913 55.8615 31.7238C57.5571 31.8593 59.3118 31.3799 60.1104 29.7342C60.8 28.3134 60.2938 26.6197 58.9551 25.8034ZM70.3396 25.8791C69.398 25.5051 68.0476 25.7261 67.2254 26.3661C66.5995 27.1836 66.2948 28.3053 66.5354 29.224C66.8831 30.5507 68.1398 31.5842 69.5205 31.4372C70.7982 31.3012 71.9526 30.2651 72.0898 28.9496C72.2217 27.6843 71.5363 26.3544 70.3396 25.8791ZM69.5407 27.8645C69.7553 27.7095 70.0113 27.8841 70.0898 28.0908L70.1348 28.1845C70.1585 28.2347 70.183 28.2865 70.1838 28.2884L70.1923 28.3134C70.2037 28.335 70.2173 28.3552 70.2303 28.3757C70.2403 28.3827 70.3238 28.4885 70.3349 28.5023C70.4695 28.6707 70.541 28.8247 70.5368 29.0463C70.5286 29.4843 70.1251 29.7928 69.7068 29.6868C69.2568 29.5727 69.0652 29.1013 69.1062 28.6684C69.1387 28.3258 69.262 28.0658 69.5407 27.8645ZM57.3242 27.9484C57.5227 27.7656 57.829 27.7502 58.0249 27.9484C58.1325 28.0573 58.1761 28.1786 58.2533 28.3052L58.2899 28.3634C58.3702 28.4884 58.4542 28.6083 58.4758 28.7616C58.527 29.1225 58.4165 29.4584 58.0655 29.6085C57.7164 29.7577 57.3931 29.6051 57.1805 29.3148C56.929 28.9708 57.0054 28.242 57.3242 27.9484Z" fill="#2B283A"></path>

</svg>